G04 #@! TF.GenerationSoftware,KiCad,Pcbnew,(5.1.4)-1*
G04 #@! TF.CreationDate,2022-05-13T01:11:50-07:00*
G04 #@! TF.ProjectId,bakeneko60tho,62616b65-6e65-46b6-9f36-3074686f2e6b,rev?*
G04 #@! TF.SameCoordinates,Original*
G04 #@! TF.FileFunction,Legend,Bot*
G04 #@! TF.FilePolarity,Positive*
%FSLAX46Y46*%
G04 Gerber Fmt 4.6, Leading zero omitted, Abs format (unit mm)*
G04 Created by KiCad (PCBNEW (5.1.4)-1) date 2022-05-13 01:11:50*
%MOMM*%
%LPD*%
G04 APERTURE LIST*
%ADD10C,0.120000*%
%ADD11C,0.150000*%
G04 APERTURE END LIST*
D10*
X69360000Y-29810000D02*
X69360000Y-33690000D01*
X64890000Y-34860000D02*
X64890000Y-33810000D01*
X67390000Y-34860000D02*
X64890000Y-34860000D01*
X64890000Y-29690000D02*
X63900000Y-29690000D01*
X64890000Y-28640000D02*
X64890000Y-29690000D01*
X67390000Y-28640000D02*
X64890000Y-28640000D01*
X231573000Y-46359578D02*
X231573000Y-45842422D01*
X232993000Y-46359578D02*
X232993000Y-45842422D01*
X224032578Y-61520000D02*
X223515422Y-61520000D01*
X224032578Y-62940000D02*
X223515422Y-62940000D01*
X231065000Y-55821078D02*
X231065000Y-55303922D01*
X232485000Y-55821078D02*
X232485000Y-55303922D01*
X218197500Y-26728922D02*
X218197500Y-27246078D01*
X216777500Y-26728922D02*
X216777500Y-27246078D01*
D11*
X217932250Y-54447500D02*
X216657250Y-54447500D01*
X228282250Y-55022500D02*
X227607250Y-55022500D01*
X228282250Y-44672500D02*
X227607250Y-44672500D01*
X217932250Y-44672500D02*
X218607250Y-44672500D01*
X217932250Y-55022500D02*
X218607250Y-55022500D01*
X217932250Y-44672500D02*
X217932250Y-45347500D01*
X228282250Y-44672500D02*
X228282250Y-45347500D01*
X228282250Y-55022500D02*
X228282250Y-54347500D01*
X217932250Y-55022500D02*
X217932250Y-54447500D01*
D10*
X213285000Y-32008578D02*
X213285000Y-31491422D01*
X214705000Y-32008578D02*
X214705000Y-31491422D01*
X83094328Y-30809000D02*
X82577172Y-30809000D01*
X83094328Y-29389000D02*
X82577172Y-29389000D01*
X224091250Y-28637500D02*
X220091250Y-28637500D01*
X224091250Y-25337500D02*
X224091250Y-28637500D01*
D11*
X200600000Y-34350000D02*
X205800000Y-34350000D01*
X205800000Y-34350000D02*
X205800000Y-29150000D01*
X205800000Y-29150000D02*
X200600000Y-29150000D01*
X200600000Y-29150000D02*
X200600000Y-34350000D01*
X204200000Y-31750000D02*
G75*
G03X204200000Y-31750000I-1000000J0D01*
G01*
D10*
X83094328Y-34111000D02*
X82577172Y-34111000D01*
X83094328Y-32691000D02*
X82577172Y-32691000D01*
X77121936Y-51922000D02*
X78326064Y-51922000D01*
X77121936Y-53742000D02*
X78326064Y-53742000D01*
X297862500Y-100675000D02*
X297862500Y-96775000D01*
X295862500Y-100675000D02*
X295862500Y-96775000D01*
X297862500Y-100675000D02*
X295862500Y-100675000D01*
X278812500Y-100675000D02*
X278812500Y-96775000D01*
X276812500Y-100675000D02*
X276812500Y-96775000D01*
X278812500Y-100675000D02*
X276812500Y-100675000D01*
X259762500Y-100675000D02*
X259762500Y-96775000D01*
X257762500Y-100675000D02*
X257762500Y-96775000D01*
X259762500Y-100675000D02*
X257762500Y-100675000D01*
X240712500Y-100675000D02*
X240712500Y-96775000D01*
X238712500Y-100675000D02*
X238712500Y-96775000D01*
X240712500Y-100675000D02*
X238712500Y-100675000D01*
X221662500Y-100675000D02*
X221662500Y-96775000D01*
X219662500Y-100675000D02*
X219662500Y-96775000D01*
X221662500Y-100675000D02*
X219662500Y-100675000D01*
X202612500Y-100675000D02*
X202612500Y-96775000D01*
X200612500Y-100675000D02*
X200612500Y-96775000D01*
X202612500Y-100675000D02*
X200612500Y-100675000D01*
X183562500Y-100675000D02*
X183562500Y-96775000D01*
X181562500Y-100675000D02*
X181562500Y-96775000D01*
X183562500Y-100675000D02*
X181562500Y-100675000D01*
X164512500Y-100675000D02*
X164512500Y-96775000D01*
X162512500Y-100675000D02*
X162512500Y-96775000D01*
X164512500Y-100675000D02*
X162512500Y-100675000D01*
X135937500Y-100675000D02*
X135937500Y-96775000D01*
X133937500Y-100675000D02*
X133937500Y-96775000D01*
X135937500Y-100675000D02*
X133937500Y-100675000D01*
X107362500Y-100675000D02*
X107362500Y-96775000D01*
X105362500Y-100675000D02*
X105362500Y-96775000D01*
X107362500Y-100675000D02*
X105362500Y-100675000D01*
X88312500Y-100675000D02*
X88312500Y-96775000D01*
X86312500Y-100675000D02*
X86312500Y-96775000D01*
X88312500Y-100675000D02*
X86312500Y-100675000D01*
X69262500Y-100675000D02*
X69262500Y-96775000D01*
X67262500Y-100675000D02*
X67262500Y-96775000D01*
X69262500Y-100675000D02*
X67262500Y-100675000D01*
X50212500Y-100675000D02*
X50212500Y-96775000D01*
X48212500Y-100675000D02*
X48212500Y-96775000D01*
X50212500Y-100675000D02*
X48212500Y-100675000D01*
X31162500Y-100675000D02*
X31162500Y-96775000D01*
X29162500Y-100675000D02*
X29162500Y-96775000D01*
X31162500Y-100675000D02*
X29162500Y-100675000D01*
X297862500Y-81625000D02*
X297862500Y-77725000D01*
X295862500Y-81625000D02*
X295862500Y-77725000D01*
X297862500Y-81625000D02*
X295862500Y-81625000D01*
X278812500Y-81625000D02*
X278812500Y-77725000D01*
X276812500Y-81625000D02*
X276812500Y-77725000D01*
X278812500Y-81625000D02*
X276812500Y-81625000D01*
X250237500Y-81625000D02*
X250237500Y-77725000D01*
X248237500Y-81625000D02*
X248237500Y-77725000D01*
X250237500Y-81625000D02*
X248237500Y-81625000D01*
X221662500Y-81625000D02*
X221662500Y-77725000D01*
X219662500Y-81625000D02*
X219662500Y-77725000D01*
X221662500Y-81625000D02*
X219662500Y-81625000D01*
X202612500Y-81625000D02*
X202612500Y-77725000D01*
X200612500Y-81625000D02*
X200612500Y-77725000D01*
X202612500Y-81625000D02*
X200612500Y-81625000D01*
X183562500Y-81625000D02*
X183562500Y-77725000D01*
X181562500Y-81625000D02*
X181562500Y-77725000D01*
X183562500Y-81625000D02*
X181562500Y-81625000D01*
X164512500Y-81625000D02*
X164512500Y-77725000D01*
X162512500Y-81625000D02*
X162512500Y-77725000D01*
X164512500Y-81625000D02*
X162512500Y-81625000D01*
X145462500Y-81625000D02*
X145462500Y-77725000D01*
X143462500Y-81625000D02*
X143462500Y-77725000D01*
X145462500Y-81625000D02*
X143462500Y-81625000D01*
X126412500Y-81625000D02*
X126412500Y-77725000D01*
X124412500Y-81625000D02*
X124412500Y-77725000D01*
X126412500Y-81625000D02*
X124412500Y-81625000D01*
X107362500Y-81625000D02*
X107362500Y-77725000D01*
X105362500Y-81625000D02*
X105362500Y-77725000D01*
X107362500Y-81625000D02*
X105362500Y-81625000D01*
X87518750Y-81625000D02*
X87518750Y-77725000D01*
X85518750Y-81625000D02*
X85518750Y-77725000D01*
X87518750Y-81625000D02*
X85518750Y-81625000D01*
X69262500Y-81625000D02*
X69262500Y-77725000D01*
X67262500Y-81625000D02*
X67262500Y-77725000D01*
X69262500Y-81625000D02*
X67262500Y-81625000D01*
X50212500Y-81625000D02*
X50212500Y-77725000D01*
X48212500Y-81625000D02*
X48212500Y-77725000D01*
X50212500Y-81625000D02*
X48212500Y-81625000D01*
X31162500Y-81625000D02*
X31162500Y-77725000D01*
X29162500Y-81625000D02*
X29162500Y-77725000D01*
X31162500Y-81625000D02*
X29162500Y-81625000D01*
X297862500Y-62575000D02*
X297862500Y-58675000D01*
X295862500Y-62575000D02*
X295862500Y-58675000D01*
X297862500Y-62575000D02*
X295862500Y-62575000D01*
X269287500Y-62575000D02*
X269287500Y-58675000D01*
X267287500Y-62575000D02*
X267287500Y-58675000D01*
X269287500Y-62575000D02*
X267287500Y-62575000D01*
X240712500Y-62575000D02*
X240712500Y-58675000D01*
X238712500Y-62575000D02*
X238712500Y-58675000D01*
X240712500Y-62575000D02*
X238712500Y-62575000D01*
X204993750Y-62575000D02*
X204993750Y-58675000D01*
X202993750Y-62575000D02*
X202993750Y-58675000D01*
X204993750Y-62575000D02*
X202993750Y-62575000D01*
X202612500Y-62575000D02*
X202612500Y-58675000D01*
X200612500Y-62575000D02*
X200612500Y-58675000D01*
X202612500Y-62575000D02*
X200612500Y-62575000D01*
X183562500Y-62575000D02*
X183562500Y-58675000D01*
X181562500Y-62575000D02*
X181562500Y-58675000D01*
X183562500Y-62575000D02*
X181562500Y-62575000D01*
X164512500Y-62575000D02*
X164512500Y-58675000D01*
X162512500Y-62575000D02*
X162512500Y-58675000D01*
X164512500Y-62575000D02*
X162512500Y-62575000D01*
X145462500Y-62575000D02*
X145462500Y-58675000D01*
X143462500Y-62575000D02*
X143462500Y-58675000D01*
X145462500Y-62575000D02*
X143462500Y-62575000D01*
X126412500Y-62575000D02*
X126412500Y-58675000D01*
X124412500Y-62575000D02*
X124412500Y-58675000D01*
X126412500Y-62575000D02*
X124412500Y-62575000D01*
X107362500Y-62575000D02*
X107362500Y-58675000D01*
X105362500Y-62575000D02*
X105362500Y-58675000D01*
X107362500Y-62575000D02*
X105362500Y-62575000D01*
X88312500Y-62575000D02*
X88312500Y-58675000D01*
X86312500Y-62575000D02*
X86312500Y-58675000D01*
X88312500Y-62575000D02*
X86312500Y-62575000D01*
X69262500Y-62575000D02*
X69262500Y-58675000D01*
X67262500Y-62575000D02*
X67262500Y-58675000D01*
X69262500Y-62575000D02*
X67262500Y-62575000D01*
X50212500Y-62575000D02*
X50212500Y-58675000D01*
X48212500Y-62575000D02*
X48212500Y-58675000D01*
X50212500Y-62575000D02*
X48212500Y-62575000D01*
X31162500Y-62575000D02*
X31162500Y-58675000D01*
X29162500Y-62575000D02*
X29162500Y-58675000D01*
X31162500Y-62575000D02*
X29162500Y-62575000D01*
X297862500Y-43525000D02*
X297862500Y-39625000D01*
X295862500Y-43525000D02*
X295862500Y-39625000D01*
X297862500Y-43525000D02*
X295862500Y-43525000D01*
X278812500Y-43525000D02*
X278812500Y-39625000D01*
X276812500Y-43525000D02*
X276812500Y-39625000D01*
X278812500Y-43525000D02*
X276812500Y-43525000D01*
X259762500Y-43525000D02*
X259762500Y-39625000D01*
X257762500Y-43525000D02*
X257762500Y-39625000D01*
X259762500Y-43525000D02*
X257762500Y-43525000D01*
X240712500Y-43525000D02*
X240712500Y-39625000D01*
X238712500Y-43525000D02*
X238712500Y-39625000D01*
X240712500Y-43525000D02*
X238712500Y-43525000D01*
X204993750Y-43525000D02*
X204993750Y-39625000D01*
X202993750Y-43525000D02*
X202993750Y-39625000D01*
X204993750Y-43525000D02*
X202993750Y-43525000D01*
X202612500Y-43525000D02*
X202612500Y-39625000D01*
X200612500Y-43525000D02*
X200612500Y-39625000D01*
X202612500Y-43525000D02*
X200612500Y-43525000D01*
X183562500Y-43525000D02*
X183562500Y-39625000D01*
X181562500Y-43525000D02*
X181562500Y-39625000D01*
X183562500Y-43525000D02*
X181562500Y-43525000D01*
X164512500Y-43525000D02*
X164512500Y-39625000D01*
X162512500Y-43525000D02*
X162512500Y-39625000D01*
X164512500Y-43525000D02*
X162512500Y-43525000D01*
X145462500Y-43525000D02*
X145462500Y-39625000D01*
X143462500Y-43525000D02*
X143462500Y-39625000D01*
X145462500Y-43525000D02*
X143462500Y-43525000D01*
X126412500Y-43525000D02*
X126412500Y-39625000D01*
X124412500Y-43525000D02*
X124412500Y-39625000D01*
X126412500Y-43525000D02*
X124412500Y-43525000D01*
X107362500Y-43525000D02*
X107362500Y-39625000D01*
X105362500Y-43525000D02*
X105362500Y-39625000D01*
X107362500Y-43525000D02*
X105362500Y-43525000D01*
X88312500Y-43525000D02*
X88312500Y-39625000D01*
X86312500Y-43525000D02*
X86312500Y-39625000D01*
X88312500Y-43525000D02*
X86312500Y-43525000D01*
X69262500Y-43525000D02*
X69262500Y-39625000D01*
X67262500Y-43525000D02*
X67262500Y-39625000D01*
X69262500Y-43525000D02*
X67262500Y-43525000D01*
X50212500Y-43525000D02*
X50212500Y-39625000D01*
X48212500Y-43525000D02*
X48212500Y-39625000D01*
X50212500Y-43525000D02*
X48212500Y-43525000D01*
X31162500Y-43525000D02*
X31162500Y-39625000D01*
X29162500Y-43525000D02*
X29162500Y-39625000D01*
X31162500Y-43525000D02*
X29162500Y-43525000D01*
X297862500Y-24475000D02*
X297862500Y-20575000D01*
X295862500Y-24475000D02*
X295862500Y-20575000D01*
X297862500Y-24475000D02*
X295862500Y-24475000D01*
X278812500Y-24475000D02*
X278812500Y-20575000D01*
X276812500Y-24475000D02*
X276812500Y-20575000D01*
X278812500Y-24475000D02*
X276812500Y-24475000D01*
X259762500Y-24475000D02*
X259762500Y-20575000D01*
X257762500Y-24475000D02*
X257762500Y-20575000D01*
X259762500Y-24475000D02*
X257762500Y-24475000D01*
X240712500Y-24475000D02*
X240712500Y-20575000D01*
X238712500Y-24475000D02*
X238712500Y-20575000D01*
X240712500Y-24475000D02*
X238712500Y-24475000D01*
X204993750Y-24475000D02*
X204993750Y-20575000D01*
X202993750Y-24475000D02*
X202993750Y-20575000D01*
X204993750Y-24475000D02*
X202993750Y-24475000D01*
X202612500Y-24475000D02*
X202612500Y-20575000D01*
X200612500Y-24475000D02*
X200612500Y-20575000D01*
X202612500Y-24475000D02*
X200612500Y-24475000D01*
X183562500Y-24475000D02*
X183562500Y-20575000D01*
X181562500Y-24475000D02*
X181562500Y-20575000D01*
X183562500Y-24475000D02*
X181562500Y-24475000D01*
X164512500Y-24475000D02*
X164512500Y-20575000D01*
X162512500Y-24475000D02*
X162512500Y-20575000D01*
X164512500Y-24475000D02*
X162512500Y-24475000D01*
X145462500Y-24475000D02*
X145462500Y-20575000D01*
X143462500Y-24475000D02*
X143462500Y-20575000D01*
X145462500Y-24475000D02*
X143462500Y-24475000D01*
X126412500Y-24475000D02*
X126412500Y-20575000D01*
X124412500Y-24475000D02*
X124412500Y-20575000D01*
X126412500Y-24475000D02*
X124412500Y-24475000D01*
X107362500Y-24475000D02*
X107362500Y-20575000D01*
X105362500Y-24475000D02*
X105362500Y-20575000D01*
X107362500Y-24475000D02*
X105362500Y-24475000D01*
X88312500Y-24475000D02*
X88312500Y-20575000D01*
X86312500Y-24475000D02*
X86312500Y-20575000D01*
X88312500Y-24475000D02*
X86312500Y-24475000D01*
X69262500Y-24475000D02*
X69262500Y-20575000D01*
X67262500Y-24475000D02*
X67262500Y-20575000D01*
X69262500Y-24475000D02*
X67262500Y-24475000D01*
X50212500Y-24475000D02*
X50212500Y-20575000D01*
X48212500Y-24475000D02*
X48212500Y-20575000D01*
X50212500Y-24475000D02*
X48212500Y-24475000D01*
X31162500Y-24475000D02*
X31162500Y-20575000D01*
X29162500Y-24475000D02*
X29162500Y-20575000D01*
X31162500Y-24475000D02*
X29162500Y-24475000D01*
X212038000Y-54510172D02*
X212038000Y-55027328D01*
X210618000Y-54510172D02*
X210618000Y-55027328D01*
X212983578Y-49922500D02*
X212466422Y-49922500D01*
X212983578Y-48502500D02*
X212466422Y-48502500D01*
X226302500Y-27246078D02*
X226302500Y-26728922D01*
X227722500Y-27246078D02*
X227722500Y-26728922D01*
X216777500Y-32040328D02*
X216777500Y-31523172D01*
X218197500Y-32040328D02*
X218197500Y-31523172D01*
D11*
X62147380Y-31416666D02*
X62861666Y-31416666D01*
X63004523Y-31369047D01*
X63099761Y-31273809D01*
X63147380Y-31130952D01*
X63147380Y-31035714D01*
X63147380Y-32416666D02*
X63147380Y-31845238D01*
X63147380Y-32130952D02*
X62147380Y-32130952D01*
X62290238Y-32035714D01*
X62385476Y-31940476D01*
X62433095Y-31845238D01*
X234290142Y-45934333D02*
X234337761Y-45886714D01*
X234385380Y-45743857D01*
X234385380Y-45648619D01*
X234337761Y-45505761D01*
X234242523Y-45410523D01*
X234147285Y-45362904D01*
X233956809Y-45315285D01*
X233813952Y-45315285D01*
X233623476Y-45362904D01*
X233528238Y-45410523D01*
X233433000Y-45505761D01*
X233385380Y-45648619D01*
X233385380Y-45743857D01*
X233433000Y-45886714D01*
X233480619Y-45934333D01*
X233385380Y-46839095D02*
X233385380Y-46362904D01*
X233861571Y-46315285D01*
X233813952Y-46362904D01*
X233766333Y-46458142D01*
X233766333Y-46696238D01*
X233813952Y-46791476D01*
X233861571Y-46839095D01*
X233956809Y-46886714D01*
X234194904Y-46886714D01*
X234290142Y-46839095D01*
X234337761Y-46791476D01*
X234385380Y-46696238D01*
X234385380Y-46458142D01*
X234337761Y-46362904D01*
X234290142Y-46315285D01*
X223940666Y-60937142D02*
X223988285Y-60984761D01*
X224131142Y-61032380D01*
X224226380Y-61032380D01*
X224369238Y-60984761D01*
X224464476Y-60889523D01*
X224512095Y-60794285D01*
X224559714Y-60603809D01*
X224559714Y-60460952D01*
X224512095Y-60270476D01*
X224464476Y-60175238D01*
X224369238Y-60080000D01*
X224226380Y-60032380D01*
X224131142Y-60032380D01*
X223988285Y-60080000D01*
X223940666Y-60127619D01*
X223083523Y-60365714D02*
X223083523Y-61032380D01*
X223321619Y-59984761D02*
X223559714Y-60699047D01*
X222940666Y-60699047D01*
X233877380Y-55395833D02*
X233401190Y-55062500D01*
X233877380Y-54824404D02*
X232877380Y-54824404D01*
X232877380Y-55205357D01*
X232925000Y-55300595D01*
X232972619Y-55348214D01*
X233067857Y-55395833D01*
X233210714Y-55395833D01*
X233305952Y-55348214D01*
X233353571Y-55300595D01*
X233401190Y-55205357D01*
X233401190Y-54824404D01*
X233210714Y-56252976D02*
X233877380Y-56252976D01*
X232829761Y-56014880D02*
X233544047Y-55776785D01*
X233544047Y-56395833D01*
X216194642Y-26820833D02*
X216242261Y-26773214D01*
X216289880Y-26630357D01*
X216289880Y-26535119D01*
X216242261Y-26392261D01*
X216147023Y-26297023D01*
X216051785Y-26249404D01*
X215861309Y-26201785D01*
X215718452Y-26201785D01*
X215527976Y-26249404D01*
X215432738Y-26297023D01*
X215337500Y-26392261D01*
X215289880Y-26535119D01*
X215289880Y-26630357D01*
X215337500Y-26773214D01*
X215385119Y-26820833D01*
X215289880Y-27154166D02*
X215289880Y-27773214D01*
X215670833Y-27439880D01*
X215670833Y-27582738D01*
X215718452Y-27677976D01*
X215766071Y-27725595D01*
X215861309Y-27773214D01*
X216099404Y-27773214D01*
X216194642Y-27725595D01*
X216242261Y-27677976D01*
X216289880Y-27582738D01*
X216289880Y-27297023D01*
X216242261Y-27201785D01*
X216194642Y-27154166D01*
X223869154Y-56749880D02*
X223869154Y-57559404D01*
X223821535Y-57654642D01*
X223773916Y-57702261D01*
X223678678Y-57749880D01*
X223488202Y-57749880D01*
X223392964Y-57702261D01*
X223345345Y-57654642D01*
X223297726Y-57559404D01*
X223297726Y-56749880D01*
X222297726Y-57749880D02*
X222869154Y-57749880D01*
X222583440Y-57749880D02*
X222583440Y-56749880D01*
X222678678Y-56892738D01*
X222773916Y-56987976D01*
X222869154Y-57035595D01*
X216097380Y-31583333D02*
X215621190Y-31250000D01*
X216097380Y-31011904D02*
X215097380Y-31011904D01*
X215097380Y-31392857D01*
X215145000Y-31488095D01*
X215192619Y-31535714D01*
X215287857Y-31583333D01*
X215430714Y-31583333D01*
X215525952Y-31535714D01*
X215573571Y-31488095D01*
X215621190Y-31392857D01*
X215621190Y-31011904D01*
X215097380Y-31916666D02*
X215097380Y-32535714D01*
X215478333Y-32202380D01*
X215478333Y-32345238D01*
X215525952Y-32440476D01*
X215573571Y-32488095D01*
X215668809Y-32535714D01*
X215906904Y-32535714D01*
X216002142Y-32488095D01*
X216049761Y-32440476D01*
X216097380Y-32345238D01*
X216097380Y-32059523D01*
X216049761Y-31964285D01*
X216002142Y-31916666D01*
X83002416Y-28901380D02*
X83335750Y-28425190D01*
X83573845Y-28901380D02*
X83573845Y-27901380D01*
X83192892Y-27901380D01*
X83097654Y-27949000D01*
X83050035Y-27996619D01*
X83002416Y-28091857D01*
X83002416Y-28234714D01*
X83050035Y-28329952D01*
X83097654Y-28377571D01*
X83192892Y-28425190D01*
X83573845Y-28425190D01*
X82621464Y-27996619D02*
X82573845Y-27949000D01*
X82478607Y-27901380D01*
X82240511Y-27901380D01*
X82145273Y-27949000D01*
X82097654Y-27996619D01*
X82050035Y-28091857D01*
X82050035Y-28187095D01*
X82097654Y-28329952D01*
X82669083Y-28901380D01*
X82050035Y-28901380D01*
X222567440Y-24513690D02*
X222567440Y-24989880D01*
X222900773Y-23989880D02*
X222567440Y-24513690D01*
X222234107Y-23989880D01*
X221376964Y-24989880D02*
X221948392Y-24989880D01*
X221662678Y-24989880D02*
X221662678Y-23989880D01*
X221757916Y-24132738D01*
X221853154Y-24227976D01*
X221948392Y-24275595D01*
X204533333Y-28090761D02*
X204390476Y-28138380D01*
X204152380Y-28138380D01*
X204057142Y-28090761D01*
X204009523Y-28043142D01*
X203961904Y-27947904D01*
X203961904Y-27852666D01*
X204009523Y-27757428D01*
X204057142Y-27709809D01*
X204152380Y-27662190D01*
X204342857Y-27614571D01*
X204438095Y-27566952D01*
X204485714Y-27519333D01*
X204533333Y-27424095D01*
X204533333Y-27328857D01*
X204485714Y-27233619D01*
X204438095Y-27186000D01*
X204342857Y-27138380D01*
X204104761Y-27138380D01*
X203961904Y-27186000D01*
X203628571Y-27138380D02*
X203390476Y-28138380D01*
X203200000Y-27424095D01*
X203009523Y-28138380D01*
X202771428Y-27138380D01*
X201866666Y-28138380D02*
X202438095Y-28138380D01*
X202152380Y-28138380D02*
X202152380Y-27138380D01*
X202247619Y-27281238D01*
X202342857Y-27376476D01*
X202438095Y-27424095D01*
X83002416Y-32203380D02*
X83335750Y-31727190D01*
X83573845Y-32203380D02*
X83573845Y-31203380D01*
X83192892Y-31203380D01*
X83097654Y-31251000D01*
X83050035Y-31298619D01*
X83002416Y-31393857D01*
X83002416Y-31536714D01*
X83050035Y-31631952D01*
X83097654Y-31679571D01*
X83192892Y-31727190D01*
X83573845Y-31727190D01*
X82050035Y-32203380D02*
X82621464Y-32203380D01*
X82335750Y-32203380D02*
X82335750Y-31203380D01*
X82430988Y-31346238D01*
X82526226Y-31441476D01*
X82621464Y-31489095D01*
X78057333Y-54580571D02*
X78390666Y-54580571D01*
X78390666Y-55104380D02*
X78390666Y-54104380D01*
X77914476Y-54104380D01*
X77009714Y-55104380D02*
X77581142Y-55104380D01*
X77295428Y-55104380D02*
X77295428Y-54104380D01*
X77390666Y-54247238D01*
X77485904Y-54342476D01*
X77581142Y-54390095D01*
X299314880Y-97210714D02*
X298314880Y-97210714D01*
X298314880Y-97448809D01*
X298362500Y-97591666D01*
X298457738Y-97686904D01*
X298552976Y-97734523D01*
X298743452Y-97782142D01*
X298886309Y-97782142D01*
X299076785Y-97734523D01*
X299172023Y-97686904D01*
X299267261Y-97591666D01*
X299314880Y-97448809D01*
X299314880Y-97210714D01*
X298314880Y-98115476D02*
X298314880Y-98782142D01*
X299314880Y-98353571D01*
X298410119Y-99115476D02*
X298362500Y-99163095D01*
X298314880Y-99258333D01*
X298314880Y-99496428D01*
X298362500Y-99591666D01*
X298410119Y-99639285D01*
X298505357Y-99686904D01*
X298600595Y-99686904D01*
X298743452Y-99639285D01*
X299314880Y-99067857D01*
X299314880Y-99686904D01*
X280264880Y-97210714D02*
X279264880Y-97210714D01*
X279264880Y-97448809D01*
X279312500Y-97591666D01*
X279407738Y-97686904D01*
X279502976Y-97734523D01*
X279693452Y-97782142D01*
X279836309Y-97782142D01*
X280026785Y-97734523D01*
X280122023Y-97686904D01*
X280217261Y-97591666D01*
X280264880Y-97448809D01*
X280264880Y-97210714D01*
X279264880Y-98115476D02*
X279264880Y-98782142D01*
X280264880Y-98353571D01*
X280264880Y-99686904D02*
X280264880Y-99115476D01*
X280264880Y-99401190D02*
X279264880Y-99401190D01*
X279407738Y-99305952D01*
X279502976Y-99210714D01*
X279550595Y-99115476D01*
X261214880Y-97210714D02*
X260214880Y-97210714D01*
X260214880Y-97448809D01*
X260262500Y-97591666D01*
X260357738Y-97686904D01*
X260452976Y-97734523D01*
X260643452Y-97782142D01*
X260786309Y-97782142D01*
X260976785Y-97734523D01*
X261072023Y-97686904D01*
X261167261Y-97591666D01*
X261214880Y-97448809D01*
X261214880Y-97210714D01*
X260214880Y-98115476D02*
X260214880Y-98782142D01*
X261214880Y-98353571D01*
X260214880Y-99353571D02*
X260214880Y-99448809D01*
X260262500Y-99544047D01*
X260310119Y-99591666D01*
X260405357Y-99639285D01*
X260595833Y-99686904D01*
X260833928Y-99686904D01*
X261024404Y-99639285D01*
X261119642Y-99591666D01*
X261167261Y-99544047D01*
X261214880Y-99448809D01*
X261214880Y-99353571D01*
X261167261Y-99258333D01*
X261119642Y-99210714D01*
X261024404Y-99163095D01*
X260833928Y-99115476D01*
X260595833Y-99115476D01*
X260405357Y-99163095D01*
X260310119Y-99210714D01*
X260262500Y-99258333D01*
X260214880Y-99353571D01*
X242164880Y-97210714D02*
X241164880Y-97210714D01*
X241164880Y-97448809D01*
X241212500Y-97591666D01*
X241307738Y-97686904D01*
X241402976Y-97734523D01*
X241593452Y-97782142D01*
X241736309Y-97782142D01*
X241926785Y-97734523D01*
X242022023Y-97686904D01*
X242117261Y-97591666D01*
X242164880Y-97448809D01*
X242164880Y-97210714D01*
X241164880Y-98639285D02*
X241164880Y-98448809D01*
X241212500Y-98353571D01*
X241260119Y-98305952D01*
X241402976Y-98210714D01*
X241593452Y-98163095D01*
X241974404Y-98163095D01*
X242069642Y-98210714D01*
X242117261Y-98258333D01*
X242164880Y-98353571D01*
X242164880Y-98544047D01*
X242117261Y-98639285D01*
X242069642Y-98686904D01*
X241974404Y-98734523D01*
X241736309Y-98734523D01*
X241641071Y-98686904D01*
X241593452Y-98639285D01*
X241545833Y-98544047D01*
X241545833Y-98353571D01*
X241593452Y-98258333D01*
X241641071Y-98210714D01*
X241736309Y-98163095D01*
X242164880Y-99210714D02*
X242164880Y-99401190D01*
X242117261Y-99496428D01*
X242069642Y-99544047D01*
X241926785Y-99639285D01*
X241736309Y-99686904D01*
X241355357Y-99686904D01*
X241260119Y-99639285D01*
X241212500Y-99591666D01*
X241164880Y-99496428D01*
X241164880Y-99305952D01*
X241212500Y-99210714D01*
X241260119Y-99163095D01*
X241355357Y-99115476D01*
X241593452Y-99115476D01*
X241688690Y-99163095D01*
X241736309Y-99210714D01*
X241783928Y-99305952D01*
X241783928Y-99496428D01*
X241736309Y-99591666D01*
X241688690Y-99639285D01*
X241593452Y-99686904D01*
X223114880Y-97210714D02*
X222114880Y-97210714D01*
X222114880Y-97448809D01*
X222162500Y-97591666D01*
X222257738Y-97686904D01*
X222352976Y-97734523D01*
X222543452Y-97782142D01*
X222686309Y-97782142D01*
X222876785Y-97734523D01*
X222972023Y-97686904D01*
X223067261Y-97591666D01*
X223114880Y-97448809D01*
X223114880Y-97210714D01*
X222114880Y-98639285D02*
X222114880Y-98448809D01*
X222162500Y-98353571D01*
X222210119Y-98305952D01*
X222352976Y-98210714D01*
X222543452Y-98163095D01*
X222924404Y-98163095D01*
X223019642Y-98210714D01*
X223067261Y-98258333D01*
X223114880Y-98353571D01*
X223114880Y-98544047D01*
X223067261Y-98639285D01*
X223019642Y-98686904D01*
X222924404Y-98734523D01*
X222686309Y-98734523D01*
X222591071Y-98686904D01*
X222543452Y-98639285D01*
X222495833Y-98544047D01*
X222495833Y-98353571D01*
X222543452Y-98258333D01*
X222591071Y-98210714D01*
X222686309Y-98163095D01*
X222543452Y-99305952D02*
X222495833Y-99210714D01*
X222448214Y-99163095D01*
X222352976Y-99115476D01*
X222305357Y-99115476D01*
X222210119Y-99163095D01*
X222162500Y-99210714D01*
X222114880Y-99305952D01*
X222114880Y-99496428D01*
X222162500Y-99591666D01*
X222210119Y-99639285D01*
X222305357Y-99686904D01*
X222352976Y-99686904D01*
X222448214Y-99639285D01*
X222495833Y-99591666D01*
X222543452Y-99496428D01*
X222543452Y-99305952D01*
X222591071Y-99210714D01*
X222638690Y-99163095D01*
X222733928Y-99115476D01*
X222924404Y-99115476D01*
X223019642Y-99163095D01*
X223067261Y-99210714D01*
X223114880Y-99305952D01*
X223114880Y-99496428D01*
X223067261Y-99591666D01*
X223019642Y-99639285D01*
X222924404Y-99686904D01*
X222733928Y-99686904D01*
X222638690Y-99639285D01*
X222591071Y-99591666D01*
X222543452Y-99496428D01*
X204064880Y-97210714D02*
X203064880Y-97210714D01*
X203064880Y-97448809D01*
X203112500Y-97591666D01*
X203207738Y-97686904D01*
X203302976Y-97734523D01*
X203493452Y-97782142D01*
X203636309Y-97782142D01*
X203826785Y-97734523D01*
X203922023Y-97686904D01*
X204017261Y-97591666D01*
X204064880Y-97448809D01*
X204064880Y-97210714D01*
X203064880Y-98639285D02*
X203064880Y-98448809D01*
X203112500Y-98353571D01*
X203160119Y-98305952D01*
X203302976Y-98210714D01*
X203493452Y-98163095D01*
X203874404Y-98163095D01*
X203969642Y-98210714D01*
X204017261Y-98258333D01*
X204064880Y-98353571D01*
X204064880Y-98544047D01*
X204017261Y-98639285D01*
X203969642Y-98686904D01*
X203874404Y-98734523D01*
X203636309Y-98734523D01*
X203541071Y-98686904D01*
X203493452Y-98639285D01*
X203445833Y-98544047D01*
X203445833Y-98353571D01*
X203493452Y-98258333D01*
X203541071Y-98210714D01*
X203636309Y-98163095D01*
X203064880Y-99067857D02*
X203064880Y-99734523D01*
X204064880Y-99305952D01*
X185014880Y-97210714D02*
X184014880Y-97210714D01*
X184014880Y-97448809D01*
X184062500Y-97591666D01*
X184157738Y-97686904D01*
X184252976Y-97734523D01*
X184443452Y-97782142D01*
X184586309Y-97782142D01*
X184776785Y-97734523D01*
X184872023Y-97686904D01*
X184967261Y-97591666D01*
X185014880Y-97448809D01*
X185014880Y-97210714D01*
X184014880Y-98639285D02*
X184014880Y-98448809D01*
X184062500Y-98353571D01*
X184110119Y-98305952D01*
X184252976Y-98210714D01*
X184443452Y-98163095D01*
X184824404Y-98163095D01*
X184919642Y-98210714D01*
X184967261Y-98258333D01*
X185014880Y-98353571D01*
X185014880Y-98544047D01*
X184967261Y-98639285D01*
X184919642Y-98686904D01*
X184824404Y-98734523D01*
X184586309Y-98734523D01*
X184491071Y-98686904D01*
X184443452Y-98639285D01*
X184395833Y-98544047D01*
X184395833Y-98353571D01*
X184443452Y-98258333D01*
X184491071Y-98210714D01*
X184586309Y-98163095D01*
X184014880Y-99591666D02*
X184014880Y-99401190D01*
X184062500Y-99305952D01*
X184110119Y-99258333D01*
X184252976Y-99163095D01*
X184443452Y-99115476D01*
X184824404Y-99115476D01*
X184919642Y-99163095D01*
X184967261Y-99210714D01*
X185014880Y-99305952D01*
X185014880Y-99496428D01*
X184967261Y-99591666D01*
X184919642Y-99639285D01*
X184824404Y-99686904D01*
X184586309Y-99686904D01*
X184491071Y-99639285D01*
X184443452Y-99591666D01*
X184395833Y-99496428D01*
X184395833Y-99305952D01*
X184443452Y-99210714D01*
X184491071Y-99163095D01*
X184586309Y-99115476D01*
X165964880Y-97210714D02*
X164964880Y-97210714D01*
X164964880Y-97448809D01*
X165012500Y-97591666D01*
X165107738Y-97686904D01*
X165202976Y-97734523D01*
X165393452Y-97782142D01*
X165536309Y-97782142D01*
X165726785Y-97734523D01*
X165822023Y-97686904D01*
X165917261Y-97591666D01*
X165964880Y-97448809D01*
X165964880Y-97210714D01*
X164964880Y-98639285D02*
X164964880Y-98448809D01*
X165012500Y-98353571D01*
X165060119Y-98305952D01*
X165202976Y-98210714D01*
X165393452Y-98163095D01*
X165774404Y-98163095D01*
X165869642Y-98210714D01*
X165917261Y-98258333D01*
X165964880Y-98353571D01*
X165964880Y-98544047D01*
X165917261Y-98639285D01*
X165869642Y-98686904D01*
X165774404Y-98734523D01*
X165536309Y-98734523D01*
X165441071Y-98686904D01*
X165393452Y-98639285D01*
X165345833Y-98544047D01*
X165345833Y-98353571D01*
X165393452Y-98258333D01*
X165441071Y-98210714D01*
X165536309Y-98163095D01*
X164964880Y-99639285D02*
X164964880Y-99163095D01*
X165441071Y-99115476D01*
X165393452Y-99163095D01*
X165345833Y-99258333D01*
X165345833Y-99496428D01*
X165393452Y-99591666D01*
X165441071Y-99639285D01*
X165536309Y-99686904D01*
X165774404Y-99686904D01*
X165869642Y-99639285D01*
X165917261Y-99591666D01*
X165964880Y-99496428D01*
X165964880Y-99258333D01*
X165917261Y-99163095D01*
X165869642Y-99115476D01*
X137389880Y-97210714D02*
X136389880Y-97210714D01*
X136389880Y-97448809D01*
X136437500Y-97591666D01*
X136532738Y-97686904D01*
X136627976Y-97734523D01*
X136818452Y-97782142D01*
X136961309Y-97782142D01*
X137151785Y-97734523D01*
X137247023Y-97686904D01*
X137342261Y-97591666D01*
X137389880Y-97448809D01*
X137389880Y-97210714D01*
X136389880Y-98639285D02*
X136389880Y-98448809D01*
X136437500Y-98353571D01*
X136485119Y-98305952D01*
X136627976Y-98210714D01*
X136818452Y-98163095D01*
X137199404Y-98163095D01*
X137294642Y-98210714D01*
X137342261Y-98258333D01*
X137389880Y-98353571D01*
X137389880Y-98544047D01*
X137342261Y-98639285D01*
X137294642Y-98686904D01*
X137199404Y-98734523D01*
X136961309Y-98734523D01*
X136866071Y-98686904D01*
X136818452Y-98639285D01*
X136770833Y-98544047D01*
X136770833Y-98353571D01*
X136818452Y-98258333D01*
X136866071Y-98210714D01*
X136961309Y-98163095D01*
X136723214Y-99591666D02*
X137389880Y-99591666D01*
X136342261Y-99353571D02*
X137056547Y-99115476D01*
X137056547Y-99734523D01*
X108814880Y-97210714D02*
X107814880Y-97210714D01*
X107814880Y-97448809D01*
X107862500Y-97591666D01*
X107957738Y-97686904D01*
X108052976Y-97734523D01*
X108243452Y-97782142D01*
X108386309Y-97782142D01*
X108576785Y-97734523D01*
X108672023Y-97686904D01*
X108767261Y-97591666D01*
X108814880Y-97448809D01*
X108814880Y-97210714D01*
X107814880Y-98639285D02*
X107814880Y-98448809D01*
X107862500Y-98353571D01*
X107910119Y-98305952D01*
X108052976Y-98210714D01*
X108243452Y-98163095D01*
X108624404Y-98163095D01*
X108719642Y-98210714D01*
X108767261Y-98258333D01*
X108814880Y-98353571D01*
X108814880Y-98544047D01*
X108767261Y-98639285D01*
X108719642Y-98686904D01*
X108624404Y-98734523D01*
X108386309Y-98734523D01*
X108291071Y-98686904D01*
X108243452Y-98639285D01*
X108195833Y-98544047D01*
X108195833Y-98353571D01*
X108243452Y-98258333D01*
X108291071Y-98210714D01*
X108386309Y-98163095D01*
X107814880Y-99067857D02*
X107814880Y-99686904D01*
X108195833Y-99353571D01*
X108195833Y-99496428D01*
X108243452Y-99591666D01*
X108291071Y-99639285D01*
X108386309Y-99686904D01*
X108624404Y-99686904D01*
X108719642Y-99639285D01*
X108767261Y-99591666D01*
X108814880Y-99496428D01*
X108814880Y-99210714D01*
X108767261Y-99115476D01*
X108719642Y-99067857D01*
X89764880Y-97210714D02*
X88764880Y-97210714D01*
X88764880Y-97448809D01*
X88812500Y-97591666D01*
X88907738Y-97686904D01*
X89002976Y-97734523D01*
X89193452Y-97782142D01*
X89336309Y-97782142D01*
X89526785Y-97734523D01*
X89622023Y-97686904D01*
X89717261Y-97591666D01*
X89764880Y-97448809D01*
X89764880Y-97210714D01*
X88764880Y-98639285D02*
X88764880Y-98448809D01*
X88812500Y-98353571D01*
X88860119Y-98305952D01*
X89002976Y-98210714D01*
X89193452Y-98163095D01*
X89574404Y-98163095D01*
X89669642Y-98210714D01*
X89717261Y-98258333D01*
X89764880Y-98353571D01*
X89764880Y-98544047D01*
X89717261Y-98639285D01*
X89669642Y-98686904D01*
X89574404Y-98734523D01*
X89336309Y-98734523D01*
X89241071Y-98686904D01*
X89193452Y-98639285D01*
X89145833Y-98544047D01*
X89145833Y-98353571D01*
X89193452Y-98258333D01*
X89241071Y-98210714D01*
X89336309Y-98163095D01*
X88860119Y-99115476D02*
X88812500Y-99163095D01*
X88764880Y-99258333D01*
X88764880Y-99496428D01*
X88812500Y-99591666D01*
X88860119Y-99639285D01*
X88955357Y-99686904D01*
X89050595Y-99686904D01*
X89193452Y-99639285D01*
X89764880Y-99067857D01*
X89764880Y-99686904D01*
X70714880Y-97210714D02*
X69714880Y-97210714D01*
X69714880Y-97448809D01*
X69762500Y-97591666D01*
X69857738Y-97686904D01*
X69952976Y-97734523D01*
X70143452Y-97782142D01*
X70286309Y-97782142D01*
X70476785Y-97734523D01*
X70572023Y-97686904D01*
X70667261Y-97591666D01*
X70714880Y-97448809D01*
X70714880Y-97210714D01*
X69714880Y-98639285D02*
X69714880Y-98448809D01*
X69762500Y-98353571D01*
X69810119Y-98305952D01*
X69952976Y-98210714D01*
X70143452Y-98163095D01*
X70524404Y-98163095D01*
X70619642Y-98210714D01*
X70667261Y-98258333D01*
X70714880Y-98353571D01*
X70714880Y-98544047D01*
X70667261Y-98639285D01*
X70619642Y-98686904D01*
X70524404Y-98734523D01*
X70286309Y-98734523D01*
X70191071Y-98686904D01*
X70143452Y-98639285D01*
X70095833Y-98544047D01*
X70095833Y-98353571D01*
X70143452Y-98258333D01*
X70191071Y-98210714D01*
X70286309Y-98163095D01*
X70714880Y-99686904D02*
X70714880Y-99115476D01*
X70714880Y-99401190D02*
X69714880Y-99401190D01*
X69857738Y-99305952D01*
X69952976Y-99210714D01*
X70000595Y-99115476D01*
X51664880Y-97210714D02*
X50664880Y-97210714D01*
X50664880Y-97448809D01*
X50712500Y-97591666D01*
X50807738Y-97686904D01*
X50902976Y-97734523D01*
X51093452Y-97782142D01*
X51236309Y-97782142D01*
X51426785Y-97734523D01*
X51522023Y-97686904D01*
X51617261Y-97591666D01*
X51664880Y-97448809D01*
X51664880Y-97210714D01*
X50664880Y-98639285D02*
X50664880Y-98448809D01*
X50712500Y-98353571D01*
X50760119Y-98305952D01*
X50902976Y-98210714D01*
X51093452Y-98163095D01*
X51474404Y-98163095D01*
X51569642Y-98210714D01*
X51617261Y-98258333D01*
X51664880Y-98353571D01*
X51664880Y-98544047D01*
X51617261Y-98639285D01*
X51569642Y-98686904D01*
X51474404Y-98734523D01*
X51236309Y-98734523D01*
X51141071Y-98686904D01*
X51093452Y-98639285D01*
X51045833Y-98544047D01*
X51045833Y-98353571D01*
X51093452Y-98258333D01*
X51141071Y-98210714D01*
X51236309Y-98163095D01*
X50664880Y-99353571D02*
X50664880Y-99448809D01*
X50712500Y-99544047D01*
X50760119Y-99591666D01*
X50855357Y-99639285D01*
X51045833Y-99686904D01*
X51283928Y-99686904D01*
X51474404Y-99639285D01*
X51569642Y-99591666D01*
X51617261Y-99544047D01*
X51664880Y-99448809D01*
X51664880Y-99353571D01*
X51617261Y-99258333D01*
X51569642Y-99210714D01*
X51474404Y-99163095D01*
X51283928Y-99115476D01*
X51045833Y-99115476D01*
X50855357Y-99163095D01*
X50760119Y-99210714D01*
X50712500Y-99258333D01*
X50664880Y-99353571D01*
X32614880Y-97210714D02*
X31614880Y-97210714D01*
X31614880Y-97448809D01*
X31662500Y-97591666D01*
X31757738Y-97686904D01*
X31852976Y-97734523D01*
X32043452Y-97782142D01*
X32186309Y-97782142D01*
X32376785Y-97734523D01*
X32472023Y-97686904D01*
X32567261Y-97591666D01*
X32614880Y-97448809D01*
X32614880Y-97210714D01*
X31614880Y-98686904D02*
X31614880Y-98210714D01*
X32091071Y-98163095D01*
X32043452Y-98210714D01*
X31995833Y-98305952D01*
X31995833Y-98544047D01*
X32043452Y-98639285D01*
X32091071Y-98686904D01*
X32186309Y-98734523D01*
X32424404Y-98734523D01*
X32519642Y-98686904D01*
X32567261Y-98639285D01*
X32614880Y-98544047D01*
X32614880Y-98305952D01*
X32567261Y-98210714D01*
X32519642Y-98163095D01*
X32614880Y-99210714D02*
X32614880Y-99401190D01*
X32567261Y-99496428D01*
X32519642Y-99544047D01*
X32376785Y-99639285D01*
X32186309Y-99686904D01*
X31805357Y-99686904D01*
X31710119Y-99639285D01*
X31662500Y-99591666D01*
X31614880Y-99496428D01*
X31614880Y-99305952D01*
X31662500Y-99210714D01*
X31710119Y-99163095D01*
X31805357Y-99115476D01*
X32043452Y-99115476D01*
X32138690Y-99163095D01*
X32186309Y-99210714D01*
X32233928Y-99305952D01*
X32233928Y-99496428D01*
X32186309Y-99591666D01*
X32138690Y-99639285D01*
X32043452Y-99686904D01*
X299314880Y-78160714D02*
X298314880Y-78160714D01*
X298314880Y-78398809D01*
X298362500Y-78541666D01*
X298457738Y-78636904D01*
X298552976Y-78684523D01*
X298743452Y-78732142D01*
X298886309Y-78732142D01*
X299076785Y-78684523D01*
X299172023Y-78636904D01*
X299267261Y-78541666D01*
X299314880Y-78398809D01*
X299314880Y-78160714D01*
X298314880Y-79636904D02*
X298314880Y-79160714D01*
X298791071Y-79113095D01*
X298743452Y-79160714D01*
X298695833Y-79255952D01*
X298695833Y-79494047D01*
X298743452Y-79589285D01*
X298791071Y-79636904D01*
X298886309Y-79684523D01*
X299124404Y-79684523D01*
X299219642Y-79636904D01*
X299267261Y-79589285D01*
X299314880Y-79494047D01*
X299314880Y-79255952D01*
X299267261Y-79160714D01*
X299219642Y-79113095D01*
X298743452Y-80255952D02*
X298695833Y-80160714D01*
X298648214Y-80113095D01*
X298552976Y-80065476D01*
X298505357Y-80065476D01*
X298410119Y-80113095D01*
X298362500Y-80160714D01*
X298314880Y-80255952D01*
X298314880Y-80446428D01*
X298362500Y-80541666D01*
X298410119Y-80589285D01*
X298505357Y-80636904D01*
X298552976Y-80636904D01*
X298648214Y-80589285D01*
X298695833Y-80541666D01*
X298743452Y-80446428D01*
X298743452Y-80255952D01*
X298791071Y-80160714D01*
X298838690Y-80113095D01*
X298933928Y-80065476D01*
X299124404Y-80065476D01*
X299219642Y-80113095D01*
X299267261Y-80160714D01*
X299314880Y-80255952D01*
X299314880Y-80446428D01*
X299267261Y-80541666D01*
X299219642Y-80589285D01*
X299124404Y-80636904D01*
X298933928Y-80636904D01*
X298838690Y-80589285D01*
X298791071Y-80541666D01*
X298743452Y-80446428D01*
X280264880Y-78160714D02*
X279264880Y-78160714D01*
X279264880Y-78398809D01*
X279312500Y-78541666D01*
X279407738Y-78636904D01*
X279502976Y-78684523D01*
X279693452Y-78732142D01*
X279836309Y-78732142D01*
X280026785Y-78684523D01*
X280122023Y-78636904D01*
X280217261Y-78541666D01*
X280264880Y-78398809D01*
X280264880Y-78160714D01*
X279264880Y-79636904D02*
X279264880Y-79160714D01*
X279741071Y-79113095D01*
X279693452Y-79160714D01*
X279645833Y-79255952D01*
X279645833Y-79494047D01*
X279693452Y-79589285D01*
X279741071Y-79636904D01*
X279836309Y-79684523D01*
X280074404Y-79684523D01*
X280169642Y-79636904D01*
X280217261Y-79589285D01*
X280264880Y-79494047D01*
X280264880Y-79255952D01*
X280217261Y-79160714D01*
X280169642Y-79113095D01*
X279264880Y-80017857D02*
X279264880Y-80684523D01*
X280264880Y-80255952D01*
X251689880Y-78160714D02*
X250689880Y-78160714D01*
X250689880Y-78398809D01*
X250737500Y-78541666D01*
X250832738Y-78636904D01*
X250927976Y-78684523D01*
X251118452Y-78732142D01*
X251261309Y-78732142D01*
X251451785Y-78684523D01*
X251547023Y-78636904D01*
X251642261Y-78541666D01*
X251689880Y-78398809D01*
X251689880Y-78160714D01*
X250689880Y-79636904D02*
X250689880Y-79160714D01*
X251166071Y-79113095D01*
X251118452Y-79160714D01*
X251070833Y-79255952D01*
X251070833Y-79494047D01*
X251118452Y-79589285D01*
X251166071Y-79636904D01*
X251261309Y-79684523D01*
X251499404Y-79684523D01*
X251594642Y-79636904D01*
X251642261Y-79589285D01*
X251689880Y-79494047D01*
X251689880Y-79255952D01*
X251642261Y-79160714D01*
X251594642Y-79113095D01*
X250689880Y-80541666D02*
X250689880Y-80351190D01*
X250737500Y-80255952D01*
X250785119Y-80208333D01*
X250927976Y-80113095D01*
X251118452Y-80065476D01*
X251499404Y-80065476D01*
X251594642Y-80113095D01*
X251642261Y-80160714D01*
X251689880Y-80255952D01*
X251689880Y-80446428D01*
X251642261Y-80541666D01*
X251594642Y-80589285D01*
X251499404Y-80636904D01*
X251261309Y-80636904D01*
X251166071Y-80589285D01*
X251118452Y-80541666D01*
X251070833Y-80446428D01*
X251070833Y-80255952D01*
X251118452Y-80160714D01*
X251166071Y-80113095D01*
X251261309Y-80065476D01*
X223114880Y-78160714D02*
X222114880Y-78160714D01*
X222114880Y-78398809D01*
X222162500Y-78541666D01*
X222257738Y-78636904D01*
X222352976Y-78684523D01*
X222543452Y-78732142D01*
X222686309Y-78732142D01*
X222876785Y-78684523D01*
X222972023Y-78636904D01*
X223067261Y-78541666D01*
X223114880Y-78398809D01*
X223114880Y-78160714D01*
X222114880Y-79636904D02*
X222114880Y-79160714D01*
X222591071Y-79113095D01*
X222543452Y-79160714D01*
X222495833Y-79255952D01*
X222495833Y-79494047D01*
X222543452Y-79589285D01*
X222591071Y-79636904D01*
X222686309Y-79684523D01*
X222924404Y-79684523D01*
X223019642Y-79636904D01*
X223067261Y-79589285D01*
X223114880Y-79494047D01*
X223114880Y-79255952D01*
X223067261Y-79160714D01*
X223019642Y-79113095D01*
X222114880Y-80589285D02*
X222114880Y-80113095D01*
X222591071Y-80065476D01*
X222543452Y-80113095D01*
X222495833Y-80208333D01*
X222495833Y-80446428D01*
X222543452Y-80541666D01*
X222591071Y-80589285D01*
X222686309Y-80636904D01*
X222924404Y-80636904D01*
X223019642Y-80589285D01*
X223067261Y-80541666D01*
X223114880Y-80446428D01*
X223114880Y-80208333D01*
X223067261Y-80113095D01*
X223019642Y-80065476D01*
X204064880Y-78160714D02*
X203064880Y-78160714D01*
X203064880Y-78398809D01*
X203112500Y-78541666D01*
X203207738Y-78636904D01*
X203302976Y-78684523D01*
X203493452Y-78732142D01*
X203636309Y-78732142D01*
X203826785Y-78684523D01*
X203922023Y-78636904D01*
X204017261Y-78541666D01*
X204064880Y-78398809D01*
X204064880Y-78160714D01*
X203064880Y-79636904D02*
X203064880Y-79160714D01*
X203541071Y-79113095D01*
X203493452Y-79160714D01*
X203445833Y-79255952D01*
X203445833Y-79494047D01*
X203493452Y-79589285D01*
X203541071Y-79636904D01*
X203636309Y-79684523D01*
X203874404Y-79684523D01*
X203969642Y-79636904D01*
X204017261Y-79589285D01*
X204064880Y-79494047D01*
X204064880Y-79255952D01*
X204017261Y-79160714D01*
X203969642Y-79113095D01*
X203398214Y-80541666D02*
X204064880Y-80541666D01*
X203017261Y-80303571D02*
X203731547Y-80065476D01*
X203731547Y-80684523D01*
X185014880Y-78160714D02*
X184014880Y-78160714D01*
X184014880Y-78398809D01*
X184062500Y-78541666D01*
X184157738Y-78636904D01*
X184252976Y-78684523D01*
X184443452Y-78732142D01*
X184586309Y-78732142D01*
X184776785Y-78684523D01*
X184872023Y-78636904D01*
X184967261Y-78541666D01*
X185014880Y-78398809D01*
X185014880Y-78160714D01*
X184014880Y-79636904D02*
X184014880Y-79160714D01*
X184491071Y-79113095D01*
X184443452Y-79160714D01*
X184395833Y-79255952D01*
X184395833Y-79494047D01*
X184443452Y-79589285D01*
X184491071Y-79636904D01*
X184586309Y-79684523D01*
X184824404Y-79684523D01*
X184919642Y-79636904D01*
X184967261Y-79589285D01*
X185014880Y-79494047D01*
X185014880Y-79255952D01*
X184967261Y-79160714D01*
X184919642Y-79113095D01*
X184014880Y-80017857D02*
X184014880Y-80636904D01*
X184395833Y-80303571D01*
X184395833Y-80446428D01*
X184443452Y-80541666D01*
X184491071Y-80589285D01*
X184586309Y-80636904D01*
X184824404Y-80636904D01*
X184919642Y-80589285D01*
X184967261Y-80541666D01*
X185014880Y-80446428D01*
X185014880Y-80160714D01*
X184967261Y-80065476D01*
X184919642Y-80017857D01*
X165964880Y-78160714D02*
X164964880Y-78160714D01*
X164964880Y-78398809D01*
X165012500Y-78541666D01*
X165107738Y-78636904D01*
X165202976Y-78684523D01*
X165393452Y-78732142D01*
X165536309Y-78732142D01*
X165726785Y-78684523D01*
X165822023Y-78636904D01*
X165917261Y-78541666D01*
X165964880Y-78398809D01*
X165964880Y-78160714D01*
X164964880Y-79636904D02*
X164964880Y-79160714D01*
X165441071Y-79113095D01*
X165393452Y-79160714D01*
X165345833Y-79255952D01*
X165345833Y-79494047D01*
X165393452Y-79589285D01*
X165441071Y-79636904D01*
X165536309Y-79684523D01*
X165774404Y-79684523D01*
X165869642Y-79636904D01*
X165917261Y-79589285D01*
X165964880Y-79494047D01*
X165964880Y-79255952D01*
X165917261Y-79160714D01*
X165869642Y-79113095D01*
X165060119Y-80065476D02*
X165012500Y-80113095D01*
X164964880Y-80208333D01*
X164964880Y-80446428D01*
X165012500Y-80541666D01*
X165060119Y-80589285D01*
X165155357Y-80636904D01*
X165250595Y-80636904D01*
X165393452Y-80589285D01*
X165964880Y-80017857D01*
X165964880Y-80636904D01*
X146914880Y-78160714D02*
X145914880Y-78160714D01*
X145914880Y-78398809D01*
X145962500Y-78541666D01*
X146057738Y-78636904D01*
X146152976Y-78684523D01*
X146343452Y-78732142D01*
X146486309Y-78732142D01*
X146676785Y-78684523D01*
X146772023Y-78636904D01*
X146867261Y-78541666D01*
X146914880Y-78398809D01*
X146914880Y-78160714D01*
X145914880Y-79636904D02*
X145914880Y-79160714D01*
X146391071Y-79113095D01*
X146343452Y-79160714D01*
X146295833Y-79255952D01*
X146295833Y-79494047D01*
X146343452Y-79589285D01*
X146391071Y-79636904D01*
X146486309Y-79684523D01*
X146724404Y-79684523D01*
X146819642Y-79636904D01*
X146867261Y-79589285D01*
X146914880Y-79494047D01*
X146914880Y-79255952D01*
X146867261Y-79160714D01*
X146819642Y-79113095D01*
X146914880Y-80636904D02*
X146914880Y-80065476D01*
X146914880Y-80351190D02*
X145914880Y-80351190D01*
X146057738Y-80255952D01*
X146152976Y-80160714D01*
X146200595Y-80065476D01*
X127864880Y-78160714D02*
X126864880Y-78160714D01*
X126864880Y-78398809D01*
X126912500Y-78541666D01*
X127007738Y-78636904D01*
X127102976Y-78684523D01*
X127293452Y-78732142D01*
X127436309Y-78732142D01*
X127626785Y-78684523D01*
X127722023Y-78636904D01*
X127817261Y-78541666D01*
X127864880Y-78398809D01*
X127864880Y-78160714D01*
X126864880Y-79636904D02*
X126864880Y-79160714D01*
X127341071Y-79113095D01*
X127293452Y-79160714D01*
X127245833Y-79255952D01*
X127245833Y-79494047D01*
X127293452Y-79589285D01*
X127341071Y-79636904D01*
X127436309Y-79684523D01*
X127674404Y-79684523D01*
X127769642Y-79636904D01*
X127817261Y-79589285D01*
X127864880Y-79494047D01*
X127864880Y-79255952D01*
X127817261Y-79160714D01*
X127769642Y-79113095D01*
X126864880Y-80303571D02*
X126864880Y-80398809D01*
X126912500Y-80494047D01*
X126960119Y-80541666D01*
X127055357Y-80589285D01*
X127245833Y-80636904D01*
X127483928Y-80636904D01*
X127674404Y-80589285D01*
X127769642Y-80541666D01*
X127817261Y-80494047D01*
X127864880Y-80398809D01*
X127864880Y-80303571D01*
X127817261Y-80208333D01*
X127769642Y-80160714D01*
X127674404Y-80113095D01*
X127483928Y-80065476D01*
X127245833Y-80065476D01*
X127055357Y-80113095D01*
X126960119Y-80160714D01*
X126912500Y-80208333D01*
X126864880Y-80303571D01*
X108814880Y-78160714D02*
X107814880Y-78160714D01*
X107814880Y-78398809D01*
X107862500Y-78541666D01*
X107957738Y-78636904D01*
X108052976Y-78684523D01*
X108243452Y-78732142D01*
X108386309Y-78732142D01*
X108576785Y-78684523D01*
X108672023Y-78636904D01*
X108767261Y-78541666D01*
X108814880Y-78398809D01*
X108814880Y-78160714D01*
X108148214Y-79589285D02*
X108814880Y-79589285D01*
X107767261Y-79351190D02*
X108481547Y-79113095D01*
X108481547Y-79732142D01*
X108814880Y-80160714D02*
X108814880Y-80351190D01*
X108767261Y-80446428D01*
X108719642Y-80494047D01*
X108576785Y-80589285D01*
X108386309Y-80636904D01*
X108005357Y-80636904D01*
X107910119Y-80589285D01*
X107862500Y-80541666D01*
X107814880Y-80446428D01*
X107814880Y-80255952D01*
X107862500Y-80160714D01*
X107910119Y-80113095D01*
X108005357Y-80065476D01*
X108243452Y-80065476D01*
X108338690Y-80113095D01*
X108386309Y-80160714D01*
X108433928Y-80255952D01*
X108433928Y-80446428D01*
X108386309Y-80541666D01*
X108338690Y-80589285D01*
X108243452Y-80636904D01*
X88971130Y-78160714D02*
X87971130Y-78160714D01*
X87971130Y-78398809D01*
X88018750Y-78541666D01*
X88113988Y-78636904D01*
X88209226Y-78684523D01*
X88399702Y-78732142D01*
X88542559Y-78732142D01*
X88733035Y-78684523D01*
X88828273Y-78636904D01*
X88923511Y-78541666D01*
X88971130Y-78398809D01*
X88971130Y-78160714D01*
X88304464Y-79589285D02*
X88971130Y-79589285D01*
X87923511Y-79351190D02*
X88637797Y-79113095D01*
X88637797Y-79732142D01*
X88399702Y-80255952D02*
X88352083Y-80160714D01*
X88304464Y-80113095D01*
X88209226Y-80065476D01*
X88161607Y-80065476D01*
X88066369Y-80113095D01*
X88018750Y-80160714D01*
X87971130Y-80255952D01*
X87971130Y-80446428D01*
X88018750Y-80541666D01*
X88066369Y-80589285D01*
X88161607Y-80636904D01*
X88209226Y-80636904D01*
X88304464Y-80589285D01*
X88352083Y-80541666D01*
X88399702Y-80446428D01*
X88399702Y-80255952D01*
X88447321Y-80160714D01*
X88494940Y-80113095D01*
X88590178Y-80065476D01*
X88780654Y-80065476D01*
X88875892Y-80113095D01*
X88923511Y-80160714D01*
X88971130Y-80255952D01*
X88971130Y-80446428D01*
X88923511Y-80541666D01*
X88875892Y-80589285D01*
X88780654Y-80636904D01*
X88590178Y-80636904D01*
X88494940Y-80589285D01*
X88447321Y-80541666D01*
X88399702Y-80446428D01*
X70714880Y-78160714D02*
X69714880Y-78160714D01*
X69714880Y-78398809D01*
X69762500Y-78541666D01*
X69857738Y-78636904D01*
X69952976Y-78684523D01*
X70143452Y-78732142D01*
X70286309Y-78732142D01*
X70476785Y-78684523D01*
X70572023Y-78636904D01*
X70667261Y-78541666D01*
X70714880Y-78398809D01*
X70714880Y-78160714D01*
X70048214Y-79589285D02*
X70714880Y-79589285D01*
X69667261Y-79351190D02*
X70381547Y-79113095D01*
X70381547Y-79732142D01*
X69714880Y-80017857D02*
X69714880Y-80684523D01*
X70714880Y-80255952D01*
X51664880Y-78160714D02*
X50664880Y-78160714D01*
X50664880Y-78398809D01*
X50712500Y-78541666D01*
X50807738Y-78636904D01*
X50902976Y-78684523D01*
X51093452Y-78732142D01*
X51236309Y-78732142D01*
X51426785Y-78684523D01*
X51522023Y-78636904D01*
X51617261Y-78541666D01*
X51664880Y-78398809D01*
X51664880Y-78160714D01*
X50998214Y-79589285D02*
X51664880Y-79589285D01*
X50617261Y-79351190D02*
X51331547Y-79113095D01*
X51331547Y-79732142D01*
X50664880Y-80541666D02*
X50664880Y-80351190D01*
X50712500Y-80255952D01*
X50760119Y-80208333D01*
X50902976Y-80113095D01*
X51093452Y-80065476D01*
X51474404Y-80065476D01*
X51569642Y-80113095D01*
X51617261Y-80160714D01*
X51664880Y-80255952D01*
X51664880Y-80446428D01*
X51617261Y-80541666D01*
X51569642Y-80589285D01*
X51474404Y-80636904D01*
X51236309Y-80636904D01*
X51141071Y-80589285D01*
X51093452Y-80541666D01*
X51045833Y-80446428D01*
X51045833Y-80255952D01*
X51093452Y-80160714D01*
X51141071Y-80113095D01*
X51236309Y-80065476D01*
X32614880Y-78160714D02*
X31614880Y-78160714D01*
X31614880Y-78398809D01*
X31662500Y-78541666D01*
X31757738Y-78636904D01*
X31852976Y-78684523D01*
X32043452Y-78732142D01*
X32186309Y-78732142D01*
X32376785Y-78684523D01*
X32472023Y-78636904D01*
X32567261Y-78541666D01*
X32614880Y-78398809D01*
X32614880Y-78160714D01*
X31948214Y-79589285D02*
X32614880Y-79589285D01*
X31567261Y-79351190D02*
X32281547Y-79113095D01*
X32281547Y-79732142D01*
X31614880Y-80589285D02*
X31614880Y-80113095D01*
X32091071Y-80065476D01*
X32043452Y-80113095D01*
X31995833Y-80208333D01*
X31995833Y-80446428D01*
X32043452Y-80541666D01*
X32091071Y-80589285D01*
X32186309Y-80636904D01*
X32424404Y-80636904D01*
X32519642Y-80589285D01*
X32567261Y-80541666D01*
X32614880Y-80446428D01*
X32614880Y-80208333D01*
X32567261Y-80113095D01*
X32519642Y-80065476D01*
X299314880Y-59110714D02*
X298314880Y-59110714D01*
X298314880Y-59348809D01*
X298362500Y-59491666D01*
X298457738Y-59586904D01*
X298552976Y-59634523D01*
X298743452Y-59682142D01*
X298886309Y-59682142D01*
X299076785Y-59634523D01*
X299172023Y-59586904D01*
X299267261Y-59491666D01*
X299314880Y-59348809D01*
X299314880Y-59110714D01*
X298648214Y-60539285D02*
X299314880Y-60539285D01*
X298267261Y-60301190D02*
X298981547Y-60063095D01*
X298981547Y-60682142D01*
X298648214Y-61491666D02*
X299314880Y-61491666D01*
X298267261Y-61253571D02*
X298981547Y-61015476D01*
X298981547Y-61634523D01*
X270739880Y-59110714D02*
X269739880Y-59110714D01*
X269739880Y-59348809D01*
X269787500Y-59491666D01*
X269882738Y-59586904D01*
X269977976Y-59634523D01*
X270168452Y-59682142D01*
X270311309Y-59682142D01*
X270501785Y-59634523D01*
X270597023Y-59586904D01*
X270692261Y-59491666D01*
X270739880Y-59348809D01*
X270739880Y-59110714D01*
X270073214Y-60539285D02*
X270739880Y-60539285D01*
X269692261Y-60301190D02*
X270406547Y-60063095D01*
X270406547Y-60682142D01*
X269739880Y-60967857D02*
X269739880Y-61586904D01*
X270120833Y-61253571D01*
X270120833Y-61396428D01*
X270168452Y-61491666D01*
X270216071Y-61539285D01*
X270311309Y-61586904D01*
X270549404Y-61586904D01*
X270644642Y-61539285D01*
X270692261Y-61491666D01*
X270739880Y-61396428D01*
X270739880Y-61110714D01*
X270692261Y-61015476D01*
X270644642Y-60967857D01*
X242164880Y-59110714D02*
X241164880Y-59110714D01*
X241164880Y-59348809D01*
X241212500Y-59491666D01*
X241307738Y-59586904D01*
X241402976Y-59634523D01*
X241593452Y-59682142D01*
X241736309Y-59682142D01*
X241926785Y-59634523D01*
X242022023Y-59586904D01*
X242117261Y-59491666D01*
X242164880Y-59348809D01*
X242164880Y-59110714D01*
X241498214Y-60539285D02*
X242164880Y-60539285D01*
X241117261Y-60301190D02*
X241831547Y-60063095D01*
X241831547Y-60682142D01*
X241260119Y-61015476D02*
X241212500Y-61063095D01*
X241164880Y-61158333D01*
X241164880Y-61396428D01*
X241212500Y-61491666D01*
X241260119Y-61539285D01*
X241355357Y-61586904D01*
X241450595Y-61586904D01*
X241593452Y-61539285D01*
X242164880Y-60967857D01*
X242164880Y-61586904D01*
X206446130Y-59110714D02*
X205446130Y-59110714D01*
X205446130Y-59348809D01*
X205493750Y-59491666D01*
X205588988Y-59586904D01*
X205684226Y-59634523D01*
X205874702Y-59682142D01*
X206017559Y-59682142D01*
X206208035Y-59634523D01*
X206303273Y-59586904D01*
X206398511Y-59491666D01*
X206446130Y-59348809D01*
X206446130Y-59110714D01*
X205779464Y-60539285D02*
X206446130Y-60539285D01*
X205398511Y-60301190D02*
X206112797Y-60063095D01*
X206112797Y-60682142D01*
X206446130Y-61586904D02*
X206446130Y-61015476D01*
X206446130Y-61301190D02*
X205446130Y-61301190D01*
X205588988Y-61205952D01*
X205684226Y-61110714D01*
X205731845Y-61015476D01*
X204064880Y-59110714D02*
X203064880Y-59110714D01*
X203064880Y-59348809D01*
X203112500Y-59491666D01*
X203207738Y-59586904D01*
X203302976Y-59634523D01*
X203493452Y-59682142D01*
X203636309Y-59682142D01*
X203826785Y-59634523D01*
X203922023Y-59586904D01*
X204017261Y-59491666D01*
X204064880Y-59348809D01*
X204064880Y-59110714D01*
X203398214Y-60539285D02*
X204064880Y-60539285D01*
X203017261Y-60301190D02*
X203731547Y-60063095D01*
X203731547Y-60682142D01*
X203064880Y-61253571D02*
X203064880Y-61348809D01*
X203112500Y-61444047D01*
X203160119Y-61491666D01*
X203255357Y-61539285D01*
X203445833Y-61586904D01*
X203683928Y-61586904D01*
X203874404Y-61539285D01*
X203969642Y-61491666D01*
X204017261Y-61444047D01*
X204064880Y-61348809D01*
X204064880Y-61253571D01*
X204017261Y-61158333D01*
X203969642Y-61110714D01*
X203874404Y-61063095D01*
X203683928Y-61015476D01*
X203445833Y-61015476D01*
X203255357Y-61063095D01*
X203160119Y-61110714D01*
X203112500Y-61158333D01*
X203064880Y-61253571D01*
X185014880Y-59110714D02*
X184014880Y-59110714D01*
X184014880Y-59348809D01*
X184062500Y-59491666D01*
X184157738Y-59586904D01*
X184252976Y-59634523D01*
X184443452Y-59682142D01*
X184586309Y-59682142D01*
X184776785Y-59634523D01*
X184872023Y-59586904D01*
X184967261Y-59491666D01*
X185014880Y-59348809D01*
X185014880Y-59110714D01*
X184014880Y-60015476D02*
X184014880Y-60634523D01*
X184395833Y-60301190D01*
X184395833Y-60444047D01*
X184443452Y-60539285D01*
X184491071Y-60586904D01*
X184586309Y-60634523D01*
X184824404Y-60634523D01*
X184919642Y-60586904D01*
X184967261Y-60539285D01*
X185014880Y-60444047D01*
X185014880Y-60158333D01*
X184967261Y-60063095D01*
X184919642Y-60015476D01*
X185014880Y-61110714D02*
X185014880Y-61301190D01*
X184967261Y-61396428D01*
X184919642Y-61444047D01*
X184776785Y-61539285D01*
X184586309Y-61586904D01*
X184205357Y-61586904D01*
X184110119Y-61539285D01*
X184062500Y-61491666D01*
X184014880Y-61396428D01*
X184014880Y-61205952D01*
X184062500Y-61110714D01*
X184110119Y-61063095D01*
X184205357Y-61015476D01*
X184443452Y-61015476D01*
X184538690Y-61063095D01*
X184586309Y-61110714D01*
X184633928Y-61205952D01*
X184633928Y-61396428D01*
X184586309Y-61491666D01*
X184538690Y-61539285D01*
X184443452Y-61586904D01*
X165964880Y-59110714D02*
X164964880Y-59110714D01*
X164964880Y-59348809D01*
X165012500Y-59491666D01*
X165107738Y-59586904D01*
X165202976Y-59634523D01*
X165393452Y-59682142D01*
X165536309Y-59682142D01*
X165726785Y-59634523D01*
X165822023Y-59586904D01*
X165917261Y-59491666D01*
X165964880Y-59348809D01*
X165964880Y-59110714D01*
X164964880Y-60015476D02*
X164964880Y-60634523D01*
X165345833Y-60301190D01*
X165345833Y-60444047D01*
X165393452Y-60539285D01*
X165441071Y-60586904D01*
X165536309Y-60634523D01*
X165774404Y-60634523D01*
X165869642Y-60586904D01*
X165917261Y-60539285D01*
X165964880Y-60444047D01*
X165964880Y-60158333D01*
X165917261Y-60063095D01*
X165869642Y-60015476D01*
X165393452Y-61205952D02*
X165345833Y-61110714D01*
X165298214Y-61063095D01*
X165202976Y-61015476D01*
X165155357Y-61015476D01*
X165060119Y-61063095D01*
X165012500Y-61110714D01*
X164964880Y-61205952D01*
X164964880Y-61396428D01*
X165012500Y-61491666D01*
X165060119Y-61539285D01*
X165155357Y-61586904D01*
X165202976Y-61586904D01*
X165298214Y-61539285D01*
X165345833Y-61491666D01*
X165393452Y-61396428D01*
X165393452Y-61205952D01*
X165441071Y-61110714D01*
X165488690Y-61063095D01*
X165583928Y-61015476D01*
X165774404Y-61015476D01*
X165869642Y-61063095D01*
X165917261Y-61110714D01*
X165964880Y-61205952D01*
X165964880Y-61396428D01*
X165917261Y-61491666D01*
X165869642Y-61539285D01*
X165774404Y-61586904D01*
X165583928Y-61586904D01*
X165488690Y-61539285D01*
X165441071Y-61491666D01*
X165393452Y-61396428D01*
X146914880Y-59110714D02*
X145914880Y-59110714D01*
X145914880Y-59348809D01*
X145962500Y-59491666D01*
X146057738Y-59586904D01*
X146152976Y-59634523D01*
X146343452Y-59682142D01*
X146486309Y-59682142D01*
X146676785Y-59634523D01*
X146772023Y-59586904D01*
X146867261Y-59491666D01*
X146914880Y-59348809D01*
X146914880Y-59110714D01*
X145914880Y-60015476D02*
X145914880Y-60634523D01*
X146295833Y-60301190D01*
X146295833Y-60444047D01*
X146343452Y-60539285D01*
X146391071Y-60586904D01*
X146486309Y-60634523D01*
X146724404Y-60634523D01*
X146819642Y-60586904D01*
X146867261Y-60539285D01*
X146914880Y-60444047D01*
X146914880Y-60158333D01*
X146867261Y-60063095D01*
X146819642Y-60015476D01*
X145914880Y-60967857D02*
X145914880Y-61634523D01*
X146914880Y-61205952D01*
X127864880Y-59110714D02*
X126864880Y-59110714D01*
X126864880Y-59348809D01*
X126912500Y-59491666D01*
X127007738Y-59586904D01*
X127102976Y-59634523D01*
X127293452Y-59682142D01*
X127436309Y-59682142D01*
X127626785Y-59634523D01*
X127722023Y-59586904D01*
X127817261Y-59491666D01*
X127864880Y-59348809D01*
X127864880Y-59110714D01*
X126864880Y-60015476D02*
X126864880Y-60634523D01*
X127245833Y-60301190D01*
X127245833Y-60444047D01*
X127293452Y-60539285D01*
X127341071Y-60586904D01*
X127436309Y-60634523D01*
X127674404Y-60634523D01*
X127769642Y-60586904D01*
X127817261Y-60539285D01*
X127864880Y-60444047D01*
X127864880Y-60158333D01*
X127817261Y-60063095D01*
X127769642Y-60015476D01*
X126864880Y-61491666D02*
X126864880Y-61301190D01*
X126912500Y-61205952D01*
X126960119Y-61158333D01*
X127102976Y-61063095D01*
X127293452Y-61015476D01*
X127674404Y-61015476D01*
X127769642Y-61063095D01*
X127817261Y-61110714D01*
X127864880Y-61205952D01*
X127864880Y-61396428D01*
X127817261Y-61491666D01*
X127769642Y-61539285D01*
X127674404Y-61586904D01*
X127436309Y-61586904D01*
X127341071Y-61539285D01*
X127293452Y-61491666D01*
X127245833Y-61396428D01*
X127245833Y-61205952D01*
X127293452Y-61110714D01*
X127341071Y-61063095D01*
X127436309Y-61015476D01*
X108814880Y-59110714D02*
X107814880Y-59110714D01*
X107814880Y-59348809D01*
X107862500Y-59491666D01*
X107957738Y-59586904D01*
X108052976Y-59634523D01*
X108243452Y-59682142D01*
X108386309Y-59682142D01*
X108576785Y-59634523D01*
X108672023Y-59586904D01*
X108767261Y-59491666D01*
X108814880Y-59348809D01*
X108814880Y-59110714D01*
X107814880Y-60015476D02*
X107814880Y-60634523D01*
X108195833Y-60301190D01*
X108195833Y-60444047D01*
X108243452Y-60539285D01*
X108291071Y-60586904D01*
X108386309Y-60634523D01*
X108624404Y-60634523D01*
X108719642Y-60586904D01*
X108767261Y-60539285D01*
X108814880Y-60444047D01*
X108814880Y-60158333D01*
X108767261Y-60063095D01*
X108719642Y-60015476D01*
X107814880Y-61539285D02*
X107814880Y-61063095D01*
X108291071Y-61015476D01*
X108243452Y-61063095D01*
X108195833Y-61158333D01*
X108195833Y-61396428D01*
X108243452Y-61491666D01*
X108291071Y-61539285D01*
X108386309Y-61586904D01*
X108624404Y-61586904D01*
X108719642Y-61539285D01*
X108767261Y-61491666D01*
X108814880Y-61396428D01*
X108814880Y-61158333D01*
X108767261Y-61063095D01*
X108719642Y-61015476D01*
X89764880Y-59110714D02*
X88764880Y-59110714D01*
X88764880Y-59348809D01*
X88812500Y-59491666D01*
X88907738Y-59586904D01*
X89002976Y-59634523D01*
X89193452Y-59682142D01*
X89336309Y-59682142D01*
X89526785Y-59634523D01*
X89622023Y-59586904D01*
X89717261Y-59491666D01*
X89764880Y-59348809D01*
X89764880Y-59110714D01*
X88764880Y-60015476D02*
X88764880Y-60634523D01*
X89145833Y-60301190D01*
X89145833Y-60444047D01*
X89193452Y-60539285D01*
X89241071Y-60586904D01*
X89336309Y-60634523D01*
X89574404Y-60634523D01*
X89669642Y-60586904D01*
X89717261Y-60539285D01*
X89764880Y-60444047D01*
X89764880Y-60158333D01*
X89717261Y-60063095D01*
X89669642Y-60015476D01*
X89098214Y-61491666D02*
X89764880Y-61491666D01*
X88717261Y-61253571D02*
X89431547Y-61015476D01*
X89431547Y-61634523D01*
X70714880Y-59110714D02*
X69714880Y-59110714D01*
X69714880Y-59348809D01*
X69762500Y-59491666D01*
X69857738Y-59586904D01*
X69952976Y-59634523D01*
X70143452Y-59682142D01*
X70286309Y-59682142D01*
X70476785Y-59634523D01*
X70572023Y-59586904D01*
X70667261Y-59491666D01*
X70714880Y-59348809D01*
X70714880Y-59110714D01*
X69714880Y-60015476D02*
X69714880Y-60634523D01*
X70095833Y-60301190D01*
X70095833Y-60444047D01*
X70143452Y-60539285D01*
X70191071Y-60586904D01*
X70286309Y-60634523D01*
X70524404Y-60634523D01*
X70619642Y-60586904D01*
X70667261Y-60539285D01*
X70714880Y-60444047D01*
X70714880Y-60158333D01*
X70667261Y-60063095D01*
X70619642Y-60015476D01*
X69714880Y-60967857D02*
X69714880Y-61586904D01*
X70095833Y-61253571D01*
X70095833Y-61396428D01*
X70143452Y-61491666D01*
X70191071Y-61539285D01*
X70286309Y-61586904D01*
X70524404Y-61586904D01*
X70619642Y-61539285D01*
X70667261Y-61491666D01*
X70714880Y-61396428D01*
X70714880Y-61110714D01*
X70667261Y-61015476D01*
X70619642Y-60967857D01*
X51664880Y-59110714D02*
X50664880Y-59110714D01*
X50664880Y-59348809D01*
X50712500Y-59491666D01*
X50807738Y-59586904D01*
X50902976Y-59634523D01*
X51093452Y-59682142D01*
X51236309Y-59682142D01*
X51426785Y-59634523D01*
X51522023Y-59586904D01*
X51617261Y-59491666D01*
X51664880Y-59348809D01*
X51664880Y-59110714D01*
X50664880Y-60015476D02*
X50664880Y-60634523D01*
X51045833Y-60301190D01*
X51045833Y-60444047D01*
X51093452Y-60539285D01*
X51141071Y-60586904D01*
X51236309Y-60634523D01*
X51474404Y-60634523D01*
X51569642Y-60586904D01*
X51617261Y-60539285D01*
X51664880Y-60444047D01*
X51664880Y-60158333D01*
X51617261Y-60063095D01*
X51569642Y-60015476D01*
X50760119Y-61015476D02*
X50712500Y-61063095D01*
X50664880Y-61158333D01*
X50664880Y-61396428D01*
X50712500Y-61491666D01*
X50760119Y-61539285D01*
X50855357Y-61586904D01*
X50950595Y-61586904D01*
X51093452Y-61539285D01*
X51664880Y-60967857D01*
X51664880Y-61586904D01*
X32614880Y-59110714D02*
X31614880Y-59110714D01*
X31614880Y-59348809D01*
X31662500Y-59491666D01*
X31757738Y-59586904D01*
X31852976Y-59634523D01*
X32043452Y-59682142D01*
X32186309Y-59682142D01*
X32376785Y-59634523D01*
X32472023Y-59586904D01*
X32567261Y-59491666D01*
X32614880Y-59348809D01*
X32614880Y-59110714D01*
X31614880Y-60015476D02*
X31614880Y-60634523D01*
X31995833Y-60301190D01*
X31995833Y-60444047D01*
X32043452Y-60539285D01*
X32091071Y-60586904D01*
X32186309Y-60634523D01*
X32424404Y-60634523D01*
X32519642Y-60586904D01*
X32567261Y-60539285D01*
X32614880Y-60444047D01*
X32614880Y-60158333D01*
X32567261Y-60063095D01*
X32519642Y-60015476D01*
X32614880Y-61586904D02*
X32614880Y-61015476D01*
X32614880Y-61301190D02*
X31614880Y-61301190D01*
X31757738Y-61205952D01*
X31852976Y-61110714D01*
X31900595Y-61015476D01*
X299314880Y-40060714D02*
X298314880Y-40060714D01*
X298314880Y-40298809D01*
X298362500Y-40441666D01*
X298457738Y-40536904D01*
X298552976Y-40584523D01*
X298743452Y-40632142D01*
X298886309Y-40632142D01*
X299076785Y-40584523D01*
X299172023Y-40536904D01*
X299267261Y-40441666D01*
X299314880Y-40298809D01*
X299314880Y-40060714D01*
X298314880Y-40965476D02*
X298314880Y-41584523D01*
X298695833Y-41251190D01*
X298695833Y-41394047D01*
X298743452Y-41489285D01*
X298791071Y-41536904D01*
X298886309Y-41584523D01*
X299124404Y-41584523D01*
X299219642Y-41536904D01*
X299267261Y-41489285D01*
X299314880Y-41394047D01*
X299314880Y-41108333D01*
X299267261Y-41013095D01*
X299219642Y-40965476D01*
X298314880Y-42203571D02*
X298314880Y-42298809D01*
X298362500Y-42394047D01*
X298410119Y-42441666D01*
X298505357Y-42489285D01*
X298695833Y-42536904D01*
X298933928Y-42536904D01*
X299124404Y-42489285D01*
X299219642Y-42441666D01*
X299267261Y-42394047D01*
X299314880Y-42298809D01*
X299314880Y-42203571D01*
X299267261Y-42108333D01*
X299219642Y-42060714D01*
X299124404Y-42013095D01*
X298933928Y-41965476D01*
X298695833Y-41965476D01*
X298505357Y-42013095D01*
X298410119Y-42060714D01*
X298362500Y-42108333D01*
X298314880Y-42203571D01*
X280264880Y-40060714D02*
X279264880Y-40060714D01*
X279264880Y-40298809D01*
X279312500Y-40441666D01*
X279407738Y-40536904D01*
X279502976Y-40584523D01*
X279693452Y-40632142D01*
X279836309Y-40632142D01*
X280026785Y-40584523D01*
X280122023Y-40536904D01*
X280217261Y-40441666D01*
X280264880Y-40298809D01*
X280264880Y-40060714D01*
X279360119Y-41013095D02*
X279312500Y-41060714D01*
X279264880Y-41155952D01*
X279264880Y-41394047D01*
X279312500Y-41489285D01*
X279360119Y-41536904D01*
X279455357Y-41584523D01*
X279550595Y-41584523D01*
X279693452Y-41536904D01*
X280264880Y-40965476D01*
X280264880Y-41584523D01*
X280264880Y-42060714D02*
X280264880Y-42251190D01*
X280217261Y-42346428D01*
X280169642Y-42394047D01*
X280026785Y-42489285D01*
X279836309Y-42536904D01*
X279455357Y-42536904D01*
X279360119Y-42489285D01*
X279312500Y-42441666D01*
X279264880Y-42346428D01*
X279264880Y-42155952D01*
X279312500Y-42060714D01*
X279360119Y-42013095D01*
X279455357Y-41965476D01*
X279693452Y-41965476D01*
X279788690Y-42013095D01*
X279836309Y-42060714D01*
X279883928Y-42155952D01*
X279883928Y-42346428D01*
X279836309Y-42441666D01*
X279788690Y-42489285D01*
X279693452Y-42536904D01*
X261214880Y-40060714D02*
X260214880Y-40060714D01*
X260214880Y-40298809D01*
X260262500Y-40441666D01*
X260357738Y-40536904D01*
X260452976Y-40584523D01*
X260643452Y-40632142D01*
X260786309Y-40632142D01*
X260976785Y-40584523D01*
X261072023Y-40536904D01*
X261167261Y-40441666D01*
X261214880Y-40298809D01*
X261214880Y-40060714D01*
X260310119Y-41013095D02*
X260262500Y-41060714D01*
X260214880Y-41155952D01*
X260214880Y-41394047D01*
X260262500Y-41489285D01*
X260310119Y-41536904D01*
X260405357Y-41584523D01*
X260500595Y-41584523D01*
X260643452Y-41536904D01*
X261214880Y-40965476D01*
X261214880Y-41584523D01*
X260643452Y-42155952D02*
X260595833Y-42060714D01*
X260548214Y-42013095D01*
X260452976Y-41965476D01*
X260405357Y-41965476D01*
X260310119Y-42013095D01*
X260262500Y-42060714D01*
X260214880Y-42155952D01*
X260214880Y-42346428D01*
X260262500Y-42441666D01*
X260310119Y-42489285D01*
X260405357Y-42536904D01*
X260452976Y-42536904D01*
X260548214Y-42489285D01*
X260595833Y-42441666D01*
X260643452Y-42346428D01*
X260643452Y-42155952D01*
X260691071Y-42060714D01*
X260738690Y-42013095D01*
X260833928Y-41965476D01*
X261024404Y-41965476D01*
X261119642Y-42013095D01*
X261167261Y-42060714D01*
X261214880Y-42155952D01*
X261214880Y-42346428D01*
X261167261Y-42441666D01*
X261119642Y-42489285D01*
X261024404Y-42536904D01*
X260833928Y-42536904D01*
X260738690Y-42489285D01*
X260691071Y-42441666D01*
X260643452Y-42346428D01*
X242164880Y-40060714D02*
X241164880Y-40060714D01*
X241164880Y-40298809D01*
X241212500Y-40441666D01*
X241307738Y-40536904D01*
X241402976Y-40584523D01*
X241593452Y-40632142D01*
X241736309Y-40632142D01*
X241926785Y-40584523D01*
X242022023Y-40536904D01*
X242117261Y-40441666D01*
X242164880Y-40298809D01*
X242164880Y-40060714D01*
X241260119Y-41013095D02*
X241212500Y-41060714D01*
X241164880Y-41155952D01*
X241164880Y-41394047D01*
X241212500Y-41489285D01*
X241260119Y-41536904D01*
X241355357Y-41584523D01*
X241450595Y-41584523D01*
X241593452Y-41536904D01*
X242164880Y-40965476D01*
X242164880Y-41584523D01*
X241164880Y-41917857D02*
X241164880Y-42584523D01*
X242164880Y-42155952D01*
X206446130Y-40060714D02*
X205446130Y-40060714D01*
X205446130Y-40298809D01*
X205493750Y-40441666D01*
X205588988Y-40536904D01*
X205684226Y-40584523D01*
X205874702Y-40632142D01*
X206017559Y-40632142D01*
X206208035Y-40584523D01*
X206303273Y-40536904D01*
X206398511Y-40441666D01*
X206446130Y-40298809D01*
X206446130Y-40060714D01*
X205541369Y-41013095D02*
X205493750Y-41060714D01*
X205446130Y-41155952D01*
X205446130Y-41394047D01*
X205493750Y-41489285D01*
X205541369Y-41536904D01*
X205636607Y-41584523D01*
X205731845Y-41584523D01*
X205874702Y-41536904D01*
X206446130Y-40965476D01*
X206446130Y-41584523D01*
X205446130Y-42441666D02*
X205446130Y-42251190D01*
X205493750Y-42155952D01*
X205541369Y-42108333D01*
X205684226Y-42013095D01*
X205874702Y-41965476D01*
X206255654Y-41965476D01*
X206350892Y-42013095D01*
X206398511Y-42060714D01*
X206446130Y-42155952D01*
X206446130Y-42346428D01*
X206398511Y-42441666D01*
X206350892Y-42489285D01*
X206255654Y-42536904D01*
X206017559Y-42536904D01*
X205922321Y-42489285D01*
X205874702Y-42441666D01*
X205827083Y-42346428D01*
X205827083Y-42155952D01*
X205874702Y-42060714D01*
X205922321Y-42013095D01*
X206017559Y-41965476D01*
X204064880Y-40060714D02*
X203064880Y-40060714D01*
X203064880Y-40298809D01*
X203112500Y-40441666D01*
X203207738Y-40536904D01*
X203302976Y-40584523D01*
X203493452Y-40632142D01*
X203636309Y-40632142D01*
X203826785Y-40584523D01*
X203922023Y-40536904D01*
X204017261Y-40441666D01*
X204064880Y-40298809D01*
X204064880Y-40060714D01*
X203160119Y-41013095D02*
X203112500Y-41060714D01*
X203064880Y-41155952D01*
X203064880Y-41394047D01*
X203112500Y-41489285D01*
X203160119Y-41536904D01*
X203255357Y-41584523D01*
X203350595Y-41584523D01*
X203493452Y-41536904D01*
X204064880Y-40965476D01*
X204064880Y-41584523D01*
X203064880Y-42489285D02*
X203064880Y-42013095D01*
X203541071Y-41965476D01*
X203493452Y-42013095D01*
X203445833Y-42108333D01*
X203445833Y-42346428D01*
X203493452Y-42441666D01*
X203541071Y-42489285D01*
X203636309Y-42536904D01*
X203874404Y-42536904D01*
X203969642Y-42489285D01*
X204017261Y-42441666D01*
X204064880Y-42346428D01*
X204064880Y-42108333D01*
X204017261Y-42013095D01*
X203969642Y-41965476D01*
X185014880Y-40060714D02*
X184014880Y-40060714D01*
X184014880Y-40298809D01*
X184062500Y-40441666D01*
X184157738Y-40536904D01*
X184252976Y-40584523D01*
X184443452Y-40632142D01*
X184586309Y-40632142D01*
X184776785Y-40584523D01*
X184872023Y-40536904D01*
X184967261Y-40441666D01*
X185014880Y-40298809D01*
X185014880Y-40060714D01*
X184110119Y-41013095D02*
X184062500Y-41060714D01*
X184014880Y-41155952D01*
X184014880Y-41394047D01*
X184062500Y-41489285D01*
X184110119Y-41536904D01*
X184205357Y-41584523D01*
X184300595Y-41584523D01*
X184443452Y-41536904D01*
X185014880Y-40965476D01*
X185014880Y-41584523D01*
X184348214Y-42441666D02*
X185014880Y-42441666D01*
X183967261Y-42203571D02*
X184681547Y-41965476D01*
X184681547Y-42584523D01*
X165964880Y-40060714D02*
X164964880Y-40060714D01*
X164964880Y-40298809D01*
X165012500Y-40441666D01*
X165107738Y-40536904D01*
X165202976Y-40584523D01*
X165393452Y-40632142D01*
X165536309Y-40632142D01*
X165726785Y-40584523D01*
X165822023Y-40536904D01*
X165917261Y-40441666D01*
X165964880Y-40298809D01*
X165964880Y-40060714D01*
X165060119Y-41013095D02*
X165012500Y-41060714D01*
X164964880Y-41155952D01*
X164964880Y-41394047D01*
X165012500Y-41489285D01*
X165060119Y-41536904D01*
X165155357Y-41584523D01*
X165250595Y-41584523D01*
X165393452Y-41536904D01*
X165964880Y-40965476D01*
X165964880Y-41584523D01*
X164964880Y-41917857D02*
X164964880Y-42536904D01*
X165345833Y-42203571D01*
X165345833Y-42346428D01*
X165393452Y-42441666D01*
X165441071Y-42489285D01*
X165536309Y-42536904D01*
X165774404Y-42536904D01*
X165869642Y-42489285D01*
X165917261Y-42441666D01*
X165964880Y-42346428D01*
X165964880Y-42060714D01*
X165917261Y-41965476D01*
X165869642Y-41917857D01*
X146914880Y-40060714D02*
X145914880Y-40060714D01*
X145914880Y-40298809D01*
X145962500Y-40441666D01*
X146057738Y-40536904D01*
X146152976Y-40584523D01*
X146343452Y-40632142D01*
X146486309Y-40632142D01*
X146676785Y-40584523D01*
X146772023Y-40536904D01*
X146867261Y-40441666D01*
X146914880Y-40298809D01*
X146914880Y-40060714D01*
X146010119Y-41013095D02*
X145962500Y-41060714D01*
X145914880Y-41155952D01*
X145914880Y-41394047D01*
X145962500Y-41489285D01*
X146010119Y-41536904D01*
X146105357Y-41584523D01*
X146200595Y-41584523D01*
X146343452Y-41536904D01*
X146914880Y-40965476D01*
X146914880Y-41584523D01*
X146010119Y-41965476D02*
X145962500Y-42013095D01*
X145914880Y-42108333D01*
X145914880Y-42346428D01*
X145962500Y-42441666D01*
X146010119Y-42489285D01*
X146105357Y-42536904D01*
X146200595Y-42536904D01*
X146343452Y-42489285D01*
X146914880Y-41917857D01*
X146914880Y-42536904D01*
X127864880Y-40060714D02*
X126864880Y-40060714D01*
X126864880Y-40298809D01*
X126912500Y-40441666D01*
X127007738Y-40536904D01*
X127102976Y-40584523D01*
X127293452Y-40632142D01*
X127436309Y-40632142D01*
X127626785Y-40584523D01*
X127722023Y-40536904D01*
X127817261Y-40441666D01*
X127864880Y-40298809D01*
X127864880Y-40060714D01*
X126960119Y-41013095D02*
X126912500Y-41060714D01*
X126864880Y-41155952D01*
X126864880Y-41394047D01*
X126912500Y-41489285D01*
X126960119Y-41536904D01*
X127055357Y-41584523D01*
X127150595Y-41584523D01*
X127293452Y-41536904D01*
X127864880Y-40965476D01*
X127864880Y-41584523D01*
X127864880Y-42536904D02*
X127864880Y-41965476D01*
X127864880Y-42251190D02*
X126864880Y-42251190D01*
X127007738Y-42155952D01*
X127102976Y-42060714D01*
X127150595Y-41965476D01*
X108814880Y-40060714D02*
X107814880Y-40060714D01*
X107814880Y-40298809D01*
X107862500Y-40441666D01*
X107957738Y-40536904D01*
X108052976Y-40584523D01*
X108243452Y-40632142D01*
X108386309Y-40632142D01*
X108576785Y-40584523D01*
X108672023Y-40536904D01*
X108767261Y-40441666D01*
X108814880Y-40298809D01*
X108814880Y-40060714D01*
X107910119Y-41013095D02*
X107862500Y-41060714D01*
X107814880Y-41155952D01*
X107814880Y-41394047D01*
X107862500Y-41489285D01*
X107910119Y-41536904D01*
X108005357Y-41584523D01*
X108100595Y-41584523D01*
X108243452Y-41536904D01*
X108814880Y-40965476D01*
X108814880Y-41584523D01*
X107814880Y-42203571D02*
X107814880Y-42298809D01*
X107862500Y-42394047D01*
X107910119Y-42441666D01*
X108005357Y-42489285D01*
X108195833Y-42536904D01*
X108433928Y-42536904D01*
X108624404Y-42489285D01*
X108719642Y-42441666D01*
X108767261Y-42394047D01*
X108814880Y-42298809D01*
X108814880Y-42203571D01*
X108767261Y-42108333D01*
X108719642Y-42060714D01*
X108624404Y-42013095D01*
X108433928Y-41965476D01*
X108195833Y-41965476D01*
X108005357Y-42013095D01*
X107910119Y-42060714D01*
X107862500Y-42108333D01*
X107814880Y-42203571D01*
X89764880Y-40060714D02*
X88764880Y-40060714D01*
X88764880Y-40298809D01*
X88812500Y-40441666D01*
X88907738Y-40536904D01*
X89002976Y-40584523D01*
X89193452Y-40632142D01*
X89336309Y-40632142D01*
X89526785Y-40584523D01*
X89622023Y-40536904D01*
X89717261Y-40441666D01*
X89764880Y-40298809D01*
X89764880Y-40060714D01*
X89764880Y-41584523D02*
X89764880Y-41013095D01*
X89764880Y-41298809D02*
X88764880Y-41298809D01*
X88907738Y-41203571D01*
X89002976Y-41108333D01*
X89050595Y-41013095D01*
X89764880Y-42060714D02*
X89764880Y-42251190D01*
X89717261Y-42346428D01*
X89669642Y-42394047D01*
X89526785Y-42489285D01*
X89336309Y-42536904D01*
X88955357Y-42536904D01*
X88860119Y-42489285D01*
X88812500Y-42441666D01*
X88764880Y-42346428D01*
X88764880Y-42155952D01*
X88812500Y-42060714D01*
X88860119Y-42013095D01*
X88955357Y-41965476D01*
X89193452Y-41965476D01*
X89288690Y-42013095D01*
X89336309Y-42060714D01*
X89383928Y-42155952D01*
X89383928Y-42346428D01*
X89336309Y-42441666D01*
X89288690Y-42489285D01*
X89193452Y-42536904D01*
X70714880Y-40060714D02*
X69714880Y-40060714D01*
X69714880Y-40298809D01*
X69762500Y-40441666D01*
X69857738Y-40536904D01*
X69952976Y-40584523D01*
X70143452Y-40632142D01*
X70286309Y-40632142D01*
X70476785Y-40584523D01*
X70572023Y-40536904D01*
X70667261Y-40441666D01*
X70714880Y-40298809D01*
X70714880Y-40060714D01*
X70714880Y-41584523D02*
X70714880Y-41013095D01*
X70714880Y-41298809D02*
X69714880Y-41298809D01*
X69857738Y-41203571D01*
X69952976Y-41108333D01*
X70000595Y-41013095D01*
X70143452Y-42155952D02*
X70095833Y-42060714D01*
X70048214Y-42013095D01*
X69952976Y-41965476D01*
X69905357Y-41965476D01*
X69810119Y-42013095D01*
X69762500Y-42060714D01*
X69714880Y-42155952D01*
X69714880Y-42346428D01*
X69762500Y-42441666D01*
X69810119Y-42489285D01*
X69905357Y-42536904D01*
X69952976Y-42536904D01*
X70048214Y-42489285D01*
X70095833Y-42441666D01*
X70143452Y-42346428D01*
X70143452Y-42155952D01*
X70191071Y-42060714D01*
X70238690Y-42013095D01*
X70333928Y-41965476D01*
X70524404Y-41965476D01*
X70619642Y-42013095D01*
X70667261Y-42060714D01*
X70714880Y-42155952D01*
X70714880Y-42346428D01*
X70667261Y-42441666D01*
X70619642Y-42489285D01*
X70524404Y-42536904D01*
X70333928Y-42536904D01*
X70238690Y-42489285D01*
X70191071Y-42441666D01*
X70143452Y-42346428D01*
X51664880Y-40060714D02*
X50664880Y-40060714D01*
X50664880Y-40298809D01*
X50712500Y-40441666D01*
X50807738Y-40536904D01*
X50902976Y-40584523D01*
X51093452Y-40632142D01*
X51236309Y-40632142D01*
X51426785Y-40584523D01*
X51522023Y-40536904D01*
X51617261Y-40441666D01*
X51664880Y-40298809D01*
X51664880Y-40060714D01*
X51664880Y-41584523D02*
X51664880Y-41013095D01*
X51664880Y-41298809D02*
X50664880Y-41298809D01*
X50807738Y-41203571D01*
X50902976Y-41108333D01*
X50950595Y-41013095D01*
X50664880Y-41917857D02*
X50664880Y-42584523D01*
X51664880Y-42155952D01*
X32614880Y-40060714D02*
X31614880Y-40060714D01*
X31614880Y-40298809D01*
X31662500Y-40441666D01*
X31757738Y-40536904D01*
X31852976Y-40584523D01*
X32043452Y-40632142D01*
X32186309Y-40632142D01*
X32376785Y-40584523D01*
X32472023Y-40536904D01*
X32567261Y-40441666D01*
X32614880Y-40298809D01*
X32614880Y-40060714D01*
X32614880Y-41584523D02*
X32614880Y-41013095D01*
X32614880Y-41298809D02*
X31614880Y-41298809D01*
X31757738Y-41203571D01*
X31852976Y-41108333D01*
X31900595Y-41013095D01*
X31614880Y-42441666D02*
X31614880Y-42251190D01*
X31662500Y-42155952D01*
X31710119Y-42108333D01*
X31852976Y-42013095D01*
X32043452Y-41965476D01*
X32424404Y-41965476D01*
X32519642Y-42013095D01*
X32567261Y-42060714D01*
X32614880Y-42155952D01*
X32614880Y-42346428D01*
X32567261Y-42441666D01*
X32519642Y-42489285D01*
X32424404Y-42536904D01*
X32186309Y-42536904D01*
X32091071Y-42489285D01*
X32043452Y-42441666D01*
X31995833Y-42346428D01*
X31995833Y-42155952D01*
X32043452Y-42060714D01*
X32091071Y-42013095D01*
X32186309Y-41965476D01*
X299314880Y-21010714D02*
X298314880Y-21010714D01*
X298314880Y-21248809D01*
X298362500Y-21391666D01*
X298457738Y-21486904D01*
X298552976Y-21534523D01*
X298743452Y-21582142D01*
X298886309Y-21582142D01*
X299076785Y-21534523D01*
X299172023Y-21486904D01*
X299267261Y-21391666D01*
X299314880Y-21248809D01*
X299314880Y-21010714D01*
X299314880Y-22534523D02*
X299314880Y-21963095D01*
X299314880Y-22248809D02*
X298314880Y-22248809D01*
X298457738Y-22153571D01*
X298552976Y-22058333D01*
X298600595Y-21963095D01*
X298314880Y-23439285D02*
X298314880Y-22963095D01*
X298791071Y-22915476D01*
X298743452Y-22963095D01*
X298695833Y-23058333D01*
X298695833Y-23296428D01*
X298743452Y-23391666D01*
X298791071Y-23439285D01*
X298886309Y-23486904D01*
X299124404Y-23486904D01*
X299219642Y-23439285D01*
X299267261Y-23391666D01*
X299314880Y-23296428D01*
X299314880Y-23058333D01*
X299267261Y-22963095D01*
X299219642Y-22915476D01*
X280264880Y-21010714D02*
X279264880Y-21010714D01*
X279264880Y-21248809D01*
X279312500Y-21391666D01*
X279407738Y-21486904D01*
X279502976Y-21534523D01*
X279693452Y-21582142D01*
X279836309Y-21582142D01*
X280026785Y-21534523D01*
X280122023Y-21486904D01*
X280217261Y-21391666D01*
X280264880Y-21248809D01*
X280264880Y-21010714D01*
X280264880Y-22534523D02*
X280264880Y-21963095D01*
X280264880Y-22248809D02*
X279264880Y-22248809D01*
X279407738Y-22153571D01*
X279502976Y-22058333D01*
X279550595Y-21963095D01*
X279598214Y-23391666D02*
X280264880Y-23391666D01*
X279217261Y-23153571D02*
X279931547Y-22915476D01*
X279931547Y-23534523D01*
X261214880Y-21010714D02*
X260214880Y-21010714D01*
X260214880Y-21248809D01*
X260262500Y-21391666D01*
X260357738Y-21486904D01*
X260452976Y-21534523D01*
X260643452Y-21582142D01*
X260786309Y-21582142D01*
X260976785Y-21534523D01*
X261072023Y-21486904D01*
X261167261Y-21391666D01*
X261214880Y-21248809D01*
X261214880Y-21010714D01*
X261214880Y-22534523D02*
X261214880Y-21963095D01*
X261214880Y-22248809D02*
X260214880Y-22248809D01*
X260357738Y-22153571D01*
X260452976Y-22058333D01*
X260500595Y-21963095D01*
X260214880Y-22867857D02*
X260214880Y-23486904D01*
X260595833Y-23153571D01*
X260595833Y-23296428D01*
X260643452Y-23391666D01*
X260691071Y-23439285D01*
X260786309Y-23486904D01*
X261024404Y-23486904D01*
X261119642Y-23439285D01*
X261167261Y-23391666D01*
X261214880Y-23296428D01*
X261214880Y-23010714D01*
X261167261Y-22915476D01*
X261119642Y-22867857D01*
X242164880Y-21010714D02*
X241164880Y-21010714D01*
X241164880Y-21248809D01*
X241212500Y-21391666D01*
X241307738Y-21486904D01*
X241402976Y-21534523D01*
X241593452Y-21582142D01*
X241736309Y-21582142D01*
X241926785Y-21534523D01*
X242022023Y-21486904D01*
X242117261Y-21391666D01*
X242164880Y-21248809D01*
X242164880Y-21010714D01*
X242164880Y-22534523D02*
X242164880Y-21963095D01*
X242164880Y-22248809D02*
X241164880Y-22248809D01*
X241307738Y-22153571D01*
X241402976Y-22058333D01*
X241450595Y-21963095D01*
X241260119Y-22915476D02*
X241212500Y-22963095D01*
X241164880Y-23058333D01*
X241164880Y-23296428D01*
X241212500Y-23391666D01*
X241260119Y-23439285D01*
X241355357Y-23486904D01*
X241450595Y-23486904D01*
X241593452Y-23439285D01*
X242164880Y-22867857D01*
X242164880Y-23486904D01*
X206446130Y-21010714D02*
X205446130Y-21010714D01*
X205446130Y-21248809D01*
X205493750Y-21391666D01*
X205588988Y-21486904D01*
X205684226Y-21534523D01*
X205874702Y-21582142D01*
X206017559Y-21582142D01*
X206208035Y-21534523D01*
X206303273Y-21486904D01*
X206398511Y-21391666D01*
X206446130Y-21248809D01*
X206446130Y-21010714D01*
X206446130Y-22534523D02*
X206446130Y-21963095D01*
X206446130Y-22248809D02*
X205446130Y-22248809D01*
X205588988Y-22153571D01*
X205684226Y-22058333D01*
X205731845Y-21963095D01*
X206446130Y-23486904D02*
X206446130Y-22915476D01*
X206446130Y-23201190D02*
X205446130Y-23201190D01*
X205588988Y-23105952D01*
X205684226Y-23010714D01*
X205731845Y-22915476D01*
X204064880Y-21010714D02*
X203064880Y-21010714D01*
X203064880Y-21248809D01*
X203112500Y-21391666D01*
X203207738Y-21486904D01*
X203302976Y-21534523D01*
X203493452Y-21582142D01*
X203636309Y-21582142D01*
X203826785Y-21534523D01*
X203922023Y-21486904D01*
X204017261Y-21391666D01*
X204064880Y-21248809D01*
X204064880Y-21010714D01*
X204064880Y-22534523D02*
X204064880Y-21963095D01*
X204064880Y-22248809D02*
X203064880Y-22248809D01*
X203207738Y-22153571D01*
X203302976Y-22058333D01*
X203350595Y-21963095D01*
X203064880Y-23153571D02*
X203064880Y-23248809D01*
X203112500Y-23344047D01*
X203160119Y-23391666D01*
X203255357Y-23439285D01*
X203445833Y-23486904D01*
X203683928Y-23486904D01*
X203874404Y-23439285D01*
X203969642Y-23391666D01*
X204017261Y-23344047D01*
X204064880Y-23248809D01*
X204064880Y-23153571D01*
X204017261Y-23058333D01*
X203969642Y-23010714D01*
X203874404Y-22963095D01*
X203683928Y-22915476D01*
X203445833Y-22915476D01*
X203255357Y-22963095D01*
X203160119Y-23010714D01*
X203112500Y-23058333D01*
X203064880Y-23153571D01*
X185014880Y-21486904D02*
X184014880Y-21486904D01*
X184014880Y-21725000D01*
X184062500Y-21867857D01*
X184157738Y-21963095D01*
X184252976Y-22010714D01*
X184443452Y-22058333D01*
X184586309Y-22058333D01*
X184776785Y-22010714D01*
X184872023Y-21963095D01*
X184967261Y-21867857D01*
X185014880Y-21725000D01*
X185014880Y-21486904D01*
X185014880Y-22534523D02*
X185014880Y-22725000D01*
X184967261Y-22820238D01*
X184919642Y-22867857D01*
X184776785Y-22963095D01*
X184586309Y-23010714D01*
X184205357Y-23010714D01*
X184110119Y-22963095D01*
X184062500Y-22915476D01*
X184014880Y-22820238D01*
X184014880Y-22629761D01*
X184062500Y-22534523D01*
X184110119Y-22486904D01*
X184205357Y-22439285D01*
X184443452Y-22439285D01*
X184538690Y-22486904D01*
X184586309Y-22534523D01*
X184633928Y-22629761D01*
X184633928Y-22820238D01*
X184586309Y-22915476D01*
X184538690Y-22963095D01*
X184443452Y-23010714D01*
X165964880Y-21486904D02*
X164964880Y-21486904D01*
X164964880Y-21725000D01*
X165012500Y-21867857D01*
X165107738Y-21963095D01*
X165202976Y-22010714D01*
X165393452Y-22058333D01*
X165536309Y-22058333D01*
X165726785Y-22010714D01*
X165822023Y-21963095D01*
X165917261Y-21867857D01*
X165964880Y-21725000D01*
X165964880Y-21486904D01*
X165393452Y-22629761D02*
X165345833Y-22534523D01*
X165298214Y-22486904D01*
X165202976Y-22439285D01*
X165155357Y-22439285D01*
X165060119Y-22486904D01*
X165012500Y-22534523D01*
X164964880Y-22629761D01*
X164964880Y-22820238D01*
X165012500Y-22915476D01*
X165060119Y-22963095D01*
X165155357Y-23010714D01*
X165202976Y-23010714D01*
X165298214Y-22963095D01*
X165345833Y-22915476D01*
X165393452Y-22820238D01*
X165393452Y-22629761D01*
X165441071Y-22534523D01*
X165488690Y-22486904D01*
X165583928Y-22439285D01*
X165774404Y-22439285D01*
X165869642Y-22486904D01*
X165917261Y-22534523D01*
X165964880Y-22629761D01*
X165964880Y-22820238D01*
X165917261Y-22915476D01*
X165869642Y-22963095D01*
X165774404Y-23010714D01*
X165583928Y-23010714D01*
X165488690Y-22963095D01*
X165441071Y-22915476D01*
X165393452Y-22820238D01*
X146914880Y-21486904D02*
X145914880Y-21486904D01*
X145914880Y-21725000D01*
X145962500Y-21867857D01*
X146057738Y-21963095D01*
X146152976Y-22010714D01*
X146343452Y-22058333D01*
X146486309Y-22058333D01*
X146676785Y-22010714D01*
X146772023Y-21963095D01*
X146867261Y-21867857D01*
X146914880Y-21725000D01*
X146914880Y-21486904D01*
X145914880Y-22391666D02*
X145914880Y-23058333D01*
X146914880Y-22629761D01*
X127864880Y-21486904D02*
X126864880Y-21486904D01*
X126864880Y-21725000D01*
X126912500Y-21867857D01*
X127007738Y-21963095D01*
X127102976Y-22010714D01*
X127293452Y-22058333D01*
X127436309Y-22058333D01*
X127626785Y-22010714D01*
X127722023Y-21963095D01*
X127817261Y-21867857D01*
X127864880Y-21725000D01*
X127864880Y-21486904D01*
X126864880Y-22915476D02*
X126864880Y-22725000D01*
X126912500Y-22629761D01*
X126960119Y-22582142D01*
X127102976Y-22486904D01*
X127293452Y-22439285D01*
X127674404Y-22439285D01*
X127769642Y-22486904D01*
X127817261Y-22534523D01*
X127864880Y-22629761D01*
X127864880Y-22820238D01*
X127817261Y-22915476D01*
X127769642Y-22963095D01*
X127674404Y-23010714D01*
X127436309Y-23010714D01*
X127341071Y-22963095D01*
X127293452Y-22915476D01*
X127245833Y-22820238D01*
X127245833Y-22629761D01*
X127293452Y-22534523D01*
X127341071Y-22486904D01*
X127436309Y-22439285D01*
X108814880Y-21486904D02*
X107814880Y-21486904D01*
X107814880Y-21725000D01*
X107862500Y-21867857D01*
X107957738Y-21963095D01*
X108052976Y-22010714D01*
X108243452Y-22058333D01*
X108386309Y-22058333D01*
X108576785Y-22010714D01*
X108672023Y-21963095D01*
X108767261Y-21867857D01*
X108814880Y-21725000D01*
X108814880Y-21486904D01*
X107814880Y-22963095D02*
X107814880Y-22486904D01*
X108291071Y-22439285D01*
X108243452Y-22486904D01*
X108195833Y-22582142D01*
X108195833Y-22820238D01*
X108243452Y-22915476D01*
X108291071Y-22963095D01*
X108386309Y-23010714D01*
X108624404Y-23010714D01*
X108719642Y-22963095D01*
X108767261Y-22915476D01*
X108814880Y-22820238D01*
X108814880Y-22582142D01*
X108767261Y-22486904D01*
X108719642Y-22439285D01*
X89764880Y-21486904D02*
X88764880Y-21486904D01*
X88764880Y-21725000D01*
X88812500Y-21867857D01*
X88907738Y-21963095D01*
X89002976Y-22010714D01*
X89193452Y-22058333D01*
X89336309Y-22058333D01*
X89526785Y-22010714D01*
X89622023Y-21963095D01*
X89717261Y-21867857D01*
X89764880Y-21725000D01*
X89764880Y-21486904D01*
X89098214Y-22915476D02*
X89764880Y-22915476D01*
X88717261Y-22677380D02*
X89431547Y-22439285D01*
X89431547Y-23058333D01*
X70714880Y-21486904D02*
X69714880Y-21486904D01*
X69714880Y-21725000D01*
X69762500Y-21867857D01*
X69857738Y-21963095D01*
X69952976Y-22010714D01*
X70143452Y-22058333D01*
X70286309Y-22058333D01*
X70476785Y-22010714D01*
X70572023Y-21963095D01*
X70667261Y-21867857D01*
X70714880Y-21725000D01*
X70714880Y-21486904D01*
X69714880Y-22391666D02*
X69714880Y-23010714D01*
X70095833Y-22677380D01*
X70095833Y-22820238D01*
X70143452Y-22915476D01*
X70191071Y-22963095D01*
X70286309Y-23010714D01*
X70524404Y-23010714D01*
X70619642Y-22963095D01*
X70667261Y-22915476D01*
X70714880Y-22820238D01*
X70714880Y-22534523D01*
X70667261Y-22439285D01*
X70619642Y-22391666D01*
X51664880Y-21486904D02*
X50664880Y-21486904D01*
X50664880Y-21725000D01*
X50712500Y-21867857D01*
X50807738Y-21963095D01*
X50902976Y-22010714D01*
X51093452Y-22058333D01*
X51236309Y-22058333D01*
X51426785Y-22010714D01*
X51522023Y-21963095D01*
X51617261Y-21867857D01*
X51664880Y-21725000D01*
X51664880Y-21486904D01*
X50760119Y-22439285D02*
X50712500Y-22486904D01*
X50664880Y-22582142D01*
X50664880Y-22820238D01*
X50712500Y-22915476D01*
X50760119Y-22963095D01*
X50855357Y-23010714D01*
X50950595Y-23010714D01*
X51093452Y-22963095D01*
X51664880Y-22391666D01*
X51664880Y-23010714D01*
X32614880Y-21486904D02*
X31614880Y-21486904D01*
X31614880Y-21725000D01*
X31662500Y-21867857D01*
X31757738Y-21963095D01*
X31852976Y-22010714D01*
X32043452Y-22058333D01*
X32186309Y-22058333D01*
X32376785Y-22010714D01*
X32472023Y-21963095D01*
X32567261Y-21867857D01*
X32614880Y-21725000D01*
X32614880Y-21486904D01*
X32614880Y-23010714D02*
X32614880Y-22439285D01*
X32614880Y-22725000D02*
X31614880Y-22725000D01*
X31757738Y-22629761D01*
X31852976Y-22534523D01*
X31900595Y-22439285D01*
X210035142Y-54602083D02*
X210082761Y-54554464D01*
X210130380Y-54411607D01*
X210130380Y-54316369D01*
X210082761Y-54173511D01*
X209987523Y-54078273D01*
X209892285Y-54030654D01*
X209701809Y-53983035D01*
X209558952Y-53983035D01*
X209368476Y-54030654D01*
X209273238Y-54078273D01*
X209178000Y-54173511D01*
X209130380Y-54316369D01*
X209130380Y-54411607D01*
X209178000Y-54554464D01*
X209225619Y-54602083D01*
X209130380Y-54935416D02*
X209130380Y-55602083D01*
X210130380Y-55173511D01*
X212891666Y-47919642D02*
X212939285Y-47967261D01*
X213082142Y-48014880D01*
X213177380Y-48014880D01*
X213320238Y-47967261D01*
X213415476Y-47872023D01*
X213463095Y-47776785D01*
X213510714Y-47586309D01*
X213510714Y-47443452D01*
X213463095Y-47252976D01*
X213415476Y-47157738D01*
X213320238Y-47062500D01*
X213177380Y-47014880D01*
X213082142Y-47014880D01*
X212939285Y-47062500D01*
X212891666Y-47110119D01*
X212034523Y-47014880D02*
X212225000Y-47014880D01*
X212320238Y-47062500D01*
X212367857Y-47110119D01*
X212463095Y-47252976D01*
X212510714Y-47443452D01*
X212510714Y-47824404D01*
X212463095Y-47919642D01*
X212415476Y-47967261D01*
X212320238Y-48014880D01*
X212129761Y-48014880D01*
X212034523Y-47967261D01*
X211986904Y-47919642D01*
X211939285Y-47824404D01*
X211939285Y-47586309D01*
X211986904Y-47491071D01*
X212034523Y-47443452D01*
X212129761Y-47395833D01*
X212320238Y-47395833D01*
X212415476Y-47443452D01*
X212463095Y-47491071D01*
X212510714Y-47586309D01*
X229019642Y-26820833D02*
X229067261Y-26773214D01*
X229114880Y-26630357D01*
X229114880Y-26535119D01*
X229067261Y-26392261D01*
X228972023Y-26297023D01*
X228876785Y-26249404D01*
X228686309Y-26201785D01*
X228543452Y-26201785D01*
X228352976Y-26249404D01*
X228257738Y-26297023D01*
X228162500Y-26392261D01*
X228114880Y-26535119D01*
X228114880Y-26630357D01*
X228162500Y-26773214D01*
X228210119Y-26820833D01*
X228210119Y-27201785D02*
X228162500Y-27249404D01*
X228114880Y-27344642D01*
X228114880Y-27582738D01*
X228162500Y-27677976D01*
X228210119Y-27725595D01*
X228305357Y-27773214D01*
X228400595Y-27773214D01*
X228543452Y-27725595D01*
X229114880Y-27154166D01*
X229114880Y-27773214D01*
X219494642Y-31615083D02*
X219542261Y-31567464D01*
X219589880Y-31424607D01*
X219589880Y-31329369D01*
X219542261Y-31186511D01*
X219447023Y-31091273D01*
X219351785Y-31043654D01*
X219161309Y-30996035D01*
X219018452Y-30996035D01*
X218827976Y-31043654D01*
X218732738Y-31091273D01*
X218637500Y-31186511D01*
X218589880Y-31329369D01*
X218589880Y-31424607D01*
X218637500Y-31567464D01*
X218685119Y-31615083D01*
X219589880Y-32567464D02*
X219589880Y-31996035D01*
X219589880Y-32281750D02*
X218589880Y-32281750D01*
X218732738Y-32186511D01*
X218827976Y-32091273D01*
X218875595Y-31996035D01*
M02*
