M48
; DRILL file {KiCad (5.1.4)-1} date 5/13/2022 4:31:48 PM
; FORMAT={-:-/ absolute / inch / decimal}
; #@! TF.CreationDate,2022-05-13T16:31:48-07:00
; #@! TF.GenerationSoftware,Kicad,Pcbnew,(5.1.4)-1
; #@! TF.FileFunction,NonPlated,1,2,NPTH
FMAT,2
INCH
T1C0.0689
T2C0.1200
T3C0.1570
%
G90
G05
T1
X2.175Y-1.625
X2.575Y-1.625
X5.175Y-1.625
X5.575Y-1.625
X5.175Y-0.875
X5.575Y-0.875
X1.425Y-2.375
X1.825Y-2.375
X5.925Y-3.875
X6.325Y-3.875
X1.425Y-1.625
X1.825Y-1.625
X5.925Y-3.125
X6.325Y-3.125
X2.925Y-3.125
X3.325Y-3.125
X9.675Y-0.875
X10.075Y-0.875
X0.675Y-3.125
X1.075Y-3.125
X1.425Y-3.875
X1.825Y-3.875
X10.425Y-3.125
X10.825Y-3.125
X10.05Y-2.375
X10.45Y-2.375
X8.925Y-1.625
X9.325Y-1.625
X0.675Y-2.375
X1.075Y-2.375
X4.425Y-3.125
X4.825Y-3.125
X4.425Y-2.375
X4.825Y-2.375
X3.675Y-3.125
X4.075Y-3.125
X5.175Y-2.375
X5.575Y-2.375
X4.8Y-3.875
X5.2Y-3.875
X10.425Y-0.875
X10.825Y-0.875
X5.925Y-1.625
X6.325Y-1.625
X7.425Y-3.875
X7.825Y-3.875
X8.175Y-0.875
X8.575Y-0.875
X2.925Y-0.875
X3.325Y-0.875
X7.425Y-1.625
X7.825Y-1.625
X8.925Y-3.875
X9.325Y-3.875
X4.425Y-0.875
X4.825Y-0.875
X2.925Y-2.375
X3.325Y-2.375
X10.425Y-3.875
X10.825Y-3.875
X1.425Y-0.875
X1.825Y-0.875
X5.175Y-3.125
X5.575Y-3.125
X7.425Y-0.875
X7.825Y-0.875
X9.3Y-3.125
X9.7Y-3.125
X11.175Y-0.875
X11.575Y-0.875
X1.425Y-3.125
X1.825Y-3.125
X8.175Y-1.625
X8.575Y-1.625
X8.925Y-2.375
X9.325Y-2.375
X11.175Y-1.625
X11.575Y-1.625
X6.675Y-3.125
X7.075Y-3.125
X6.675Y-1.625
X7.075Y-1.625
X7.425Y-3.125
X7.825Y-3.125
X5.925Y-2.375
X6.325Y-2.375
X11.175Y-3.875
X11.575Y-3.875
X8.925Y-0.875
X9.325Y-0.875
X9.675Y-1.625
X10.075Y-1.625
X8.175Y-3.875
X8.575Y-3.875
X5.925Y-0.875
X6.325Y-0.875
X3.675Y-1.625
X4.075Y-1.625
X6.675Y-3.875
X7.075Y-3.875
X2.175Y-0.875
X2.575Y-0.875
X8.175Y-3.125
X8.575Y-3.125
X4.425Y-1.625
X4.825Y-1.625
X2.925Y-3.875
X3.325Y-3.875
X2.175Y-3.125
X2.575Y-3.125
X2.175Y-3.875
X2.575Y-3.875
X3.675Y-0.875
X4.075Y-0.875
X11.175Y-3.125
X11.575Y-3.125
X3.675Y-3.875
X4.075Y-3.875
X6.675Y-0.875
X7.075Y-0.875
X11.175Y-2.375
X11.575Y-2.375
X0.675Y-0.875
X1.075Y-0.875
X6.675Y-2.375
X7.075Y-2.375
X7.425Y-2.375
X7.825Y-2.375
X10.425Y-1.625
X10.825Y-1.625
X8.175Y-2.375
X8.575Y-2.375
X2.925Y-1.625
X3.325Y-1.625
X3.675Y-2.375
X4.075Y-2.375
X0.675Y-3.875
X1.075Y-3.875
X0.675Y-1.625
X1.075Y-1.625
X2.175Y-2.375
X2.575Y-2.375
X9.675Y-3.875
X10.075Y-3.875
T2
X9.7812Y-2.1
X10.7188Y-2.1
X4.5312Y-4.15
X5.4688Y-4.15
X9.0312Y-2.85
X9.9688Y-2.85
T3
X6.875Y-2.375
X7.625Y-2.375
X10.625Y-1.625
X8.375Y-2.375
X3.125Y-1.625
X3.875Y-2.375
X0.875Y-3.875
X0.875Y-1.625
X2.375Y-2.375
X9.875Y-3.875
X2.375Y-1.625
X5.375Y-1.625
X5.375Y-0.875
X1.625Y-2.375
X6.125Y-3.875
X1.625Y-1.625
X6.125Y-3.125
X3.125Y-3.125
X9.875Y-0.875
X0.875Y-3.125
X1.625Y-3.875
X10.625Y-3.125
X9.7812Y-2.7
X10.25Y-2.375
X10.7188Y-2.7
X9.125Y-1.625
X0.875Y-2.375
X4.625Y-3.125
X4.625Y-2.375
X3.875Y-3.125
X5.375Y-2.375
X4.5312Y-3.55
X5.0Y-3.875
X5.4688Y-3.55
X10.625Y-0.875
X6.125Y-1.625
X7.625Y-3.875
X8.375Y-0.875
X3.125Y-0.875
X7.625Y-1.625
X9.125Y-3.875
X4.625Y-0.875
X3.125Y-2.375
X10.625Y-3.875
X1.625Y-0.875
X5.375Y-3.125
X7.625Y-0.875
X9.0312Y-3.45
X9.5Y-3.125
X9.9688Y-3.45
X11.375Y-0.875
X1.625Y-3.125
X8.375Y-1.625
X9.125Y-2.375
X11.375Y-1.625
X6.875Y-3.125
X6.875Y-1.625
X7.625Y-3.125
X6.125Y-2.375
X11.375Y-3.875
X9.125Y-0.875
X9.875Y-1.625
X8.375Y-3.875
X6.125Y-0.875
X3.875Y-1.625
X6.875Y-3.875
X2.375Y-0.875
X8.375Y-3.125
X4.625Y-1.625
X3.125Y-3.875
X2.375Y-3.125
X2.375Y-3.875
X3.875Y-0.875
X11.375Y-3.125
X3.875Y-3.875
X6.875Y-0.875
X11.375Y-2.375
X0.875Y-0.875
T0
M30
