G04 #@! TF.GenerationSoftware,KiCad,Pcbnew,(5.1.4)-1*
G04 #@! TF.CreationDate,2022-05-13T01:11:50-07:00*
G04 #@! TF.ProjectId,bakeneko60tho,62616b65-6e65-46b6-9f36-3074686f2e6b,rev?*
G04 #@! TF.SameCoordinates,Original*
G04 #@! TF.FileFunction,Copper,L2,Bot*
G04 #@! TF.FilePolarity,Positive*
%FSLAX46Y46*%
G04 Gerber Fmt 4.6, Leading zero omitted, Abs format (unit mm)*
G04 Created by KiCad (PCBNEW (5.1.4)-1) date 2022-05-13 01:11:50*
%MOMM*%
%LPD*%
G04 APERTURE LIST*
%ADD10C,0.100000*%
%ADD11C,1.200000*%
%ADD12C,0.600000*%
%ADD13C,2.250000*%
%ADD14C,0.975000*%
%ADD15R,0.550000X1.500000*%
%ADD16R,1.500000X0.550000*%
%ADD17R,1.400000X1.200000*%
%ADD18R,1.800000X1.100000*%
%ADD19C,1.250000*%
%ADD20R,1.200000X0.900000*%
%ADD21C,0.800000*%
%ADD22C,0.381000*%
%ADD23C,0.203200*%
%ADD24C,0.250000*%
%ADD25C,0.254000*%
G04 APERTURE END LIST*
D10*
G36*
X69224505Y-33951204D02*
G01*
X69248773Y-33954804D01*
X69272572Y-33960765D01*
X69295671Y-33969030D01*
X69317850Y-33979520D01*
X69338893Y-33992132D01*
X69358599Y-34006747D01*
X69376777Y-34023223D01*
X69393253Y-34041401D01*
X69407868Y-34061107D01*
X69420480Y-34082150D01*
X69430970Y-34104329D01*
X69439235Y-34127428D01*
X69445196Y-34151227D01*
X69448796Y-34175495D01*
X69450000Y-34199999D01*
X69450000Y-34900001D01*
X69448796Y-34924505D01*
X69445196Y-34948773D01*
X69439235Y-34972572D01*
X69430970Y-34995671D01*
X69420480Y-35017850D01*
X69407868Y-35038893D01*
X69393253Y-35058599D01*
X69376777Y-35076777D01*
X69358599Y-35093253D01*
X69338893Y-35107868D01*
X69317850Y-35120480D01*
X69295671Y-35130970D01*
X69272572Y-35139235D01*
X69248773Y-35145196D01*
X69224505Y-35148796D01*
X69200001Y-35150000D01*
X67899999Y-35150000D01*
X67875495Y-35148796D01*
X67851227Y-35145196D01*
X67827428Y-35139235D01*
X67804329Y-35130970D01*
X67782150Y-35120480D01*
X67761107Y-35107868D01*
X67741401Y-35093253D01*
X67723223Y-35076777D01*
X67706747Y-35058599D01*
X67692132Y-35038893D01*
X67679520Y-35017850D01*
X67669030Y-34995671D01*
X67660765Y-34972572D01*
X67654804Y-34948773D01*
X67651204Y-34924505D01*
X67650000Y-34900001D01*
X67650000Y-34199999D01*
X67651204Y-34175495D01*
X67654804Y-34151227D01*
X67660765Y-34127428D01*
X67669030Y-34104329D01*
X67679520Y-34082150D01*
X67692132Y-34061107D01*
X67706747Y-34041401D01*
X67723223Y-34023223D01*
X67741401Y-34006747D01*
X67761107Y-33992132D01*
X67782150Y-33979520D01*
X67804329Y-33969030D01*
X67827428Y-33960765D01*
X67851227Y-33954804D01*
X67875495Y-33951204D01*
X67899999Y-33950000D01*
X69200001Y-33950000D01*
X69224505Y-33951204D01*
X69224505Y-33951204D01*
G37*
D11*
X68550000Y-34550000D03*
D10*
G36*
X69224505Y-28351204D02*
G01*
X69248773Y-28354804D01*
X69272572Y-28360765D01*
X69295671Y-28369030D01*
X69317850Y-28379520D01*
X69338893Y-28392132D01*
X69358599Y-28406747D01*
X69376777Y-28423223D01*
X69393253Y-28441401D01*
X69407868Y-28461107D01*
X69420480Y-28482150D01*
X69430970Y-28504329D01*
X69439235Y-28527428D01*
X69445196Y-28551227D01*
X69448796Y-28575495D01*
X69450000Y-28599999D01*
X69450000Y-29300001D01*
X69448796Y-29324505D01*
X69445196Y-29348773D01*
X69439235Y-29372572D01*
X69430970Y-29395671D01*
X69420480Y-29417850D01*
X69407868Y-29438893D01*
X69393253Y-29458599D01*
X69376777Y-29476777D01*
X69358599Y-29493253D01*
X69338893Y-29507868D01*
X69317850Y-29520480D01*
X69295671Y-29530970D01*
X69272572Y-29539235D01*
X69248773Y-29545196D01*
X69224505Y-29548796D01*
X69200001Y-29550000D01*
X67899999Y-29550000D01*
X67875495Y-29548796D01*
X67851227Y-29545196D01*
X67827428Y-29539235D01*
X67804329Y-29530970D01*
X67782150Y-29520480D01*
X67761107Y-29507868D01*
X67741401Y-29493253D01*
X67723223Y-29476777D01*
X67706747Y-29458599D01*
X67692132Y-29438893D01*
X67679520Y-29417850D01*
X67669030Y-29395671D01*
X67660765Y-29372572D01*
X67654804Y-29348773D01*
X67651204Y-29324505D01*
X67650000Y-29300001D01*
X67650000Y-28599999D01*
X67651204Y-28575495D01*
X67654804Y-28551227D01*
X67660765Y-28527428D01*
X67669030Y-28504329D01*
X67679520Y-28482150D01*
X67692132Y-28461107D01*
X67706747Y-28441401D01*
X67723223Y-28423223D01*
X67741401Y-28406747D01*
X67761107Y-28392132D01*
X67782150Y-28379520D01*
X67804329Y-28369030D01*
X67827428Y-28360765D01*
X67851227Y-28354804D01*
X67875495Y-28351204D01*
X67899999Y-28350000D01*
X69200001Y-28350000D01*
X69224505Y-28351204D01*
X69224505Y-28351204D01*
G37*
D11*
X68550000Y-28950000D03*
D10*
G36*
X65314703Y-32950722D02*
G01*
X65329264Y-32952882D01*
X65343543Y-32956459D01*
X65357403Y-32961418D01*
X65370710Y-32967712D01*
X65383336Y-32975280D01*
X65395159Y-32984048D01*
X65406066Y-32993934D01*
X65415952Y-33004841D01*
X65424720Y-33016664D01*
X65432288Y-33029290D01*
X65438582Y-33042597D01*
X65443541Y-33056457D01*
X65447118Y-33070736D01*
X65449278Y-33085297D01*
X65450000Y-33100000D01*
X65450000Y-33400000D01*
X65449278Y-33414703D01*
X65447118Y-33429264D01*
X65443541Y-33443543D01*
X65438582Y-33457403D01*
X65432288Y-33470710D01*
X65424720Y-33483336D01*
X65415952Y-33495159D01*
X65406066Y-33506066D01*
X65395159Y-33515952D01*
X65383336Y-33524720D01*
X65370710Y-33532288D01*
X65357403Y-33538582D01*
X65343543Y-33543541D01*
X65329264Y-33547118D01*
X65314703Y-33549278D01*
X65300000Y-33550000D01*
X64050000Y-33550000D01*
X64035297Y-33549278D01*
X64020736Y-33547118D01*
X64006457Y-33543541D01*
X63992597Y-33538582D01*
X63979290Y-33532288D01*
X63966664Y-33524720D01*
X63954841Y-33515952D01*
X63943934Y-33506066D01*
X63934048Y-33495159D01*
X63925280Y-33483336D01*
X63917712Y-33470710D01*
X63911418Y-33457403D01*
X63906459Y-33443543D01*
X63902882Y-33429264D01*
X63900722Y-33414703D01*
X63900000Y-33400000D01*
X63900000Y-33100000D01*
X63900722Y-33085297D01*
X63902882Y-33070736D01*
X63906459Y-33056457D01*
X63911418Y-33042597D01*
X63917712Y-33029290D01*
X63925280Y-33016664D01*
X63934048Y-33004841D01*
X63943934Y-32993934D01*
X63954841Y-32984048D01*
X63966664Y-32975280D01*
X63979290Y-32967712D01*
X63992597Y-32961418D01*
X64006457Y-32956459D01*
X64020736Y-32952882D01*
X64035297Y-32950722D01*
X64050000Y-32950000D01*
X65300000Y-32950000D01*
X65314703Y-32950722D01*
X65314703Y-32950722D01*
G37*
D12*
X64675000Y-33250000D03*
D10*
G36*
X65314703Y-31950722D02*
G01*
X65329264Y-31952882D01*
X65343543Y-31956459D01*
X65357403Y-31961418D01*
X65370710Y-31967712D01*
X65383336Y-31975280D01*
X65395159Y-31984048D01*
X65406066Y-31993934D01*
X65415952Y-32004841D01*
X65424720Y-32016664D01*
X65432288Y-32029290D01*
X65438582Y-32042597D01*
X65443541Y-32056457D01*
X65447118Y-32070736D01*
X65449278Y-32085297D01*
X65450000Y-32100000D01*
X65450000Y-32400000D01*
X65449278Y-32414703D01*
X65447118Y-32429264D01*
X65443541Y-32443543D01*
X65438582Y-32457403D01*
X65432288Y-32470710D01*
X65424720Y-32483336D01*
X65415952Y-32495159D01*
X65406066Y-32506066D01*
X65395159Y-32515952D01*
X65383336Y-32524720D01*
X65370710Y-32532288D01*
X65357403Y-32538582D01*
X65343543Y-32543541D01*
X65329264Y-32547118D01*
X65314703Y-32549278D01*
X65300000Y-32550000D01*
X64050000Y-32550000D01*
X64035297Y-32549278D01*
X64020736Y-32547118D01*
X64006457Y-32543541D01*
X63992597Y-32538582D01*
X63979290Y-32532288D01*
X63966664Y-32524720D01*
X63954841Y-32515952D01*
X63943934Y-32506066D01*
X63934048Y-32495159D01*
X63925280Y-32483336D01*
X63917712Y-32470710D01*
X63911418Y-32457403D01*
X63906459Y-32443543D01*
X63902882Y-32429264D01*
X63900722Y-32414703D01*
X63900000Y-32400000D01*
X63900000Y-32100000D01*
X63900722Y-32085297D01*
X63902882Y-32070736D01*
X63906459Y-32056457D01*
X63911418Y-32042597D01*
X63917712Y-32029290D01*
X63925280Y-32016664D01*
X63934048Y-32004841D01*
X63943934Y-31993934D01*
X63954841Y-31984048D01*
X63966664Y-31975280D01*
X63979290Y-31967712D01*
X63992597Y-31961418D01*
X64006457Y-31956459D01*
X64020736Y-31952882D01*
X64035297Y-31950722D01*
X64050000Y-31950000D01*
X65300000Y-31950000D01*
X65314703Y-31950722D01*
X65314703Y-31950722D01*
G37*
D12*
X64675000Y-32250000D03*
D10*
G36*
X65314703Y-30950722D02*
G01*
X65329264Y-30952882D01*
X65343543Y-30956459D01*
X65357403Y-30961418D01*
X65370710Y-30967712D01*
X65383336Y-30975280D01*
X65395159Y-30984048D01*
X65406066Y-30993934D01*
X65415952Y-31004841D01*
X65424720Y-31016664D01*
X65432288Y-31029290D01*
X65438582Y-31042597D01*
X65443541Y-31056457D01*
X65447118Y-31070736D01*
X65449278Y-31085297D01*
X65450000Y-31100000D01*
X65450000Y-31400000D01*
X65449278Y-31414703D01*
X65447118Y-31429264D01*
X65443541Y-31443543D01*
X65438582Y-31457403D01*
X65432288Y-31470710D01*
X65424720Y-31483336D01*
X65415952Y-31495159D01*
X65406066Y-31506066D01*
X65395159Y-31515952D01*
X65383336Y-31524720D01*
X65370710Y-31532288D01*
X65357403Y-31538582D01*
X65343543Y-31543541D01*
X65329264Y-31547118D01*
X65314703Y-31549278D01*
X65300000Y-31550000D01*
X64050000Y-31550000D01*
X64035297Y-31549278D01*
X64020736Y-31547118D01*
X64006457Y-31543541D01*
X63992597Y-31538582D01*
X63979290Y-31532288D01*
X63966664Y-31524720D01*
X63954841Y-31515952D01*
X63943934Y-31506066D01*
X63934048Y-31495159D01*
X63925280Y-31483336D01*
X63917712Y-31470710D01*
X63911418Y-31457403D01*
X63906459Y-31443543D01*
X63902882Y-31429264D01*
X63900722Y-31414703D01*
X63900000Y-31400000D01*
X63900000Y-31100000D01*
X63900722Y-31085297D01*
X63902882Y-31070736D01*
X63906459Y-31056457D01*
X63911418Y-31042597D01*
X63917712Y-31029290D01*
X63925280Y-31016664D01*
X63934048Y-31004841D01*
X63943934Y-30993934D01*
X63954841Y-30984048D01*
X63966664Y-30975280D01*
X63979290Y-30967712D01*
X63992597Y-30961418D01*
X64006457Y-30956459D01*
X64020736Y-30952882D01*
X64035297Y-30950722D01*
X64050000Y-30950000D01*
X65300000Y-30950000D01*
X65314703Y-30950722D01*
X65314703Y-30950722D01*
G37*
D12*
X64675000Y-31250000D03*
D10*
G36*
X65314703Y-29950722D02*
G01*
X65329264Y-29952882D01*
X65343543Y-29956459D01*
X65357403Y-29961418D01*
X65370710Y-29967712D01*
X65383336Y-29975280D01*
X65395159Y-29984048D01*
X65406066Y-29993934D01*
X65415952Y-30004841D01*
X65424720Y-30016664D01*
X65432288Y-30029290D01*
X65438582Y-30042597D01*
X65443541Y-30056457D01*
X65447118Y-30070736D01*
X65449278Y-30085297D01*
X65450000Y-30100000D01*
X65450000Y-30400000D01*
X65449278Y-30414703D01*
X65447118Y-30429264D01*
X65443541Y-30443543D01*
X65438582Y-30457403D01*
X65432288Y-30470710D01*
X65424720Y-30483336D01*
X65415952Y-30495159D01*
X65406066Y-30506066D01*
X65395159Y-30515952D01*
X65383336Y-30524720D01*
X65370710Y-30532288D01*
X65357403Y-30538582D01*
X65343543Y-30543541D01*
X65329264Y-30547118D01*
X65314703Y-30549278D01*
X65300000Y-30550000D01*
X64050000Y-30550000D01*
X64035297Y-30549278D01*
X64020736Y-30547118D01*
X64006457Y-30543541D01*
X63992597Y-30538582D01*
X63979290Y-30532288D01*
X63966664Y-30524720D01*
X63954841Y-30515952D01*
X63943934Y-30506066D01*
X63934048Y-30495159D01*
X63925280Y-30483336D01*
X63917712Y-30470710D01*
X63911418Y-30457403D01*
X63906459Y-30443543D01*
X63902882Y-30429264D01*
X63900722Y-30414703D01*
X63900000Y-30400000D01*
X63900000Y-30100000D01*
X63900722Y-30085297D01*
X63902882Y-30070736D01*
X63906459Y-30056457D01*
X63911418Y-30042597D01*
X63917712Y-30029290D01*
X63925280Y-30016664D01*
X63934048Y-30004841D01*
X63943934Y-29993934D01*
X63954841Y-29984048D01*
X63966664Y-29975280D01*
X63979290Y-29967712D01*
X63992597Y-29961418D01*
X64006457Y-29956459D01*
X64020736Y-29952882D01*
X64035297Y-29950722D01*
X64050000Y-29950000D01*
X65300000Y-29950000D01*
X65314703Y-29950722D01*
X65314703Y-29950722D01*
G37*
D12*
X64675000Y-30250000D03*
D13*
X24765000Y-17145000D03*
X18415000Y-19685000D03*
D10*
G36*
X232763142Y-44677174D02*
G01*
X232786803Y-44680684D01*
X232810007Y-44686496D01*
X232832529Y-44694554D01*
X232854153Y-44704782D01*
X232874670Y-44717079D01*
X232893883Y-44731329D01*
X232911607Y-44747393D01*
X232927671Y-44765117D01*
X232941921Y-44784330D01*
X232954218Y-44804847D01*
X232964446Y-44826471D01*
X232972504Y-44848993D01*
X232978316Y-44872197D01*
X232981826Y-44895858D01*
X232983000Y-44919750D01*
X232983000Y-45407250D01*
X232981826Y-45431142D01*
X232978316Y-45454803D01*
X232972504Y-45478007D01*
X232964446Y-45500529D01*
X232954218Y-45522153D01*
X232941921Y-45542670D01*
X232927671Y-45561883D01*
X232911607Y-45579607D01*
X232893883Y-45595671D01*
X232874670Y-45609921D01*
X232854153Y-45622218D01*
X232832529Y-45632446D01*
X232810007Y-45640504D01*
X232786803Y-45646316D01*
X232763142Y-45649826D01*
X232739250Y-45651000D01*
X231826750Y-45651000D01*
X231802858Y-45649826D01*
X231779197Y-45646316D01*
X231755993Y-45640504D01*
X231733471Y-45632446D01*
X231711847Y-45622218D01*
X231691330Y-45609921D01*
X231672117Y-45595671D01*
X231654393Y-45579607D01*
X231638329Y-45561883D01*
X231624079Y-45542670D01*
X231611782Y-45522153D01*
X231601554Y-45500529D01*
X231593496Y-45478007D01*
X231587684Y-45454803D01*
X231584174Y-45431142D01*
X231583000Y-45407250D01*
X231583000Y-44919750D01*
X231584174Y-44895858D01*
X231587684Y-44872197D01*
X231593496Y-44848993D01*
X231601554Y-44826471D01*
X231611782Y-44804847D01*
X231624079Y-44784330D01*
X231638329Y-44765117D01*
X231654393Y-44747393D01*
X231672117Y-44731329D01*
X231691330Y-44717079D01*
X231711847Y-44704782D01*
X231733471Y-44694554D01*
X231755993Y-44686496D01*
X231779197Y-44680684D01*
X231802858Y-44677174D01*
X231826750Y-44676000D01*
X232739250Y-44676000D01*
X232763142Y-44677174D01*
X232763142Y-44677174D01*
G37*
D14*
X232283000Y-45163500D03*
D10*
G36*
X232763142Y-46552174D02*
G01*
X232786803Y-46555684D01*
X232810007Y-46561496D01*
X232832529Y-46569554D01*
X232854153Y-46579782D01*
X232874670Y-46592079D01*
X232893883Y-46606329D01*
X232911607Y-46622393D01*
X232927671Y-46640117D01*
X232941921Y-46659330D01*
X232954218Y-46679847D01*
X232964446Y-46701471D01*
X232972504Y-46723993D01*
X232978316Y-46747197D01*
X232981826Y-46770858D01*
X232983000Y-46794750D01*
X232983000Y-47282250D01*
X232981826Y-47306142D01*
X232978316Y-47329803D01*
X232972504Y-47353007D01*
X232964446Y-47375529D01*
X232954218Y-47397153D01*
X232941921Y-47417670D01*
X232927671Y-47436883D01*
X232911607Y-47454607D01*
X232893883Y-47470671D01*
X232874670Y-47484921D01*
X232854153Y-47497218D01*
X232832529Y-47507446D01*
X232810007Y-47515504D01*
X232786803Y-47521316D01*
X232763142Y-47524826D01*
X232739250Y-47526000D01*
X231826750Y-47526000D01*
X231802858Y-47524826D01*
X231779197Y-47521316D01*
X231755993Y-47515504D01*
X231733471Y-47507446D01*
X231711847Y-47497218D01*
X231691330Y-47484921D01*
X231672117Y-47470671D01*
X231654393Y-47454607D01*
X231638329Y-47436883D01*
X231624079Y-47417670D01*
X231611782Y-47397153D01*
X231601554Y-47375529D01*
X231593496Y-47353007D01*
X231587684Y-47329803D01*
X231584174Y-47306142D01*
X231583000Y-47282250D01*
X231583000Y-46794750D01*
X231584174Y-46770858D01*
X231587684Y-46747197D01*
X231593496Y-46723993D01*
X231601554Y-46701471D01*
X231611782Y-46679847D01*
X231624079Y-46659330D01*
X231638329Y-46640117D01*
X231654393Y-46622393D01*
X231672117Y-46606329D01*
X231691330Y-46592079D01*
X231711847Y-46579782D01*
X231733471Y-46569554D01*
X231755993Y-46561496D01*
X231779197Y-46555684D01*
X231802858Y-46552174D01*
X231826750Y-46551000D01*
X232739250Y-46551000D01*
X232763142Y-46552174D01*
X232763142Y-46552174D01*
G37*
D14*
X232283000Y-47038500D03*
D10*
G36*
X224979142Y-61531174D02*
G01*
X225002803Y-61534684D01*
X225026007Y-61540496D01*
X225048529Y-61548554D01*
X225070153Y-61558782D01*
X225090670Y-61571079D01*
X225109883Y-61585329D01*
X225127607Y-61601393D01*
X225143671Y-61619117D01*
X225157921Y-61638330D01*
X225170218Y-61658847D01*
X225180446Y-61680471D01*
X225188504Y-61702993D01*
X225194316Y-61726197D01*
X225197826Y-61749858D01*
X225199000Y-61773750D01*
X225199000Y-62686250D01*
X225197826Y-62710142D01*
X225194316Y-62733803D01*
X225188504Y-62757007D01*
X225180446Y-62779529D01*
X225170218Y-62801153D01*
X225157921Y-62821670D01*
X225143671Y-62840883D01*
X225127607Y-62858607D01*
X225109883Y-62874671D01*
X225090670Y-62888921D01*
X225070153Y-62901218D01*
X225048529Y-62911446D01*
X225026007Y-62919504D01*
X225002803Y-62925316D01*
X224979142Y-62928826D01*
X224955250Y-62930000D01*
X224467750Y-62930000D01*
X224443858Y-62928826D01*
X224420197Y-62925316D01*
X224396993Y-62919504D01*
X224374471Y-62911446D01*
X224352847Y-62901218D01*
X224332330Y-62888921D01*
X224313117Y-62874671D01*
X224295393Y-62858607D01*
X224279329Y-62840883D01*
X224265079Y-62821670D01*
X224252782Y-62801153D01*
X224242554Y-62779529D01*
X224234496Y-62757007D01*
X224228684Y-62733803D01*
X224225174Y-62710142D01*
X224224000Y-62686250D01*
X224224000Y-61773750D01*
X224225174Y-61749858D01*
X224228684Y-61726197D01*
X224234496Y-61702993D01*
X224242554Y-61680471D01*
X224252782Y-61658847D01*
X224265079Y-61638330D01*
X224279329Y-61619117D01*
X224295393Y-61601393D01*
X224313117Y-61585329D01*
X224332330Y-61571079D01*
X224352847Y-61558782D01*
X224374471Y-61548554D01*
X224396993Y-61540496D01*
X224420197Y-61534684D01*
X224443858Y-61531174D01*
X224467750Y-61530000D01*
X224955250Y-61530000D01*
X224979142Y-61531174D01*
X224979142Y-61531174D01*
G37*
D14*
X224711500Y-62230000D03*
D10*
G36*
X223104142Y-61531174D02*
G01*
X223127803Y-61534684D01*
X223151007Y-61540496D01*
X223173529Y-61548554D01*
X223195153Y-61558782D01*
X223215670Y-61571079D01*
X223234883Y-61585329D01*
X223252607Y-61601393D01*
X223268671Y-61619117D01*
X223282921Y-61638330D01*
X223295218Y-61658847D01*
X223305446Y-61680471D01*
X223313504Y-61702993D01*
X223319316Y-61726197D01*
X223322826Y-61749858D01*
X223324000Y-61773750D01*
X223324000Y-62686250D01*
X223322826Y-62710142D01*
X223319316Y-62733803D01*
X223313504Y-62757007D01*
X223305446Y-62779529D01*
X223295218Y-62801153D01*
X223282921Y-62821670D01*
X223268671Y-62840883D01*
X223252607Y-62858607D01*
X223234883Y-62874671D01*
X223215670Y-62888921D01*
X223195153Y-62901218D01*
X223173529Y-62911446D01*
X223151007Y-62919504D01*
X223127803Y-62925316D01*
X223104142Y-62928826D01*
X223080250Y-62930000D01*
X222592750Y-62930000D01*
X222568858Y-62928826D01*
X222545197Y-62925316D01*
X222521993Y-62919504D01*
X222499471Y-62911446D01*
X222477847Y-62901218D01*
X222457330Y-62888921D01*
X222438117Y-62874671D01*
X222420393Y-62858607D01*
X222404329Y-62840883D01*
X222390079Y-62821670D01*
X222377782Y-62801153D01*
X222367554Y-62779529D01*
X222359496Y-62757007D01*
X222353684Y-62733803D01*
X222350174Y-62710142D01*
X222349000Y-62686250D01*
X222349000Y-61773750D01*
X222350174Y-61749858D01*
X222353684Y-61726197D01*
X222359496Y-61702993D01*
X222367554Y-61680471D01*
X222377782Y-61658847D01*
X222390079Y-61638330D01*
X222404329Y-61619117D01*
X222420393Y-61601393D01*
X222438117Y-61585329D01*
X222457330Y-61571079D01*
X222477847Y-61558782D01*
X222499471Y-61548554D01*
X222521993Y-61540496D01*
X222545197Y-61534684D01*
X222568858Y-61531174D01*
X222592750Y-61530000D01*
X223080250Y-61530000D01*
X223104142Y-61531174D01*
X223104142Y-61531174D01*
G37*
D14*
X222836500Y-62230000D03*
D10*
G36*
X232255142Y-54138674D02*
G01*
X232278803Y-54142184D01*
X232302007Y-54147996D01*
X232324529Y-54156054D01*
X232346153Y-54166282D01*
X232366670Y-54178579D01*
X232385883Y-54192829D01*
X232403607Y-54208893D01*
X232419671Y-54226617D01*
X232433921Y-54245830D01*
X232446218Y-54266347D01*
X232456446Y-54287971D01*
X232464504Y-54310493D01*
X232470316Y-54333697D01*
X232473826Y-54357358D01*
X232475000Y-54381250D01*
X232475000Y-54868750D01*
X232473826Y-54892642D01*
X232470316Y-54916303D01*
X232464504Y-54939507D01*
X232456446Y-54962029D01*
X232446218Y-54983653D01*
X232433921Y-55004170D01*
X232419671Y-55023383D01*
X232403607Y-55041107D01*
X232385883Y-55057171D01*
X232366670Y-55071421D01*
X232346153Y-55083718D01*
X232324529Y-55093946D01*
X232302007Y-55102004D01*
X232278803Y-55107816D01*
X232255142Y-55111326D01*
X232231250Y-55112500D01*
X231318750Y-55112500D01*
X231294858Y-55111326D01*
X231271197Y-55107816D01*
X231247993Y-55102004D01*
X231225471Y-55093946D01*
X231203847Y-55083718D01*
X231183330Y-55071421D01*
X231164117Y-55057171D01*
X231146393Y-55041107D01*
X231130329Y-55023383D01*
X231116079Y-55004170D01*
X231103782Y-54983653D01*
X231093554Y-54962029D01*
X231085496Y-54939507D01*
X231079684Y-54916303D01*
X231076174Y-54892642D01*
X231075000Y-54868750D01*
X231075000Y-54381250D01*
X231076174Y-54357358D01*
X231079684Y-54333697D01*
X231085496Y-54310493D01*
X231093554Y-54287971D01*
X231103782Y-54266347D01*
X231116079Y-54245830D01*
X231130329Y-54226617D01*
X231146393Y-54208893D01*
X231164117Y-54192829D01*
X231183330Y-54178579D01*
X231203847Y-54166282D01*
X231225471Y-54156054D01*
X231247993Y-54147996D01*
X231271197Y-54142184D01*
X231294858Y-54138674D01*
X231318750Y-54137500D01*
X232231250Y-54137500D01*
X232255142Y-54138674D01*
X232255142Y-54138674D01*
G37*
D14*
X231775000Y-54625000D03*
D10*
G36*
X232255142Y-56013674D02*
G01*
X232278803Y-56017184D01*
X232302007Y-56022996D01*
X232324529Y-56031054D01*
X232346153Y-56041282D01*
X232366670Y-56053579D01*
X232385883Y-56067829D01*
X232403607Y-56083893D01*
X232419671Y-56101617D01*
X232433921Y-56120830D01*
X232446218Y-56141347D01*
X232456446Y-56162971D01*
X232464504Y-56185493D01*
X232470316Y-56208697D01*
X232473826Y-56232358D01*
X232475000Y-56256250D01*
X232475000Y-56743750D01*
X232473826Y-56767642D01*
X232470316Y-56791303D01*
X232464504Y-56814507D01*
X232456446Y-56837029D01*
X232446218Y-56858653D01*
X232433921Y-56879170D01*
X232419671Y-56898383D01*
X232403607Y-56916107D01*
X232385883Y-56932171D01*
X232366670Y-56946421D01*
X232346153Y-56958718D01*
X232324529Y-56968946D01*
X232302007Y-56977004D01*
X232278803Y-56982816D01*
X232255142Y-56986326D01*
X232231250Y-56987500D01*
X231318750Y-56987500D01*
X231294858Y-56986326D01*
X231271197Y-56982816D01*
X231247993Y-56977004D01*
X231225471Y-56968946D01*
X231203847Y-56958718D01*
X231183330Y-56946421D01*
X231164117Y-56932171D01*
X231146393Y-56916107D01*
X231130329Y-56898383D01*
X231116079Y-56879170D01*
X231103782Y-56858653D01*
X231093554Y-56837029D01*
X231085496Y-56814507D01*
X231079684Y-56791303D01*
X231076174Y-56767642D01*
X231075000Y-56743750D01*
X231075000Y-56256250D01*
X231076174Y-56232358D01*
X231079684Y-56208697D01*
X231085496Y-56185493D01*
X231093554Y-56162971D01*
X231103782Y-56141347D01*
X231116079Y-56120830D01*
X231130329Y-56101617D01*
X231146393Y-56083893D01*
X231164117Y-56067829D01*
X231183330Y-56053579D01*
X231203847Y-56041282D01*
X231225471Y-56031054D01*
X231247993Y-56022996D01*
X231271197Y-56017184D01*
X231294858Y-56013674D01*
X231318750Y-56012500D01*
X232231250Y-56012500D01*
X232255142Y-56013674D01*
X232255142Y-56013674D01*
G37*
D14*
X231775000Y-56500000D03*
D10*
G36*
X217967642Y-27438674D02*
G01*
X217991303Y-27442184D01*
X218014507Y-27447996D01*
X218037029Y-27456054D01*
X218058653Y-27466282D01*
X218079170Y-27478579D01*
X218098383Y-27492829D01*
X218116107Y-27508893D01*
X218132171Y-27526617D01*
X218146421Y-27545830D01*
X218158718Y-27566347D01*
X218168946Y-27587971D01*
X218177004Y-27610493D01*
X218182816Y-27633697D01*
X218186326Y-27657358D01*
X218187500Y-27681250D01*
X218187500Y-28168750D01*
X218186326Y-28192642D01*
X218182816Y-28216303D01*
X218177004Y-28239507D01*
X218168946Y-28262029D01*
X218158718Y-28283653D01*
X218146421Y-28304170D01*
X218132171Y-28323383D01*
X218116107Y-28341107D01*
X218098383Y-28357171D01*
X218079170Y-28371421D01*
X218058653Y-28383718D01*
X218037029Y-28393946D01*
X218014507Y-28402004D01*
X217991303Y-28407816D01*
X217967642Y-28411326D01*
X217943750Y-28412500D01*
X217031250Y-28412500D01*
X217007358Y-28411326D01*
X216983697Y-28407816D01*
X216960493Y-28402004D01*
X216937971Y-28393946D01*
X216916347Y-28383718D01*
X216895830Y-28371421D01*
X216876617Y-28357171D01*
X216858893Y-28341107D01*
X216842829Y-28323383D01*
X216828579Y-28304170D01*
X216816282Y-28283653D01*
X216806054Y-28262029D01*
X216797996Y-28239507D01*
X216792184Y-28216303D01*
X216788674Y-28192642D01*
X216787500Y-28168750D01*
X216787500Y-27681250D01*
X216788674Y-27657358D01*
X216792184Y-27633697D01*
X216797996Y-27610493D01*
X216806054Y-27587971D01*
X216816282Y-27566347D01*
X216828579Y-27545830D01*
X216842829Y-27526617D01*
X216858893Y-27508893D01*
X216876617Y-27492829D01*
X216895830Y-27478579D01*
X216916347Y-27466282D01*
X216937971Y-27456054D01*
X216960493Y-27447996D01*
X216983697Y-27442184D01*
X217007358Y-27438674D01*
X217031250Y-27437500D01*
X217943750Y-27437500D01*
X217967642Y-27438674D01*
X217967642Y-27438674D01*
G37*
D14*
X217487500Y-27925000D03*
D10*
G36*
X217967642Y-25563674D02*
G01*
X217991303Y-25567184D01*
X218014507Y-25572996D01*
X218037029Y-25581054D01*
X218058653Y-25591282D01*
X218079170Y-25603579D01*
X218098383Y-25617829D01*
X218116107Y-25633893D01*
X218132171Y-25651617D01*
X218146421Y-25670830D01*
X218158718Y-25691347D01*
X218168946Y-25712971D01*
X218177004Y-25735493D01*
X218182816Y-25758697D01*
X218186326Y-25782358D01*
X218187500Y-25806250D01*
X218187500Y-26293750D01*
X218186326Y-26317642D01*
X218182816Y-26341303D01*
X218177004Y-26364507D01*
X218168946Y-26387029D01*
X218158718Y-26408653D01*
X218146421Y-26429170D01*
X218132171Y-26448383D01*
X218116107Y-26466107D01*
X218098383Y-26482171D01*
X218079170Y-26496421D01*
X218058653Y-26508718D01*
X218037029Y-26518946D01*
X218014507Y-26527004D01*
X217991303Y-26532816D01*
X217967642Y-26536326D01*
X217943750Y-26537500D01*
X217031250Y-26537500D01*
X217007358Y-26536326D01*
X216983697Y-26532816D01*
X216960493Y-26527004D01*
X216937971Y-26518946D01*
X216916347Y-26508718D01*
X216895830Y-26496421D01*
X216876617Y-26482171D01*
X216858893Y-26466107D01*
X216842829Y-26448383D01*
X216828579Y-26429170D01*
X216816282Y-26408653D01*
X216806054Y-26387029D01*
X216797996Y-26364507D01*
X216792184Y-26341303D01*
X216788674Y-26317642D01*
X216787500Y-26293750D01*
X216787500Y-25806250D01*
X216788674Y-25782358D01*
X216792184Y-25758697D01*
X216797996Y-25735493D01*
X216806054Y-25712971D01*
X216816282Y-25691347D01*
X216828579Y-25670830D01*
X216842829Y-25651617D01*
X216858893Y-25633893D01*
X216876617Y-25617829D01*
X216895830Y-25603579D01*
X216916347Y-25591282D01*
X216937971Y-25581054D01*
X216960493Y-25572996D01*
X216983697Y-25567184D01*
X217007358Y-25563674D01*
X217031250Y-25562500D01*
X217943750Y-25562500D01*
X217967642Y-25563674D01*
X217967642Y-25563674D01*
G37*
D14*
X217487500Y-26050000D03*
D15*
X219107250Y-55547500D03*
X219907250Y-55547500D03*
X220707250Y-55547500D03*
X221507250Y-55547500D03*
X222307250Y-55547500D03*
X223107250Y-55547500D03*
X223907250Y-55547500D03*
X224707250Y-55547500D03*
X225507250Y-55547500D03*
X226307250Y-55547500D03*
X227107250Y-55547500D03*
D16*
X228807250Y-53847500D03*
X228807250Y-53047500D03*
X228807250Y-52247500D03*
X228807250Y-51447500D03*
X228807250Y-50647500D03*
X228807250Y-49847500D03*
X228807250Y-49047500D03*
X228807250Y-48247500D03*
X228807250Y-47447500D03*
X228807250Y-46647500D03*
X228807250Y-45847500D03*
D15*
X227107250Y-44147500D03*
X226307250Y-44147500D03*
X225507250Y-44147500D03*
X224707250Y-44147500D03*
X223907250Y-44147500D03*
X223107250Y-44147500D03*
X222307250Y-44147500D03*
X221507250Y-44147500D03*
X220707250Y-44147500D03*
X219907250Y-44147500D03*
X219107250Y-44147500D03*
D16*
X217407250Y-45847500D03*
X217407250Y-46647500D03*
X217407250Y-47447500D03*
X217407250Y-48247500D03*
X217407250Y-49047500D03*
X217407250Y-49847500D03*
X217407250Y-50647500D03*
X217407250Y-51447500D03*
X217407250Y-52247500D03*
X217407250Y-53047500D03*
X217407250Y-53847500D03*
D13*
X215265000Y-36195000D03*
X208915000Y-38735000D03*
X234315000Y-36195000D03*
X227965000Y-38735000D03*
X81915000Y-36195000D03*
X75565000Y-38735000D03*
D10*
G36*
X214475142Y-30326174D02*
G01*
X214498803Y-30329684D01*
X214522007Y-30335496D01*
X214544529Y-30343554D01*
X214566153Y-30353782D01*
X214586670Y-30366079D01*
X214605883Y-30380329D01*
X214623607Y-30396393D01*
X214639671Y-30414117D01*
X214653921Y-30433330D01*
X214666218Y-30453847D01*
X214676446Y-30475471D01*
X214684504Y-30497993D01*
X214690316Y-30521197D01*
X214693826Y-30544858D01*
X214695000Y-30568750D01*
X214695000Y-31056250D01*
X214693826Y-31080142D01*
X214690316Y-31103803D01*
X214684504Y-31127007D01*
X214676446Y-31149529D01*
X214666218Y-31171153D01*
X214653921Y-31191670D01*
X214639671Y-31210883D01*
X214623607Y-31228607D01*
X214605883Y-31244671D01*
X214586670Y-31258921D01*
X214566153Y-31271218D01*
X214544529Y-31281446D01*
X214522007Y-31289504D01*
X214498803Y-31295316D01*
X214475142Y-31298826D01*
X214451250Y-31300000D01*
X213538750Y-31300000D01*
X213514858Y-31298826D01*
X213491197Y-31295316D01*
X213467993Y-31289504D01*
X213445471Y-31281446D01*
X213423847Y-31271218D01*
X213403330Y-31258921D01*
X213384117Y-31244671D01*
X213366393Y-31228607D01*
X213350329Y-31210883D01*
X213336079Y-31191670D01*
X213323782Y-31171153D01*
X213313554Y-31149529D01*
X213305496Y-31127007D01*
X213299684Y-31103803D01*
X213296174Y-31080142D01*
X213295000Y-31056250D01*
X213295000Y-30568750D01*
X213296174Y-30544858D01*
X213299684Y-30521197D01*
X213305496Y-30497993D01*
X213313554Y-30475471D01*
X213323782Y-30453847D01*
X213336079Y-30433330D01*
X213350329Y-30414117D01*
X213366393Y-30396393D01*
X213384117Y-30380329D01*
X213403330Y-30366079D01*
X213423847Y-30353782D01*
X213445471Y-30343554D01*
X213467993Y-30335496D01*
X213491197Y-30329684D01*
X213514858Y-30326174D01*
X213538750Y-30325000D01*
X214451250Y-30325000D01*
X214475142Y-30326174D01*
X214475142Y-30326174D01*
G37*
D14*
X213995000Y-30812500D03*
D10*
G36*
X214475142Y-32201174D02*
G01*
X214498803Y-32204684D01*
X214522007Y-32210496D01*
X214544529Y-32218554D01*
X214566153Y-32228782D01*
X214586670Y-32241079D01*
X214605883Y-32255329D01*
X214623607Y-32271393D01*
X214639671Y-32289117D01*
X214653921Y-32308330D01*
X214666218Y-32328847D01*
X214676446Y-32350471D01*
X214684504Y-32372993D01*
X214690316Y-32396197D01*
X214693826Y-32419858D01*
X214695000Y-32443750D01*
X214695000Y-32931250D01*
X214693826Y-32955142D01*
X214690316Y-32978803D01*
X214684504Y-33002007D01*
X214676446Y-33024529D01*
X214666218Y-33046153D01*
X214653921Y-33066670D01*
X214639671Y-33085883D01*
X214623607Y-33103607D01*
X214605883Y-33119671D01*
X214586670Y-33133921D01*
X214566153Y-33146218D01*
X214544529Y-33156446D01*
X214522007Y-33164504D01*
X214498803Y-33170316D01*
X214475142Y-33173826D01*
X214451250Y-33175000D01*
X213538750Y-33175000D01*
X213514858Y-33173826D01*
X213491197Y-33170316D01*
X213467993Y-33164504D01*
X213445471Y-33156446D01*
X213423847Y-33146218D01*
X213403330Y-33133921D01*
X213384117Y-33119671D01*
X213366393Y-33103607D01*
X213350329Y-33085883D01*
X213336079Y-33066670D01*
X213323782Y-33046153D01*
X213313554Y-33024529D01*
X213305496Y-33002007D01*
X213299684Y-32978803D01*
X213296174Y-32955142D01*
X213295000Y-32931250D01*
X213295000Y-32443750D01*
X213296174Y-32419858D01*
X213299684Y-32396197D01*
X213305496Y-32372993D01*
X213313554Y-32350471D01*
X213323782Y-32328847D01*
X213336079Y-32308330D01*
X213350329Y-32289117D01*
X213366393Y-32271393D01*
X213384117Y-32255329D01*
X213403330Y-32241079D01*
X213423847Y-32228782D01*
X213445471Y-32218554D01*
X213467993Y-32210496D01*
X213491197Y-32204684D01*
X213514858Y-32201174D01*
X213538750Y-32200000D01*
X214451250Y-32200000D01*
X214475142Y-32201174D01*
X214475142Y-32201174D01*
G37*
D14*
X213995000Y-32687500D03*
D10*
G36*
X82165892Y-29400174D02*
G01*
X82189553Y-29403684D01*
X82212757Y-29409496D01*
X82235279Y-29417554D01*
X82256903Y-29427782D01*
X82277420Y-29440079D01*
X82296633Y-29454329D01*
X82314357Y-29470393D01*
X82330421Y-29488117D01*
X82344671Y-29507330D01*
X82356968Y-29527847D01*
X82367196Y-29549471D01*
X82375254Y-29571993D01*
X82381066Y-29595197D01*
X82384576Y-29618858D01*
X82385750Y-29642750D01*
X82385750Y-30555250D01*
X82384576Y-30579142D01*
X82381066Y-30602803D01*
X82375254Y-30626007D01*
X82367196Y-30648529D01*
X82356968Y-30670153D01*
X82344671Y-30690670D01*
X82330421Y-30709883D01*
X82314357Y-30727607D01*
X82296633Y-30743671D01*
X82277420Y-30757921D01*
X82256903Y-30770218D01*
X82235279Y-30780446D01*
X82212757Y-30788504D01*
X82189553Y-30794316D01*
X82165892Y-30797826D01*
X82142000Y-30799000D01*
X81654500Y-30799000D01*
X81630608Y-30797826D01*
X81606947Y-30794316D01*
X81583743Y-30788504D01*
X81561221Y-30780446D01*
X81539597Y-30770218D01*
X81519080Y-30757921D01*
X81499867Y-30743671D01*
X81482143Y-30727607D01*
X81466079Y-30709883D01*
X81451829Y-30690670D01*
X81439532Y-30670153D01*
X81429304Y-30648529D01*
X81421246Y-30626007D01*
X81415434Y-30602803D01*
X81411924Y-30579142D01*
X81410750Y-30555250D01*
X81410750Y-29642750D01*
X81411924Y-29618858D01*
X81415434Y-29595197D01*
X81421246Y-29571993D01*
X81429304Y-29549471D01*
X81439532Y-29527847D01*
X81451829Y-29507330D01*
X81466079Y-29488117D01*
X81482143Y-29470393D01*
X81499867Y-29454329D01*
X81519080Y-29440079D01*
X81539597Y-29427782D01*
X81561221Y-29417554D01*
X81583743Y-29409496D01*
X81606947Y-29403684D01*
X81630608Y-29400174D01*
X81654500Y-29399000D01*
X82142000Y-29399000D01*
X82165892Y-29400174D01*
X82165892Y-29400174D01*
G37*
D14*
X81898250Y-30099000D03*
D10*
G36*
X84040892Y-29400174D02*
G01*
X84064553Y-29403684D01*
X84087757Y-29409496D01*
X84110279Y-29417554D01*
X84131903Y-29427782D01*
X84152420Y-29440079D01*
X84171633Y-29454329D01*
X84189357Y-29470393D01*
X84205421Y-29488117D01*
X84219671Y-29507330D01*
X84231968Y-29527847D01*
X84242196Y-29549471D01*
X84250254Y-29571993D01*
X84256066Y-29595197D01*
X84259576Y-29618858D01*
X84260750Y-29642750D01*
X84260750Y-30555250D01*
X84259576Y-30579142D01*
X84256066Y-30602803D01*
X84250254Y-30626007D01*
X84242196Y-30648529D01*
X84231968Y-30670153D01*
X84219671Y-30690670D01*
X84205421Y-30709883D01*
X84189357Y-30727607D01*
X84171633Y-30743671D01*
X84152420Y-30757921D01*
X84131903Y-30770218D01*
X84110279Y-30780446D01*
X84087757Y-30788504D01*
X84064553Y-30794316D01*
X84040892Y-30797826D01*
X84017000Y-30799000D01*
X83529500Y-30799000D01*
X83505608Y-30797826D01*
X83481947Y-30794316D01*
X83458743Y-30788504D01*
X83436221Y-30780446D01*
X83414597Y-30770218D01*
X83394080Y-30757921D01*
X83374867Y-30743671D01*
X83357143Y-30727607D01*
X83341079Y-30709883D01*
X83326829Y-30690670D01*
X83314532Y-30670153D01*
X83304304Y-30648529D01*
X83296246Y-30626007D01*
X83290434Y-30602803D01*
X83286924Y-30579142D01*
X83285750Y-30555250D01*
X83285750Y-29642750D01*
X83286924Y-29618858D01*
X83290434Y-29595197D01*
X83296246Y-29571993D01*
X83304304Y-29549471D01*
X83314532Y-29527847D01*
X83326829Y-29507330D01*
X83341079Y-29488117D01*
X83357143Y-29470393D01*
X83374867Y-29454329D01*
X83394080Y-29440079D01*
X83414597Y-29427782D01*
X83436221Y-29417554D01*
X83458743Y-29409496D01*
X83481947Y-29403684D01*
X83505608Y-29400174D01*
X83529500Y-29399000D01*
X84017000Y-29399000D01*
X84040892Y-29400174D01*
X84040892Y-29400174D01*
G37*
D14*
X83773250Y-30099000D03*
D13*
X81915000Y-17145000D03*
X75565000Y-19685000D03*
X81915000Y-74295000D03*
X75565000Y-76835000D03*
X129540000Y-93345000D03*
X123190000Y-95885000D03*
D17*
X223191250Y-26137500D03*
X220991250Y-26137500D03*
X220991250Y-27837500D03*
X223191250Y-27837500D03*
D18*
X200100000Y-29900000D03*
X206300000Y-33600000D03*
X200100000Y-33600000D03*
X206300000Y-29900000D03*
D10*
G36*
X82165892Y-32702174D02*
G01*
X82189553Y-32705684D01*
X82212757Y-32711496D01*
X82235279Y-32719554D01*
X82256903Y-32729782D01*
X82277420Y-32742079D01*
X82296633Y-32756329D01*
X82314357Y-32772393D01*
X82330421Y-32790117D01*
X82344671Y-32809330D01*
X82356968Y-32829847D01*
X82367196Y-32851471D01*
X82375254Y-32873993D01*
X82381066Y-32897197D01*
X82384576Y-32920858D01*
X82385750Y-32944750D01*
X82385750Y-33857250D01*
X82384576Y-33881142D01*
X82381066Y-33904803D01*
X82375254Y-33928007D01*
X82367196Y-33950529D01*
X82356968Y-33972153D01*
X82344671Y-33992670D01*
X82330421Y-34011883D01*
X82314357Y-34029607D01*
X82296633Y-34045671D01*
X82277420Y-34059921D01*
X82256903Y-34072218D01*
X82235279Y-34082446D01*
X82212757Y-34090504D01*
X82189553Y-34096316D01*
X82165892Y-34099826D01*
X82142000Y-34101000D01*
X81654500Y-34101000D01*
X81630608Y-34099826D01*
X81606947Y-34096316D01*
X81583743Y-34090504D01*
X81561221Y-34082446D01*
X81539597Y-34072218D01*
X81519080Y-34059921D01*
X81499867Y-34045671D01*
X81482143Y-34029607D01*
X81466079Y-34011883D01*
X81451829Y-33992670D01*
X81439532Y-33972153D01*
X81429304Y-33950529D01*
X81421246Y-33928007D01*
X81415434Y-33904803D01*
X81411924Y-33881142D01*
X81410750Y-33857250D01*
X81410750Y-32944750D01*
X81411924Y-32920858D01*
X81415434Y-32897197D01*
X81421246Y-32873993D01*
X81429304Y-32851471D01*
X81439532Y-32829847D01*
X81451829Y-32809330D01*
X81466079Y-32790117D01*
X81482143Y-32772393D01*
X81499867Y-32756329D01*
X81519080Y-32742079D01*
X81539597Y-32729782D01*
X81561221Y-32719554D01*
X81583743Y-32711496D01*
X81606947Y-32705684D01*
X81630608Y-32702174D01*
X81654500Y-32701000D01*
X82142000Y-32701000D01*
X82165892Y-32702174D01*
X82165892Y-32702174D01*
G37*
D14*
X81898250Y-33401000D03*
D10*
G36*
X84040892Y-32702174D02*
G01*
X84064553Y-32705684D01*
X84087757Y-32711496D01*
X84110279Y-32719554D01*
X84131903Y-32729782D01*
X84152420Y-32742079D01*
X84171633Y-32756329D01*
X84189357Y-32772393D01*
X84205421Y-32790117D01*
X84219671Y-32809330D01*
X84231968Y-32829847D01*
X84242196Y-32851471D01*
X84250254Y-32873993D01*
X84256066Y-32897197D01*
X84259576Y-32920858D01*
X84260750Y-32944750D01*
X84260750Y-33857250D01*
X84259576Y-33881142D01*
X84256066Y-33904803D01*
X84250254Y-33928007D01*
X84242196Y-33950529D01*
X84231968Y-33972153D01*
X84219671Y-33992670D01*
X84205421Y-34011883D01*
X84189357Y-34029607D01*
X84171633Y-34045671D01*
X84152420Y-34059921D01*
X84131903Y-34072218D01*
X84110279Y-34082446D01*
X84087757Y-34090504D01*
X84064553Y-34096316D01*
X84040892Y-34099826D01*
X84017000Y-34101000D01*
X83529500Y-34101000D01*
X83505608Y-34099826D01*
X83481947Y-34096316D01*
X83458743Y-34090504D01*
X83436221Y-34082446D01*
X83414597Y-34072218D01*
X83394080Y-34059921D01*
X83374867Y-34045671D01*
X83357143Y-34029607D01*
X83341079Y-34011883D01*
X83326829Y-33992670D01*
X83314532Y-33972153D01*
X83304304Y-33950529D01*
X83296246Y-33928007D01*
X83290434Y-33904803D01*
X83286924Y-33881142D01*
X83285750Y-33857250D01*
X83285750Y-32944750D01*
X83286924Y-32920858D01*
X83290434Y-32897197D01*
X83296246Y-32873993D01*
X83304304Y-32851471D01*
X83314532Y-32829847D01*
X83326829Y-32809330D01*
X83341079Y-32790117D01*
X83357143Y-32772393D01*
X83374867Y-32756329D01*
X83394080Y-32742079D01*
X83414597Y-32729782D01*
X83436221Y-32719554D01*
X83458743Y-32711496D01*
X83481947Y-32705684D01*
X83505608Y-32702174D01*
X83529500Y-32701000D01*
X84017000Y-32701000D01*
X84040892Y-32702174D01*
X84040892Y-32702174D01*
G37*
D14*
X83773250Y-33401000D03*
D13*
X291465000Y-93345000D03*
X285115000Y-95885000D03*
X272415000Y-93345000D03*
X266065000Y-95885000D03*
X253365000Y-93345000D03*
X247015000Y-95885000D03*
X234315000Y-93345000D03*
X227965000Y-95885000D03*
X215265000Y-93345000D03*
X208915000Y-95885000D03*
X196215000Y-93345000D03*
X189865000Y-95885000D03*
X177165000Y-93345000D03*
X170815000Y-95885000D03*
X158115000Y-93345000D03*
X151765000Y-95885000D03*
X100965000Y-93345000D03*
X94615000Y-95885000D03*
X81915000Y-93345000D03*
X75565000Y-95885000D03*
X62865000Y-93345000D03*
X56515000Y-95885000D03*
X43815000Y-93345000D03*
X37465000Y-95885000D03*
X24765000Y-93345000D03*
X18415000Y-95885000D03*
X291465000Y-74295000D03*
X285115000Y-76835000D03*
X272415000Y-74295000D03*
X266065000Y-76835000D03*
X243840000Y-74295000D03*
X237490000Y-76835000D03*
X215265000Y-74295000D03*
X208915000Y-76835000D03*
X196215000Y-74295000D03*
X189865000Y-76835000D03*
X177165000Y-74295000D03*
X170815000Y-76835000D03*
X158115000Y-74295000D03*
X151765000Y-76835000D03*
X139065000Y-74295000D03*
X132715000Y-76835000D03*
X120015000Y-74295000D03*
X113665000Y-76835000D03*
X100965000Y-74295000D03*
X94615000Y-76835000D03*
X62865000Y-74295000D03*
X56515000Y-76835000D03*
X43815000Y-74295000D03*
X37465000Y-76835000D03*
X24765000Y-74295000D03*
X18415000Y-76835000D03*
X291465000Y-55245000D03*
X285115000Y-57785000D03*
X262890000Y-55245000D03*
X256540000Y-57785000D03*
X234315000Y-55245000D03*
X227965000Y-57785000D03*
X215265000Y-55245000D03*
X208915000Y-57785000D03*
X196215000Y-55245000D03*
X189865000Y-57785000D03*
X177165000Y-55245000D03*
X170815000Y-57785000D03*
X158115000Y-55245000D03*
X151765000Y-57785000D03*
X139065000Y-55245000D03*
X132715000Y-57785000D03*
X120015000Y-55245000D03*
X113665000Y-57785000D03*
X100965000Y-55245000D03*
X94615000Y-57785000D03*
X81915000Y-55245000D03*
X75565000Y-57785000D03*
X62865000Y-55245000D03*
X56515000Y-57785000D03*
X43815000Y-55245000D03*
X37465000Y-57785000D03*
X24765000Y-55245000D03*
X18415000Y-57785000D03*
X291465000Y-36195000D03*
X285115000Y-38735000D03*
X272415000Y-36195000D03*
X266065000Y-38735000D03*
X253365000Y-36195000D03*
X247015000Y-38735000D03*
X196215000Y-36195000D03*
X189865000Y-38735000D03*
X177165000Y-36195000D03*
X170815000Y-38735000D03*
X158115000Y-36195000D03*
X151765000Y-38735000D03*
X139065000Y-36195000D03*
X132715000Y-38735000D03*
X120015000Y-36195000D03*
X113665000Y-38735000D03*
X100965000Y-36195000D03*
X94615000Y-38735000D03*
X62865000Y-36195000D03*
X56515000Y-38735000D03*
X43815000Y-36195000D03*
X37465000Y-38735000D03*
X24765000Y-36195000D03*
X18415000Y-38735000D03*
X291465000Y-17145000D03*
X285115000Y-19685000D03*
X272415000Y-17145000D03*
X266065000Y-19685000D03*
X253365000Y-17145000D03*
X247015000Y-19685000D03*
X234315000Y-17145000D03*
X227965000Y-19685000D03*
X215265000Y-17145000D03*
X208915000Y-19685000D03*
X196215000Y-17145000D03*
X189865000Y-19685000D03*
X177165000Y-17145000D03*
X170815000Y-19685000D03*
X158115000Y-17145000D03*
X151765000Y-19685000D03*
X139065000Y-17145000D03*
X132715000Y-19685000D03*
X120015000Y-17145000D03*
X113665000Y-19685000D03*
X100965000Y-17145000D03*
X94615000Y-19685000D03*
X62865000Y-17145000D03*
X56515000Y-19685000D03*
X43815000Y-17145000D03*
X37465000Y-19685000D03*
D10*
G36*
X79523504Y-51958204D02*
G01*
X79547773Y-51961804D01*
X79571571Y-51967765D01*
X79594671Y-51976030D01*
X79616849Y-51986520D01*
X79637893Y-51999133D01*
X79657598Y-52013747D01*
X79675777Y-52030223D01*
X79692253Y-52048402D01*
X79706867Y-52068107D01*
X79719480Y-52089151D01*
X79729970Y-52111329D01*
X79738235Y-52134429D01*
X79744196Y-52158227D01*
X79747796Y-52182496D01*
X79749000Y-52207000D01*
X79749000Y-53457000D01*
X79747796Y-53481504D01*
X79744196Y-53505773D01*
X79738235Y-53529571D01*
X79729970Y-53552671D01*
X79719480Y-53574849D01*
X79706867Y-53595893D01*
X79692253Y-53615598D01*
X79675777Y-53633777D01*
X79657598Y-53650253D01*
X79637893Y-53664867D01*
X79616849Y-53677480D01*
X79594671Y-53687970D01*
X79571571Y-53696235D01*
X79547773Y-53702196D01*
X79523504Y-53705796D01*
X79499000Y-53707000D01*
X78749000Y-53707000D01*
X78724496Y-53705796D01*
X78700227Y-53702196D01*
X78676429Y-53696235D01*
X78653329Y-53687970D01*
X78631151Y-53677480D01*
X78610107Y-53664867D01*
X78590402Y-53650253D01*
X78572223Y-53633777D01*
X78555747Y-53615598D01*
X78541133Y-53595893D01*
X78528520Y-53574849D01*
X78518030Y-53552671D01*
X78509765Y-53529571D01*
X78503804Y-53505773D01*
X78500204Y-53481504D01*
X78499000Y-53457000D01*
X78499000Y-52207000D01*
X78500204Y-52182496D01*
X78503804Y-52158227D01*
X78509765Y-52134429D01*
X78518030Y-52111329D01*
X78528520Y-52089151D01*
X78541133Y-52068107D01*
X78555747Y-52048402D01*
X78572223Y-52030223D01*
X78590402Y-52013747D01*
X78610107Y-51999133D01*
X78631151Y-51986520D01*
X78653329Y-51976030D01*
X78676429Y-51967765D01*
X78700227Y-51961804D01*
X78724496Y-51958204D01*
X78749000Y-51957000D01*
X79499000Y-51957000D01*
X79523504Y-51958204D01*
X79523504Y-51958204D01*
G37*
D19*
X79124000Y-52832000D03*
D10*
G36*
X76723504Y-51958204D02*
G01*
X76747773Y-51961804D01*
X76771571Y-51967765D01*
X76794671Y-51976030D01*
X76816849Y-51986520D01*
X76837893Y-51999133D01*
X76857598Y-52013747D01*
X76875777Y-52030223D01*
X76892253Y-52048402D01*
X76906867Y-52068107D01*
X76919480Y-52089151D01*
X76929970Y-52111329D01*
X76938235Y-52134429D01*
X76944196Y-52158227D01*
X76947796Y-52182496D01*
X76949000Y-52207000D01*
X76949000Y-53457000D01*
X76947796Y-53481504D01*
X76944196Y-53505773D01*
X76938235Y-53529571D01*
X76929970Y-53552671D01*
X76919480Y-53574849D01*
X76906867Y-53595893D01*
X76892253Y-53615598D01*
X76875777Y-53633777D01*
X76857598Y-53650253D01*
X76837893Y-53664867D01*
X76816849Y-53677480D01*
X76794671Y-53687970D01*
X76771571Y-53696235D01*
X76747773Y-53702196D01*
X76723504Y-53705796D01*
X76699000Y-53707000D01*
X75949000Y-53707000D01*
X75924496Y-53705796D01*
X75900227Y-53702196D01*
X75876429Y-53696235D01*
X75853329Y-53687970D01*
X75831151Y-53677480D01*
X75810107Y-53664867D01*
X75790402Y-53650253D01*
X75772223Y-53633777D01*
X75755747Y-53615598D01*
X75741133Y-53595893D01*
X75728520Y-53574849D01*
X75718030Y-53552671D01*
X75709765Y-53529571D01*
X75703804Y-53505773D01*
X75700204Y-53481504D01*
X75699000Y-53457000D01*
X75699000Y-52207000D01*
X75700204Y-52182496D01*
X75703804Y-52158227D01*
X75709765Y-52134429D01*
X75718030Y-52111329D01*
X75728520Y-52089151D01*
X75741133Y-52068107D01*
X75755747Y-52048402D01*
X75772223Y-52030223D01*
X75790402Y-52013747D01*
X75810107Y-51999133D01*
X75831151Y-51986520D01*
X75853329Y-51976030D01*
X75876429Y-51967765D01*
X75900227Y-51961804D01*
X75924496Y-51958204D01*
X75949000Y-51957000D01*
X76699000Y-51957000D01*
X76723504Y-51958204D01*
X76723504Y-51958204D01*
G37*
D19*
X76324000Y-52832000D03*
D20*
X296862500Y-96775000D03*
X296862500Y-100075000D03*
X277812500Y-96775000D03*
X277812500Y-100075000D03*
X258762500Y-96775000D03*
X258762500Y-100075000D03*
X239712500Y-96775000D03*
X239712500Y-100075000D03*
X220662500Y-96775000D03*
X220662500Y-100075000D03*
X201612500Y-96775000D03*
X201612500Y-100075000D03*
X182562500Y-96775000D03*
X182562500Y-100075000D03*
X163512500Y-96775000D03*
X163512500Y-100075000D03*
X134937500Y-96775000D03*
X134937500Y-100075000D03*
X106362500Y-96775000D03*
X106362500Y-100075000D03*
X87312500Y-96775000D03*
X87312500Y-100075000D03*
X68262500Y-96775000D03*
X68262500Y-100075000D03*
X49212500Y-96775000D03*
X49212500Y-100075000D03*
X30162500Y-96775000D03*
X30162500Y-100075000D03*
X296862500Y-77725000D03*
X296862500Y-81025000D03*
X277812500Y-77725000D03*
X277812500Y-81025000D03*
X249237500Y-77725000D03*
X249237500Y-81025000D03*
X220662500Y-77725000D03*
X220662500Y-81025000D03*
X201612500Y-77725000D03*
X201612500Y-81025000D03*
X182562500Y-77725000D03*
X182562500Y-81025000D03*
X163512500Y-77725000D03*
X163512500Y-81025000D03*
X144462500Y-77725000D03*
X144462500Y-81025000D03*
X125412500Y-77725000D03*
X125412500Y-81025000D03*
X106362500Y-77725000D03*
X106362500Y-81025000D03*
X86518750Y-77725000D03*
X86518750Y-81025000D03*
X68262500Y-77725000D03*
X68262500Y-81025000D03*
X49212500Y-77725000D03*
X49212500Y-81025000D03*
X30162500Y-77725000D03*
X30162500Y-81025000D03*
X296862500Y-58675000D03*
X296862500Y-61975000D03*
X268287500Y-58675000D03*
X268287500Y-61975000D03*
X239712500Y-58675000D03*
X239712500Y-61975000D03*
X203993750Y-58675000D03*
X203993750Y-61975000D03*
X201612500Y-58675000D03*
X201612500Y-61975000D03*
X182562500Y-58675000D03*
X182562500Y-61975000D03*
X163512500Y-58675000D03*
X163512500Y-61975000D03*
X144462500Y-58675000D03*
X144462500Y-61975000D03*
X125412500Y-58675000D03*
X125412500Y-61975000D03*
X106362500Y-58675000D03*
X106362500Y-61975000D03*
X87312500Y-58675000D03*
X87312500Y-61975000D03*
X68262500Y-58675000D03*
X68262500Y-61975000D03*
X49212500Y-58675000D03*
X49212500Y-61975000D03*
X30162500Y-58675000D03*
X30162500Y-61975000D03*
X296862500Y-39625000D03*
X296862500Y-42925000D03*
X277812500Y-39625000D03*
X277812500Y-42925000D03*
X258762500Y-39625000D03*
X258762500Y-42925000D03*
X239712500Y-39625000D03*
X239712500Y-42925000D03*
X203993750Y-39625000D03*
X203993750Y-42925000D03*
X201612500Y-39625000D03*
X201612500Y-42925000D03*
X182562500Y-39625000D03*
X182562500Y-42925000D03*
X163512500Y-39625000D03*
X163512500Y-42925000D03*
X144462500Y-39625000D03*
X144462500Y-42925000D03*
X125412500Y-39625000D03*
X125412500Y-42925000D03*
X106362500Y-39625000D03*
X106362500Y-42925000D03*
X87312500Y-39625000D03*
X87312500Y-42925000D03*
X68262500Y-39625000D03*
X68262500Y-42925000D03*
X49212500Y-39625000D03*
X49212500Y-42925000D03*
X30162500Y-39625000D03*
X30162500Y-42925000D03*
X296862500Y-20575000D03*
X296862500Y-23875000D03*
X277812500Y-20575000D03*
X277812500Y-23875000D03*
X258762500Y-20575000D03*
X258762500Y-23875000D03*
X239712500Y-20575000D03*
X239712500Y-23875000D03*
X203993750Y-20575000D03*
X203993750Y-23875000D03*
X201612500Y-20575000D03*
X201612500Y-23875000D03*
X182562500Y-20575000D03*
X182562500Y-23875000D03*
X163512500Y-20575000D03*
X163512500Y-23875000D03*
X144462500Y-20575000D03*
X144462500Y-23875000D03*
X125412500Y-20575000D03*
X125412500Y-23875000D03*
X106362500Y-20575000D03*
X106362500Y-23875000D03*
X87312500Y-20575000D03*
X87312500Y-23875000D03*
X68262500Y-20575000D03*
X68262500Y-23875000D03*
X49212500Y-20575000D03*
X49212500Y-23875000D03*
X30162500Y-20575000D03*
X30162500Y-23875000D03*
D10*
G36*
X211808142Y-55219924D02*
G01*
X211831803Y-55223434D01*
X211855007Y-55229246D01*
X211877529Y-55237304D01*
X211899153Y-55247532D01*
X211919670Y-55259829D01*
X211938883Y-55274079D01*
X211956607Y-55290143D01*
X211972671Y-55307867D01*
X211986921Y-55327080D01*
X211999218Y-55347597D01*
X212009446Y-55369221D01*
X212017504Y-55391743D01*
X212023316Y-55414947D01*
X212026826Y-55438608D01*
X212028000Y-55462500D01*
X212028000Y-55950000D01*
X212026826Y-55973892D01*
X212023316Y-55997553D01*
X212017504Y-56020757D01*
X212009446Y-56043279D01*
X211999218Y-56064903D01*
X211986921Y-56085420D01*
X211972671Y-56104633D01*
X211956607Y-56122357D01*
X211938883Y-56138421D01*
X211919670Y-56152671D01*
X211899153Y-56164968D01*
X211877529Y-56175196D01*
X211855007Y-56183254D01*
X211831803Y-56189066D01*
X211808142Y-56192576D01*
X211784250Y-56193750D01*
X210871750Y-56193750D01*
X210847858Y-56192576D01*
X210824197Y-56189066D01*
X210800993Y-56183254D01*
X210778471Y-56175196D01*
X210756847Y-56164968D01*
X210736330Y-56152671D01*
X210717117Y-56138421D01*
X210699393Y-56122357D01*
X210683329Y-56104633D01*
X210669079Y-56085420D01*
X210656782Y-56064903D01*
X210646554Y-56043279D01*
X210638496Y-56020757D01*
X210632684Y-55997553D01*
X210629174Y-55973892D01*
X210628000Y-55950000D01*
X210628000Y-55462500D01*
X210629174Y-55438608D01*
X210632684Y-55414947D01*
X210638496Y-55391743D01*
X210646554Y-55369221D01*
X210656782Y-55347597D01*
X210669079Y-55327080D01*
X210683329Y-55307867D01*
X210699393Y-55290143D01*
X210717117Y-55274079D01*
X210736330Y-55259829D01*
X210756847Y-55247532D01*
X210778471Y-55237304D01*
X210800993Y-55229246D01*
X210824197Y-55223434D01*
X210847858Y-55219924D01*
X210871750Y-55218750D01*
X211784250Y-55218750D01*
X211808142Y-55219924D01*
X211808142Y-55219924D01*
G37*
D14*
X211328000Y-55706250D03*
D10*
G36*
X211808142Y-53344924D02*
G01*
X211831803Y-53348434D01*
X211855007Y-53354246D01*
X211877529Y-53362304D01*
X211899153Y-53372532D01*
X211919670Y-53384829D01*
X211938883Y-53399079D01*
X211956607Y-53415143D01*
X211972671Y-53432867D01*
X211986921Y-53452080D01*
X211999218Y-53472597D01*
X212009446Y-53494221D01*
X212017504Y-53516743D01*
X212023316Y-53539947D01*
X212026826Y-53563608D01*
X212028000Y-53587500D01*
X212028000Y-54075000D01*
X212026826Y-54098892D01*
X212023316Y-54122553D01*
X212017504Y-54145757D01*
X212009446Y-54168279D01*
X211999218Y-54189903D01*
X211986921Y-54210420D01*
X211972671Y-54229633D01*
X211956607Y-54247357D01*
X211938883Y-54263421D01*
X211919670Y-54277671D01*
X211899153Y-54289968D01*
X211877529Y-54300196D01*
X211855007Y-54308254D01*
X211831803Y-54314066D01*
X211808142Y-54317576D01*
X211784250Y-54318750D01*
X210871750Y-54318750D01*
X210847858Y-54317576D01*
X210824197Y-54314066D01*
X210800993Y-54308254D01*
X210778471Y-54300196D01*
X210756847Y-54289968D01*
X210736330Y-54277671D01*
X210717117Y-54263421D01*
X210699393Y-54247357D01*
X210683329Y-54229633D01*
X210669079Y-54210420D01*
X210656782Y-54189903D01*
X210646554Y-54168279D01*
X210638496Y-54145757D01*
X210632684Y-54122553D01*
X210629174Y-54098892D01*
X210628000Y-54075000D01*
X210628000Y-53587500D01*
X210629174Y-53563608D01*
X210632684Y-53539947D01*
X210638496Y-53516743D01*
X210646554Y-53494221D01*
X210656782Y-53472597D01*
X210669079Y-53452080D01*
X210683329Y-53432867D01*
X210699393Y-53415143D01*
X210717117Y-53399079D01*
X210736330Y-53384829D01*
X210756847Y-53372532D01*
X210778471Y-53362304D01*
X210800993Y-53354246D01*
X210824197Y-53348434D01*
X210847858Y-53344924D01*
X210871750Y-53343750D01*
X211784250Y-53343750D01*
X211808142Y-53344924D01*
X211808142Y-53344924D01*
G37*
D14*
X211328000Y-53831250D03*
D10*
G36*
X212055142Y-48513674D02*
G01*
X212078803Y-48517184D01*
X212102007Y-48522996D01*
X212124529Y-48531054D01*
X212146153Y-48541282D01*
X212166670Y-48553579D01*
X212185883Y-48567829D01*
X212203607Y-48583893D01*
X212219671Y-48601617D01*
X212233921Y-48620830D01*
X212246218Y-48641347D01*
X212256446Y-48662971D01*
X212264504Y-48685493D01*
X212270316Y-48708697D01*
X212273826Y-48732358D01*
X212275000Y-48756250D01*
X212275000Y-49668750D01*
X212273826Y-49692642D01*
X212270316Y-49716303D01*
X212264504Y-49739507D01*
X212256446Y-49762029D01*
X212246218Y-49783653D01*
X212233921Y-49804170D01*
X212219671Y-49823383D01*
X212203607Y-49841107D01*
X212185883Y-49857171D01*
X212166670Y-49871421D01*
X212146153Y-49883718D01*
X212124529Y-49893946D01*
X212102007Y-49902004D01*
X212078803Y-49907816D01*
X212055142Y-49911326D01*
X212031250Y-49912500D01*
X211543750Y-49912500D01*
X211519858Y-49911326D01*
X211496197Y-49907816D01*
X211472993Y-49902004D01*
X211450471Y-49893946D01*
X211428847Y-49883718D01*
X211408330Y-49871421D01*
X211389117Y-49857171D01*
X211371393Y-49841107D01*
X211355329Y-49823383D01*
X211341079Y-49804170D01*
X211328782Y-49783653D01*
X211318554Y-49762029D01*
X211310496Y-49739507D01*
X211304684Y-49716303D01*
X211301174Y-49692642D01*
X211300000Y-49668750D01*
X211300000Y-48756250D01*
X211301174Y-48732358D01*
X211304684Y-48708697D01*
X211310496Y-48685493D01*
X211318554Y-48662971D01*
X211328782Y-48641347D01*
X211341079Y-48620830D01*
X211355329Y-48601617D01*
X211371393Y-48583893D01*
X211389117Y-48567829D01*
X211408330Y-48553579D01*
X211428847Y-48541282D01*
X211450471Y-48531054D01*
X211472993Y-48522996D01*
X211496197Y-48517184D01*
X211519858Y-48513674D01*
X211543750Y-48512500D01*
X212031250Y-48512500D01*
X212055142Y-48513674D01*
X212055142Y-48513674D01*
G37*
D14*
X211787500Y-49212500D03*
D10*
G36*
X213930142Y-48513674D02*
G01*
X213953803Y-48517184D01*
X213977007Y-48522996D01*
X213999529Y-48531054D01*
X214021153Y-48541282D01*
X214041670Y-48553579D01*
X214060883Y-48567829D01*
X214078607Y-48583893D01*
X214094671Y-48601617D01*
X214108921Y-48620830D01*
X214121218Y-48641347D01*
X214131446Y-48662971D01*
X214139504Y-48685493D01*
X214145316Y-48708697D01*
X214148826Y-48732358D01*
X214150000Y-48756250D01*
X214150000Y-49668750D01*
X214148826Y-49692642D01*
X214145316Y-49716303D01*
X214139504Y-49739507D01*
X214131446Y-49762029D01*
X214121218Y-49783653D01*
X214108921Y-49804170D01*
X214094671Y-49823383D01*
X214078607Y-49841107D01*
X214060883Y-49857171D01*
X214041670Y-49871421D01*
X214021153Y-49883718D01*
X213999529Y-49893946D01*
X213977007Y-49902004D01*
X213953803Y-49907816D01*
X213930142Y-49911326D01*
X213906250Y-49912500D01*
X213418750Y-49912500D01*
X213394858Y-49911326D01*
X213371197Y-49907816D01*
X213347993Y-49902004D01*
X213325471Y-49893946D01*
X213303847Y-49883718D01*
X213283330Y-49871421D01*
X213264117Y-49857171D01*
X213246393Y-49841107D01*
X213230329Y-49823383D01*
X213216079Y-49804170D01*
X213203782Y-49783653D01*
X213193554Y-49762029D01*
X213185496Y-49739507D01*
X213179684Y-49716303D01*
X213176174Y-49692642D01*
X213175000Y-49668750D01*
X213175000Y-48756250D01*
X213176174Y-48732358D01*
X213179684Y-48708697D01*
X213185496Y-48685493D01*
X213193554Y-48662971D01*
X213203782Y-48641347D01*
X213216079Y-48620830D01*
X213230329Y-48601617D01*
X213246393Y-48583893D01*
X213264117Y-48567829D01*
X213283330Y-48553579D01*
X213303847Y-48541282D01*
X213325471Y-48531054D01*
X213347993Y-48522996D01*
X213371197Y-48517184D01*
X213394858Y-48513674D01*
X213418750Y-48512500D01*
X213906250Y-48512500D01*
X213930142Y-48513674D01*
X213930142Y-48513674D01*
G37*
D14*
X213662500Y-49212500D03*
D10*
G36*
X227492642Y-25563674D02*
G01*
X227516303Y-25567184D01*
X227539507Y-25572996D01*
X227562029Y-25581054D01*
X227583653Y-25591282D01*
X227604170Y-25603579D01*
X227623383Y-25617829D01*
X227641107Y-25633893D01*
X227657171Y-25651617D01*
X227671421Y-25670830D01*
X227683718Y-25691347D01*
X227693946Y-25712971D01*
X227702004Y-25735493D01*
X227707816Y-25758697D01*
X227711326Y-25782358D01*
X227712500Y-25806250D01*
X227712500Y-26293750D01*
X227711326Y-26317642D01*
X227707816Y-26341303D01*
X227702004Y-26364507D01*
X227693946Y-26387029D01*
X227683718Y-26408653D01*
X227671421Y-26429170D01*
X227657171Y-26448383D01*
X227641107Y-26466107D01*
X227623383Y-26482171D01*
X227604170Y-26496421D01*
X227583653Y-26508718D01*
X227562029Y-26518946D01*
X227539507Y-26527004D01*
X227516303Y-26532816D01*
X227492642Y-26536326D01*
X227468750Y-26537500D01*
X226556250Y-26537500D01*
X226532358Y-26536326D01*
X226508697Y-26532816D01*
X226485493Y-26527004D01*
X226462971Y-26518946D01*
X226441347Y-26508718D01*
X226420830Y-26496421D01*
X226401617Y-26482171D01*
X226383893Y-26466107D01*
X226367829Y-26448383D01*
X226353579Y-26429170D01*
X226341282Y-26408653D01*
X226331054Y-26387029D01*
X226322996Y-26364507D01*
X226317184Y-26341303D01*
X226313674Y-26317642D01*
X226312500Y-26293750D01*
X226312500Y-25806250D01*
X226313674Y-25782358D01*
X226317184Y-25758697D01*
X226322996Y-25735493D01*
X226331054Y-25712971D01*
X226341282Y-25691347D01*
X226353579Y-25670830D01*
X226367829Y-25651617D01*
X226383893Y-25633893D01*
X226401617Y-25617829D01*
X226420830Y-25603579D01*
X226441347Y-25591282D01*
X226462971Y-25581054D01*
X226485493Y-25572996D01*
X226508697Y-25567184D01*
X226532358Y-25563674D01*
X226556250Y-25562500D01*
X227468750Y-25562500D01*
X227492642Y-25563674D01*
X227492642Y-25563674D01*
G37*
D14*
X227012500Y-26050000D03*
D10*
G36*
X227492642Y-27438674D02*
G01*
X227516303Y-27442184D01*
X227539507Y-27447996D01*
X227562029Y-27456054D01*
X227583653Y-27466282D01*
X227604170Y-27478579D01*
X227623383Y-27492829D01*
X227641107Y-27508893D01*
X227657171Y-27526617D01*
X227671421Y-27545830D01*
X227683718Y-27566347D01*
X227693946Y-27587971D01*
X227702004Y-27610493D01*
X227707816Y-27633697D01*
X227711326Y-27657358D01*
X227712500Y-27681250D01*
X227712500Y-28168750D01*
X227711326Y-28192642D01*
X227707816Y-28216303D01*
X227702004Y-28239507D01*
X227693946Y-28262029D01*
X227683718Y-28283653D01*
X227671421Y-28304170D01*
X227657171Y-28323383D01*
X227641107Y-28341107D01*
X227623383Y-28357171D01*
X227604170Y-28371421D01*
X227583653Y-28383718D01*
X227562029Y-28393946D01*
X227539507Y-28402004D01*
X227516303Y-28407816D01*
X227492642Y-28411326D01*
X227468750Y-28412500D01*
X226556250Y-28412500D01*
X226532358Y-28411326D01*
X226508697Y-28407816D01*
X226485493Y-28402004D01*
X226462971Y-28393946D01*
X226441347Y-28383718D01*
X226420830Y-28371421D01*
X226401617Y-28357171D01*
X226383893Y-28341107D01*
X226367829Y-28323383D01*
X226353579Y-28304170D01*
X226341282Y-28283653D01*
X226331054Y-28262029D01*
X226322996Y-28239507D01*
X226317184Y-28216303D01*
X226313674Y-28192642D01*
X226312500Y-28168750D01*
X226312500Y-27681250D01*
X226313674Y-27657358D01*
X226317184Y-27633697D01*
X226322996Y-27610493D01*
X226331054Y-27587971D01*
X226341282Y-27566347D01*
X226353579Y-27545830D01*
X226367829Y-27526617D01*
X226383893Y-27508893D01*
X226401617Y-27492829D01*
X226420830Y-27478579D01*
X226441347Y-27466282D01*
X226462971Y-27456054D01*
X226485493Y-27447996D01*
X226508697Y-27442184D01*
X226532358Y-27438674D01*
X226556250Y-27437500D01*
X227468750Y-27437500D01*
X227492642Y-27438674D01*
X227492642Y-27438674D01*
G37*
D14*
X227012500Y-27925000D03*
D10*
G36*
X217967642Y-30357924D02*
G01*
X217991303Y-30361434D01*
X218014507Y-30367246D01*
X218037029Y-30375304D01*
X218058653Y-30385532D01*
X218079170Y-30397829D01*
X218098383Y-30412079D01*
X218116107Y-30428143D01*
X218132171Y-30445867D01*
X218146421Y-30465080D01*
X218158718Y-30485597D01*
X218168946Y-30507221D01*
X218177004Y-30529743D01*
X218182816Y-30552947D01*
X218186326Y-30576608D01*
X218187500Y-30600500D01*
X218187500Y-31088000D01*
X218186326Y-31111892D01*
X218182816Y-31135553D01*
X218177004Y-31158757D01*
X218168946Y-31181279D01*
X218158718Y-31202903D01*
X218146421Y-31223420D01*
X218132171Y-31242633D01*
X218116107Y-31260357D01*
X218098383Y-31276421D01*
X218079170Y-31290671D01*
X218058653Y-31302968D01*
X218037029Y-31313196D01*
X218014507Y-31321254D01*
X217991303Y-31327066D01*
X217967642Y-31330576D01*
X217943750Y-31331750D01*
X217031250Y-31331750D01*
X217007358Y-31330576D01*
X216983697Y-31327066D01*
X216960493Y-31321254D01*
X216937971Y-31313196D01*
X216916347Y-31302968D01*
X216895830Y-31290671D01*
X216876617Y-31276421D01*
X216858893Y-31260357D01*
X216842829Y-31242633D01*
X216828579Y-31223420D01*
X216816282Y-31202903D01*
X216806054Y-31181279D01*
X216797996Y-31158757D01*
X216792184Y-31135553D01*
X216788674Y-31111892D01*
X216787500Y-31088000D01*
X216787500Y-30600500D01*
X216788674Y-30576608D01*
X216792184Y-30552947D01*
X216797996Y-30529743D01*
X216806054Y-30507221D01*
X216816282Y-30485597D01*
X216828579Y-30465080D01*
X216842829Y-30445867D01*
X216858893Y-30428143D01*
X216876617Y-30412079D01*
X216895830Y-30397829D01*
X216916347Y-30385532D01*
X216937971Y-30375304D01*
X216960493Y-30367246D01*
X216983697Y-30361434D01*
X217007358Y-30357924D01*
X217031250Y-30356750D01*
X217943750Y-30356750D01*
X217967642Y-30357924D01*
X217967642Y-30357924D01*
G37*
D14*
X217487500Y-30844250D03*
D10*
G36*
X217967642Y-32232924D02*
G01*
X217991303Y-32236434D01*
X218014507Y-32242246D01*
X218037029Y-32250304D01*
X218058653Y-32260532D01*
X218079170Y-32272829D01*
X218098383Y-32287079D01*
X218116107Y-32303143D01*
X218132171Y-32320867D01*
X218146421Y-32340080D01*
X218158718Y-32360597D01*
X218168946Y-32382221D01*
X218177004Y-32404743D01*
X218182816Y-32427947D01*
X218186326Y-32451608D01*
X218187500Y-32475500D01*
X218187500Y-32963000D01*
X218186326Y-32986892D01*
X218182816Y-33010553D01*
X218177004Y-33033757D01*
X218168946Y-33056279D01*
X218158718Y-33077903D01*
X218146421Y-33098420D01*
X218132171Y-33117633D01*
X218116107Y-33135357D01*
X218098383Y-33151421D01*
X218079170Y-33165671D01*
X218058653Y-33177968D01*
X218037029Y-33188196D01*
X218014507Y-33196254D01*
X217991303Y-33202066D01*
X217967642Y-33205576D01*
X217943750Y-33206750D01*
X217031250Y-33206750D01*
X217007358Y-33205576D01*
X216983697Y-33202066D01*
X216960493Y-33196254D01*
X216937971Y-33188196D01*
X216916347Y-33177968D01*
X216895830Y-33165671D01*
X216876617Y-33151421D01*
X216858893Y-33135357D01*
X216842829Y-33117633D01*
X216828579Y-33098420D01*
X216816282Y-33077903D01*
X216806054Y-33056279D01*
X216797996Y-33033757D01*
X216792184Y-33010553D01*
X216788674Y-32986892D01*
X216787500Y-32963000D01*
X216787500Y-32475500D01*
X216788674Y-32451608D01*
X216792184Y-32427947D01*
X216797996Y-32404743D01*
X216806054Y-32382221D01*
X216816282Y-32360597D01*
X216828579Y-32340080D01*
X216842829Y-32320867D01*
X216858893Y-32303143D01*
X216876617Y-32287079D01*
X216895830Y-32272829D01*
X216916347Y-32260532D01*
X216937971Y-32250304D01*
X216960493Y-32242246D01*
X216983697Y-32236434D01*
X217007358Y-32232924D01*
X217031250Y-32231750D01*
X217943750Y-32231750D01*
X217967642Y-32232924D01*
X217967642Y-32232924D01*
G37*
D14*
X217487500Y-32719250D03*
D21*
X215773000Y-31496000D03*
X215138000Y-48006000D03*
X213271500Y-53047500D03*
X226314000Y-62230000D03*
X234188000Y-46990000D03*
X229997000Y-57023000D03*
X241300000Y-48260000D03*
X241332901Y-24543901D03*
X228854000Y-44196000D03*
X217424000Y-44196000D03*
X241300000Y-52324000D03*
X241231401Y-62643901D03*
X208407000Y-55118000D03*
X250756401Y-81693901D03*
X242443000Y-52324000D03*
X279331401Y-100743901D03*
X279331401Y-51620401D03*
X70866000Y-52832000D03*
X70866000Y-33274000D03*
X221488000Y-62775000D03*
X221488000Y-64225000D03*
X15944999Y-67506999D03*
X220487997Y-62775000D03*
X220487997Y-64225000D03*
X34994999Y-66871999D03*
X219487994Y-62775000D03*
X219456000Y-64225000D03*
X54044999Y-66351001D03*
X218487991Y-62775000D03*
X218455997Y-64225000D03*
X73094999Y-65728999D03*
X216662000Y-62775000D03*
X216662000Y-64225000D03*
X92144999Y-64966999D03*
X215661997Y-62775000D03*
X215661997Y-64225000D03*
X111194999Y-64192001D03*
X130244999Y-47313999D03*
X149294999Y-46555999D03*
X168344999Y-45830999D03*
X187394999Y-45105999D03*
X89281000Y-50927000D03*
X89154000Y-33020000D03*
X90424000Y-50927000D03*
X90043000Y-32512000D03*
D22*
X221507250Y-44147500D02*
X221507250Y-45278500D01*
X221507250Y-45278500D02*
X222076250Y-45847500D01*
X227676250Y-45847500D02*
X228807250Y-45847500D01*
X222076250Y-45847500D02*
X227676250Y-45847500D01*
X219907250Y-52016500D02*
X219907250Y-54416500D01*
X218538250Y-50647500D02*
X219907250Y-52016500D01*
X219907250Y-54416500D02*
X219907250Y-55547500D01*
X217407250Y-50647500D02*
X218538250Y-50647500D01*
X218538250Y-50647500D02*
X221507250Y-47678500D01*
X221507250Y-47678500D02*
X221507250Y-45278500D01*
X226307250Y-54416500D02*
X226307250Y-55547500D01*
X227879348Y-45847500D02*
X226307250Y-47419598D01*
X228807250Y-45847500D02*
X227879348Y-45847500D01*
X226307250Y-54063500D02*
X226307250Y-54416500D01*
X226307250Y-47419598D02*
X226307250Y-54063500D01*
X222888348Y-26137500D02*
X223191250Y-26137500D01*
D23*
X221188348Y-27837500D02*
X222888348Y-26137500D01*
D22*
X220991250Y-27837500D02*
X221188348Y-27837500D01*
X223278750Y-26050000D02*
X223191250Y-26137500D01*
X227012500Y-26050000D02*
X223278750Y-26050000D01*
X223191250Y-25156500D02*
X223191250Y-26137500D01*
X217487500Y-27925000D02*
X216687500Y-27925000D01*
X216687500Y-27925000D02*
X216154000Y-27391500D01*
X216154000Y-25273000D02*
X216535000Y-24892000D01*
X216535000Y-24892000D02*
X222926750Y-24892000D01*
X222926750Y-24892000D02*
X223191250Y-25156500D01*
X221507250Y-34864000D02*
X217487500Y-30844250D01*
X221507250Y-32532250D02*
X221507250Y-35921750D01*
X217487500Y-28512500D02*
X221507250Y-32532250D01*
X217487500Y-27925000D02*
X217487500Y-28512500D01*
X221507250Y-44147500D02*
X221507250Y-35921750D01*
X221507250Y-35921750D02*
X221507250Y-34864000D01*
X219885500Y-55569250D02*
X219907250Y-55547500D01*
X217407250Y-50647500D02*
X212191500Y-50647500D01*
X211787500Y-50243500D02*
X211787500Y-49212500D01*
X212191500Y-50647500D02*
X211787500Y-50243500D01*
X208027500Y-27241500D02*
X216154000Y-27241500D01*
X206300000Y-29900000D02*
X206300000Y-28969000D01*
X216154000Y-27391500D02*
X216154000Y-27241500D01*
X216154000Y-27241500D02*
X216154000Y-25273000D01*
X206300000Y-28969000D02*
X206931375Y-28337625D01*
X206931375Y-28337625D02*
X208027500Y-27241500D01*
X230799000Y-45847500D02*
X228807250Y-45847500D01*
X232283000Y-45163500D02*
X231483000Y-45163500D01*
X231483000Y-45163500D02*
X230799000Y-45847500D01*
X212128000Y-55706250D02*
X214206750Y-57785000D01*
X211328000Y-55706250D02*
X212128000Y-55706250D01*
X219907250Y-55547500D02*
X219907250Y-56952750D01*
X219075000Y-57785000D02*
X214206750Y-57785000D01*
X219907250Y-56952750D02*
X219075000Y-57785000D01*
X226307250Y-56462078D02*
X226307250Y-55547500D01*
X224130490Y-58638838D02*
X226307250Y-56462078D01*
X224130490Y-60136010D02*
X224130490Y-58638838D01*
X222836500Y-61430000D02*
X224130490Y-60136010D01*
X222836500Y-62230000D02*
X222836500Y-61430000D01*
X205652000Y-28321000D02*
X206300000Y-28969000D01*
X80264000Y-28321000D02*
X205652000Y-28321000D01*
X64675000Y-30250000D02*
X78335000Y-30250000D01*
X78335000Y-30250000D02*
X80264000Y-28321000D01*
X220707250Y-43016500D02*
X220707250Y-44147500D01*
X220707250Y-35139000D02*
X220707250Y-43016500D01*
X218287500Y-32719250D02*
X220707250Y-35139000D01*
X217487500Y-32719250D02*
X218287500Y-32719250D01*
X211328000Y-53831250D02*
X212487750Y-53831250D01*
X213271500Y-53047500D02*
X217407250Y-53047500D01*
X212487750Y-53831250D02*
X213271500Y-53047500D01*
X79124000Y-52832000D02*
X208915000Y-52832000D01*
X209914250Y-53831250D02*
X208915000Y-52832000D01*
X211328000Y-53831250D02*
X209914250Y-53831250D01*
X213995000Y-30812500D02*
X215089500Y-30812500D01*
X215089500Y-30812500D02*
X215773000Y-31496000D01*
X216179500Y-49047500D02*
X217407250Y-49047500D01*
X215138000Y-48006000D02*
X216179500Y-49047500D01*
X216996250Y-32719250D02*
X215773000Y-31496000D01*
X217487500Y-32719250D02*
X216996250Y-32719250D01*
X228845750Y-46609000D02*
X228807250Y-46647500D01*
X213271500Y-55537500D02*
X213271500Y-53047500D01*
X214757000Y-57023000D02*
X213271500Y-55537500D01*
X218762750Y-57023000D02*
X214757000Y-57023000D01*
X219107250Y-55547500D02*
X219107250Y-56678500D01*
X219107250Y-56678500D02*
X218762750Y-57023000D01*
X232283000Y-47038500D02*
X231315500Y-47038500D01*
X230924500Y-46647500D02*
X228807250Y-46647500D01*
X231315500Y-47038500D02*
X230924500Y-46647500D01*
X227107250Y-56475402D02*
X227107250Y-55547500D01*
X227107250Y-56483750D02*
X227107250Y-56475402D01*
X224711500Y-62230000D02*
X224711500Y-58879500D01*
X224711500Y-58879500D02*
X227107250Y-56483750D01*
X224711500Y-62230000D02*
X226314000Y-62230000D01*
X232283000Y-47038500D02*
X234139500Y-47038500D01*
X234139500Y-47038500D02*
X234188000Y-46990000D01*
X229997000Y-57023000D02*
X229997000Y-58293000D01*
X229997000Y-58293000D02*
X228473000Y-59817000D01*
X228473000Y-59817000D02*
X228473000Y-61595000D01*
X227838000Y-62230000D02*
X226314000Y-62230000D01*
X228473000Y-61595000D02*
X227838000Y-62230000D01*
D24*
X226925000Y-27837500D02*
X227012500Y-27925000D01*
X223191250Y-27837500D02*
X226925000Y-27837500D01*
X223191250Y-44063500D02*
X223107250Y-44147500D01*
X223191250Y-27837500D02*
X223191250Y-44063500D01*
X220903750Y-26050000D02*
X220991250Y-26137500D01*
X217487500Y-26050000D02*
X220903750Y-26050000D01*
X220041250Y-26137500D02*
X219710000Y-26468750D01*
X220991250Y-26137500D02*
X220041250Y-26137500D01*
X222307250Y-44147500D02*
X222307250Y-32061250D01*
X219710000Y-29464000D02*
X219710000Y-26468750D01*
X222307250Y-32061250D02*
X219710000Y-29464000D01*
X215582500Y-49212500D02*
X213662500Y-49212500D01*
X217407250Y-49847500D02*
X216217500Y-49847500D01*
X216217500Y-49847500D02*
X215582500Y-49212500D01*
X28195000Y-20575000D02*
X30162500Y-20575000D01*
X24765000Y-17145000D02*
X28195000Y-20575000D01*
X49062500Y-23875000D02*
X49212500Y-23875000D01*
X48362500Y-24575000D02*
X49062500Y-23875000D01*
X31012500Y-24575000D02*
X48362500Y-24575000D01*
X30312500Y-23875000D02*
X31012500Y-24575000D01*
X30162500Y-23875000D02*
X30312500Y-23875000D01*
X68112500Y-23875000D02*
X68262500Y-23875000D01*
X67412500Y-24575000D02*
X68112500Y-23875000D01*
X50062500Y-24575000D02*
X67412500Y-24575000D01*
X49362500Y-23875000D02*
X50062500Y-24575000D01*
X49212500Y-23875000D02*
X49362500Y-23875000D01*
X87162500Y-23875000D02*
X87312500Y-23875000D01*
X86462500Y-24575000D02*
X87162500Y-23875000D01*
X69112500Y-24575000D02*
X86462500Y-24575000D01*
X68412500Y-23875000D02*
X69112500Y-24575000D01*
X68262500Y-23875000D02*
X68412500Y-23875000D01*
X106212500Y-23875000D02*
X106362500Y-23875000D01*
X105512500Y-24575000D02*
X106212500Y-23875000D01*
X88162500Y-24575000D02*
X105512500Y-24575000D01*
X87462500Y-23875000D02*
X88162500Y-24575000D01*
X87312500Y-23875000D02*
X87462500Y-23875000D01*
X124562500Y-23875000D02*
X125412500Y-23875000D01*
X123893599Y-24543901D02*
X124562500Y-23875000D01*
X107881401Y-24543901D02*
X123893599Y-24543901D01*
X107212500Y-23875000D02*
X107881401Y-24543901D01*
X106362500Y-23875000D02*
X107212500Y-23875000D01*
X144312500Y-23875000D02*
X144462500Y-23875000D01*
X143612500Y-24575000D02*
X144312500Y-23875000D01*
X126262500Y-24575000D02*
X143612500Y-24575000D01*
X125562500Y-23875000D02*
X126262500Y-24575000D01*
X125412500Y-23875000D02*
X125562500Y-23875000D01*
X162662500Y-23875000D02*
X163512500Y-23875000D01*
X161993599Y-24543901D02*
X162662500Y-23875000D01*
X145981401Y-24543901D02*
X161993599Y-24543901D01*
X145312500Y-23875000D02*
X145981401Y-24543901D01*
X144462500Y-23875000D02*
X145312500Y-23875000D01*
X182412500Y-23875000D02*
X182562500Y-23875000D01*
X181712500Y-24575000D02*
X182412500Y-23875000D01*
X164362500Y-24575000D02*
X181712500Y-24575000D01*
X163662500Y-23875000D02*
X164362500Y-24575000D01*
X163512500Y-23875000D02*
X163662500Y-23875000D01*
X201462500Y-23875000D02*
X201612500Y-23875000D01*
X200762500Y-24575000D02*
X201462500Y-23875000D01*
X183412500Y-24575000D02*
X200762500Y-24575000D01*
X182712500Y-23875000D02*
X183412500Y-24575000D01*
X182562500Y-23875000D02*
X182712500Y-23875000D01*
X201612500Y-23875000D02*
X203993750Y-23875000D01*
X257912500Y-23875000D02*
X258762500Y-23875000D01*
X257243599Y-24543901D02*
X257912500Y-23875000D01*
X240562500Y-23875000D02*
X241231401Y-24543901D01*
X239712500Y-23875000D02*
X240562500Y-23875000D01*
X276962500Y-23875000D02*
X277812500Y-23875000D01*
X276293599Y-24543901D02*
X276962500Y-23875000D01*
X260281401Y-24543901D02*
X276293599Y-24543901D01*
X259612500Y-23875000D02*
X260281401Y-24543901D01*
X258762500Y-23875000D02*
X259612500Y-23875000D01*
X296012500Y-23875000D02*
X296862500Y-23875000D01*
X295343599Y-24543901D02*
X296012500Y-23875000D01*
X279331401Y-24543901D02*
X295343599Y-24543901D01*
X278662500Y-23875000D02*
X279331401Y-24543901D01*
X277812500Y-23875000D02*
X278662500Y-23875000D01*
X228807250Y-49047500D02*
X240512500Y-49047500D01*
X240512500Y-49047500D02*
X241300000Y-48260000D01*
X241231401Y-24543901D02*
X241332901Y-24543901D01*
X241332901Y-24543901D02*
X257243599Y-24543901D01*
X238862500Y-23875000D02*
X239712500Y-23875000D01*
X236728998Y-23875000D02*
X238862500Y-23875000D01*
X231088997Y-18234999D02*
X236728998Y-23875000D01*
X227268999Y-18234999D02*
X231088997Y-18234999D01*
X214962997Y-18988999D02*
X226514999Y-18988999D01*
X214208997Y-18234999D02*
X214962997Y-18988999D01*
X208218999Y-18234999D02*
X214208997Y-18234999D01*
X203993750Y-22460248D02*
X208218999Y-18234999D01*
X226514999Y-18988999D02*
X227268999Y-18234999D01*
X203993750Y-23875000D02*
X203993750Y-22460248D01*
X47245000Y-20575000D02*
X49212500Y-20575000D01*
X43815000Y-17145000D02*
X47245000Y-20575000D01*
X66295000Y-20575000D02*
X62865000Y-17145000D01*
X68262500Y-20575000D02*
X66295000Y-20575000D01*
X85345000Y-20575000D02*
X81915000Y-17145000D01*
X87312500Y-20575000D02*
X85345000Y-20575000D01*
X104395000Y-20575000D02*
X100965000Y-17145000D01*
X106362500Y-20575000D02*
X104395000Y-20575000D01*
X123445000Y-20575000D02*
X120015000Y-17145000D01*
X125412500Y-20575000D02*
X123445000Y-20575000D01*
X142495000Y-20575000D02*
X139065000Y-17145000D01*
X144462500Y-20575000D02*
X142495000Y-20575000D01*
X161545000Y-20575000D02*
X158115000Y-17145000D01*
X163512500Y-20575000D02*
X161545000Y-20575000D01*
X180595000Y-20575000D02*
X177165000Y-17145000D01*
X182562500Y-20575000D02*
X180595000Y-20575000D01*
X199645000Y-20575000D02*
X196215000Y-17145000D01*
X201612500Y-20575000D02*
X199645000Y-20575000D01*
X213674010Y-17145000D02*
X215265000Y-17145000D01*
X206723750Y-17145000D02*
X213674010Y-17145000D01*
X203993750Y-19875000D02*
X206723750Y-17145000D01*
X203993750Y-20575000D02*
X203993750Y-19875000D01*
X237745000Y-20575000D02*
X234315000Y-17145000D01*
X239712500Y-20575000D02*
X237745000Y-20575000D01*
X256795000Y-20575000D02*
X253365000Y-17145000D01*
X258762500Y-20575000D02*
X256795000Y-20575000D01*
X275845000Y-20575000D02*
X272415000Y-17145000D01*
X277812500Y-20575000D02*
X275845000Y-20575000D01*
X294895000Y-20575000D02*
X291465000Y-17145000D01*
X296862500Y-20575000D02*
X294895000Y-20575000D01*
X28195000Y-39625000D02*
X30162500Y-39625000D01*
X24765000Y-36195000D02*
X28195000Y-39625000D01*
X277962500Y-42925000D02*
X277812500Y-42925000D01*
X278662500Y-43625000D02*
X277962500Y-42925000D01*
X296012500Y-43625000D02*
X278662500Y-43625000D01*
X296712500Y-42925000D02*
X296012500Y-43625000D01*
X296862500Y-42925000D02*
X296712500Y-42925000D01*
X258912500Y-42925000D02*
X258762500Y-42925000D01*
X259612500Y-43625000D02*
X258912500Y-42925000D01*
X276962500Y-43625000D02*
X259612500Y-43625000D01*
X277662500Y-42925000D02*
X276962500Y-43625000D01*
X277812500Y-42925000D02*
X277662500Y-42925000D01*
X239862500Y-42925000D02*
X239712500Y-42925000D01*
X240562500Y-43625000D02*
X239862500Y-42925000D01*
X257912500Y-43625000D02*
X240562500Y-43625000D01*
X258612500Y-42925000D02*
X257912500Y-43625000D01*
X258762500Y-42925000D02*
X258612500Y-42925000D01*
X203993750Y-42925000D02*
X201612500Y-42925000D01*
X183412500Y-42925000D02*
X182562500Y-42925000D01*
X184081401Y-43593901D02*
X183412500Y-42925000D01*
X200093599Y-43593901D02*
X184081401Y-43593901D01*
X200762500Y-42925000D02*
X200093599Y-43593901D01*
X201612500Y-42925000D02*
X200762500Y-42925000D01*
X164362500Y-42925000D02*
X163512500Y-42925000D01*
X165031401Y-43593901D02*
X164362500Y-42925000D01*
X181043599Y-43593901D02*
X165031401Y-43593901D01*
X181712500Y-42925000D02*
X181043599Y-43593901D01*
X182562500Y-42925000D02*
X181712500Y-42925000D01*
X144612500Y-42925000D02*
X144462500Y-42925000D01*
X145312500Y-43625000D02*
X144612500Y-42925000D01*
X162662500Y-43625000D02*
X145312500Y-43625000D01*
X163362500Y-42925000D02*
X162662500Y-43625000D01*
X163512500Y-42925000D02*
X163362500Y-42925000D01*
X126262500Y-42925000D02*
X125412500Y-42925000D01*
X126931401Y-43593901D02*
X126262500Y-42925000D01*
X142943599Y-43593901D02*
X126931401Y-43593901D01*
X143612500Y-42925000D02*
X142943599Y-43593901D01*
X144462500Y-42925000D02*
X143612500Y-42925000D01*
X107212500Y-42925000D02*
X106362500Y-42925000D01*
X107881401Y-43593901D02*
X107212500Y-42925000D01*
X123893599Y-43593901D02*
X107881401Y-43593901D01*
X124562500Y-42925000D02*
X123893599Y-43593901D01*
X125412500Y-42925000D02*
X124562500Y-42925000D01*
X88162500Y-42925000D02*
X87312500Y-42925000D01*
X88831401Y-43593901D02*
X88162500Y-42925000D01*
X104843599Y-43593901D02*
X88831401Y-43593901D01*
X105512500Y-42925000D02*
X104843599Y-43593901D01*
X106362500Y-42925000D02*
X105512500Y-42925000D01*
X68412500Y-42925000D02*
X68262500Y-42925000D01*
X69112500Y-43625000D02*
X68412500Y-42925000D01*
X86462500Y-43625000D02*
X69112500Y-43625000D01*
X87162500Y-42925000D02*
X86462500Y-43625000D01*
X87312500Y-42925000D02*
X87162500Y-42925000D01*
X49362500Y-42925000D02*
X49212500Y-42925000D01*
X50062500Y-43625000D02*
X49362500Y-42925000D01*
X67412500Y-43625000D02*
X50062500Y-43625000D01*
X68112500Y-42925000D02*
X67412500Y-43625000D01*
X68262500Y-42925000D02*
X68112500Y-42925000D01*
X30312500Y-42925000D02*
X30162500Y-42925000D01*
X31012500Y-43625000D02*
X30312500Y-42925000D01*
X48362500Y-43625000D02*
X31012500Y-43625000D01*
X49062500Y-42925000D02*
X48362500Y-43625000D01*
X49212500Y-42925000D02*
X49062500Y-42925000D01*
X204843750Y-42925000D02*
X206066250Y-44147500D01*
X203993750Y-42925000D02*
X204843750Y-42925000D01*
X206066250Y-44147500D02*
X216486500Y-44147500D01*
X239712500Y-42925000D02*
X238862500Y-42925000D01*
X237591500Y-44196000D02*
X238862500Y-42925000D01*
X229362000Y-44196000D02*
X237591500Y-44196000D01*
X229362000Y-44196000D02*
X228854000Y-44196000D01*
X216486500Y-44147500D02*
X217375500Y-44147500D01*
X217375500Y-44147500D02*
X217424000Y-44196000D01*
X237591500Y-45746000D02*
X237591500Y-44196000D01*
X235090000Y-48247500D02*
X237591500Y-45746000D01*
X228807250Y-48247500D02*
X235090000Y-48247500D01*
X47245000Y-39625000D02*
X49212500Y-39625000D01*
X43815000Y-36195000D02*
X47245000Y-39625000D01*
X66295000Y-39625000D02*
X68262500Y-39625000D01*
X62865000Y-36195000D02*
X66295000Y-39625000D01*
X85345000Y-39625000D02*
X87312500Y-39625000D01*
X81915000Y-36195000D02*
X85345000Y-39625000D01*
X104395000Y-39625000D02*
X106362500Y-39625000D01*
X100965000Y-36195000D02*
X104395000Y-39625000D01*
X123445000Y-39625000D02*
X125412500Y-39625000D01*
X120015000Y-36195000D02*
X123445000Y-39625000D01*
X142495000Y-39625000D02*
X144462500Y-39625000D01*
X139065000Y-36195000D02*
X142495000Y-39625000D01*
X161545000Y-39625000D02*
X163512500Y-39625000D01*
X158115000Y-36195000D02*
X161545000Y-39625000D01*
X180595000Y-39625000D02*
X182562500Y-39625000D01*
X177165000Y-36195000D02*
X180595000Y-39625000D01*
X199645000Y-39625000D02*
X201612500Y-39625000D01*
X196215000Y-36195000D02*
X199645000Y-39625000D01*
X213674010Y-36195000D02*
X215265000Y-36195000D01*
X206723750Y-36195000D02*
X213674010Y-36195000D01*
X203993750Y-38925000D02*
X206723750Y-36195000D01*
X203993750Y-39625000D02*
X203993750Y-38925000D01*
X237745000Y-39625000D02*
X239712500Y-39625000D01*
X234315000Y-36195000D02*
X237745000Y-39625000D01*
X256795000Y-39625000D02*
X258762500Y-39625000D01*
X253365000Y-36195000D02*
X256795000Y-39625000D01*
X275845000Y-39625000D02*
X277812500Y-39625000D01*
X272415000Y-36195000D02*
X275845000Y-39625000D01*
X294895000Y-39625000D02*
X296862500Y-39625000D01*
X291465000Y-36195000D02*
X294895000Y-39625000D01*
X28195000Y-58675000D02*
X30162500Y-58675000D01*
X24765000Y-55245000D02*
X28195000Y-58675000D01*
X49062500Y-61975000D02*
X49212500Y-61975000D01*
X48362500Y-62675000D02*
X49062500Y-61975000D01*
X31012500Y-62675000D02*
X48362500Y-62675000D01*
X30312500Y-61975000D02*
X31012500Y-62675000D01*
X30162500Y-61975000D02*
X30312500Y-61975000D01*
X68112500Y-61975000D02*
X68262500Y-61975000D01*
X67412500Y-62675000D02*
X68112500Y-61975000D01*
X50062500Y-62675000D02*
X67412500Y-62675000D01*
X49362500Y-61975000D02*
X50062500Y-62675000D01*
X49212500Y-61975000D02*
X49362500Y-61975000D01*
X87162500Y-61975000D02*
X87312500Y-61975000D01*
X86462500Y-62675000D02*
X87162500Y-61975000D01*
X69112500Y-62675000D02*
X86462500Y-62675000D01*
X68412500Y-61975000D02*
X69112500Y-62675000D01*
X68262500Y-61975000D02*
X68412500Y-61975000D01*
X105512500Y-61975000D02*
X106362500Y-61975000D01*
X104843599Y-62643901D02*
X105512500Y-61975000D01*
X88831401Y-62643901D02*
X104843599Y-62643901D01*
X88162500Y-61975000D02*
X88831401Y-62643901D01*
X87312500Y-61975000D02*
X88162500Y-61975000D01*
X125262500Y-61975000D02*
X125412500Y-61975000D01*
X124562500Y-62675000D02*
X125262500Y-61975000D01*
X107212500Y-62675000D02*
X124562500Y-62675000D01*
X106512500Y-61975000D02*
X107212500Y-62675000D01*
X106362500Y-61975000D02*
X106512500Y-61975000D01*
X144312500Y-61975000D02*
X144462500Y-61975000D01*
X143612500Y-62675000D02*
X144312500Y-61975000D01*
X126262500Y-62675000D02*
X143612500Y-62675000D01*
X125562500Y-61975000D02*
X126262500Y-62675000D01*
X125412500Y-61975000D02*
X125562500Y-61975000D01*
X162662500Y-61975000D02*
X163512500Y-61975000D01*
X161993599Y-62643901D02*
X162662500Y-61975000D01*
X145981401Y-62643901D02*
X161993599Y-62643901D01*
X145312500Y-61975000D02*
X145981401Y-62643901D01*
X144462500Y-61975000D02*
X145312500Y-61975000D01*
X181712500Y-61975000D02*
X182562500Y-61975000D01*
X181043599Y-62643901D02*
X181712500Y-61975000D01*
X165031401Y-62643901D02*
X181043599Y-62643901D01*
X164362500Y-61975000D02*
X165031401Y-62643901D01*
X163512500Y-61975000D02*
X164362500Y-61975000D01*
X200762500Y-61975000D02*
X201612500Y-61975000D01*
X200093599Y-62643901D02*
X200762500Y-61975000D01*
X184081401Y-62643901D02*
X200093599Y-62643901D01*
X183412500Y-61975000D02*
X184081401Y-62643901D01*
X182562500Y-61975000D02*
X183412500Y-61975000D01*
X296012500Y-61975000D02*
X296862500Y-61975000D01*
X295343599Y-62643901D02*
X296012500Y-61975000D01*
X269806401Y-62643901D02*
X295343599Y-62643901D01*
X269137500Y-61975000D02*
X269806401Y-62643901D01*
X268287500Y-61975000D02*
X269137500Y-61975000D01*
X204843750Y-61975000D02*
X206368750Y-63500000D01*
X203993750Y-61975000D02*
X204843750Y-61975000D01*
X238862500Y-61975000D02*
X239712500Y-61975000D01*
X237337500Y-63500000D02*
X238862500Y-61975000D01*
X206368750Y-63500000D02*
X237337500Y-63500000D01*
X267437500Y-61975000D02*
X268287500Y-61975000D01*
X266768599Y-62643901D02*
X267437500Y-61975000D01*
X241231401Y-62643901D02*
X266768599Y-62643901D01*
X240562500Y-61975000D02*
X241231401Y-62643901D01*
X239712500Y-61975000D02*
X240562500Y-61975000D01*
X228807250Y-51447500D02*
X240423500Y-51447500D01*
X240423500Y-51447500D02*
X241300000Y-52324000D01*
X47245000Y-58675000D02*
X49212500Y-58675000D01*
X43815000Y-55245000D02*
X47245000Y-58675000D01*
X66295000Y-58675000D02*
X68262500Y-58675000D01*
X62865000Y-55245000D02*
X66295000Y-58675000D01*
X85345000Y-58675000D02*
X87312500Y-58675000D01*
X81915000Y-55245000D02*
X85345000Y-58675000D01*
X104395000Y-58675000D02*
X106362500Y-58675000D01*
X100965000Y-55245000D02*
X104395000Y-58675000D01*
X123445000Y-58675000D02*
X125412500Y-58675000D01*
X120015000Y-55245000D02*
X123445000Y-58675000D01*
X142495000Y-58675000D02*
X144462500Y-58675000D01*
X139065000Y-55245000D02*
X142495000Y-58675000D01*
X161545000Y-58675000D02*
X163512500Y-58675000D01*
X158115000Y-55245000D02*
X161545000Y-58675000D01*
X180595000Y-58675000D02*
X182562500Y-58675000D01*
X177165000Y-55245000D02*
X180595000Y-58675000D01*
X199645000Y-58675000D02*
X201612500Y-58675000D01*
X196215000Y-55245000D02*
X199645000Y-58675000D01*
X203993750Y-57975000D02*
X203993750Y-58675000D01*
X206850750Y-55118000D02*
X203993750Y-57975000D01*
X208407000Y-55118000D02*
X206850750Y-55118000D01*
X237745000Y-58675000D02*
X239712500Y-58675000D01*
X234315000Y-55245000D02*
X237745000Y-58675000D01*
X266320000Y-58675000D02*
X268287500Y-58675000D01*
X262890000Y-55245000D02*
X266320000Y-58675000D01*
X294895000Y-58675000D02*
X296862500Y-58675000D01*
X291465000Y-55245000D02*
X294895000Y-58675000D01*
X28195000Y-77725000D02*
X30162500Y-77725000D01*
X24765000Y-74295000D02*
X28195000Y-77725000D01*
X278662500Y-81025000D02*
X277812500Y-81025000D01*
X279331401Y-81693901D02*
X278662500Y-81025000D01*
X295343599Y-81693901D02*
X279331401Y-81693901D01*
X296012500Y-81025000D02*
X295343599Y-81693901D01*
X296862500Y-81025000D02*
X296012500Y-81025000D01*
X221512500Y-81025000D02*
X220662500Y-81025000D01*
X222181401Y-81693901D02*
X221512500Y-81025000D01*
X247718599Y-81693901D02*
X222181401Y-81693901D01*
X248387500Y-81025000D02*
X247718599Y-81693901D01*
X249237500Y-81025000D02*
X248387500Y-81025000D01*
X202462500Y-81025000D02*
X201612500Y-81025000D01*
X203131401Y-81693901D02*
X202462500Y-81025000D01*
X219143599Y-81693901D02*
X203131401Y-81693901D01*
X219812500Y-81025000D02*
X219143599Y-81693901D01*
X220662500Y-81025000D02*
X219812500Y-81025000D01*
X182712500Y-81025000D02*
X182562500Y-81025000D01*
X183412500Y-81725000D02*
X182712500Y-81025000D01*
X200762500Y-81725000D02*
X183412500Y-81725000D01*
X201462500Y-81025000D02*
X200762500Y-81725000D01*
X201612500Y-81025000D02*
X201462500Y-81025000D01*
X163662500Y-81025000D02*
X163512500Y-81025000D01*
X164362500Y-81725000D02*
X163662500Y-81025000D01*
X181712500Y-81725000D02*
X164362500Y-81725000D01*
X182412500Y-81025000D02*
X181712500Y-81725000D01*
X182562500Y-81025000D02*
X182412500Y-81025000D01*
X145312500Y-81025000D02*
X144462500Y-81025000D01*
X145981401Y-81693901D02*
X145312500Y-81025000D01*
X161993599Y-81693901D02*
X145981401Y-81693901D01*
X162662500Y-81025000D02*
X161993599Y-81693901D01*
X163512500Y-81025000D02*
X162662500Y-81025000D01*
X126262500Y-81025000D02*
X125412500Y-81025000D01*
X126931401Y-81693901D02*
X126262500Y-81025000D01*
X142943599Y-81693901D02*
X126931401Y-81693901D01*
X143612500Y-81025000D02*
X142943599Y-81693901D01*
X144462500Y-81025000D02*
X143612500Y-81025000D01*
X106512500Y-81025000D02*
X106362500Y-81025000D01*
X107212500Y-81725000D02*
X106512500Y-81025000D01*
X124562500Y-81725000D02*
X107212500Y-81725000D01*
X125262500Y-81025000D02*
X124562500Y-81725000D01*
X125412500Y-81025000D02*
X125262500Y-81025000D01*
X86668750Y-81025000D02*
X86518750Y-81025000D01*
X87368750Y-81725000D02*
X86668750Y-81025000D01*
X105512500Y-81725000D02*
X87368750Y-81725000D01*
X106212500Y-81025000D02*
X105512500Y-81725000D01*
X106362500Y-81025000D02*
X106212500Y-81025000D01*
X69112500Y-81025000D02*
X68262500Y-81025000D01*
X69781401Y-81693901D02*
X69112500Y-81025000D01*
X84999849Y-81693901D02*
X69781401Y-81693901D01*
X85668750Y-81025000D02*
X84999849Y-81693901D01*
X86518750Y-81025000D02*
X85668750Y-81025000D01*
X49362500Y-81025000D02*
X49212500Y-81025000D01*
X50062500Y-81725000D02*
X49362500Y-81025000D01*
X67412500Y-81725000D02*
X50062500Y-81725000D01*
X68112500Y-81025000D02*
X67412500Y-81725000D01*
X68262500Y-81025000D02*
X68112500Y-81025000D01*
X30312500Y-81025000D02*
X30162500Y-81025000D01*
X31012500Y-81725000D02*
X30312500Y-81025000D01*
X48362500Y-81725000D02*
X31012500Y-81725000D01*
X49062500Y-81025000D02*
X48362500Y-81725000D01*
X49212500Y-81025000D02*
X49062500Y-81025000D01*
X250087500Y-81025000D02*
X249237500Y-81025000D01*
X250756401Y-81693901D02*
X250087500Y-81025000D01*
X276293599Y-81693901D02*
X250756401Y-81693901D01*
X276962500Y-81025000D02*
X276293599Y-81693901D01*
X277812500Y-81025000D02*
X276962500Y-81025000D01*
X229807250Y-50647500D02*
X228807250Y-50647500D01*
X241332185Y-50647500D02*
X229807250Y-50647500D01*
X242443000Y-51758315D02*
X241332185Y-50647500D01*
X242443000Y-52324000D02*
X242443000Y-51758315D01*
X47245000Y-77725000D02*
X49212500Y-77725000D01*
X43815000Y-74295000D02*
X47245000Y-77725000D01*
X66295000Y-77725000D02*
X68262500Y-77725000D01*
X62865000Y-74295000D02*
X66295000Y-77725000D01*
X85345000Y-77725000D02*
X86518750Y-77725000D01*
X81915000Y-74295000D02*
X85345000Y-77725000D01*
X104395000Y-77725000D02*
X106362500Y-77725000D01*
X100965000Y-74295000D02*
X104395000Y-77725000D01*
X123445000Y-77725000D02*
X125412500Y-77725000D01*
X120015000Y-74295000D02*
X123445000Y-77725000D01*
X142495000Y-77725000D02*
X144462500Y-77725000D01*
X139065000Y-74295000D02*
X142495000Y-77725000D01*
X161545000Y-77725000D02*
X163512500Y-77725000D01*
X158115000Y-74295000D02*
X161545000Y-77725000D01*
X180595000Y-77725000D02*
X182562500Y-77725000D01*
X177165000Y-74295000D02*
X180595000Y-77725000D01*
X199645000Y-77725000D02*
X201612500Y-77725000D01*
X196215000Y-74295000D02*
X199645000Y-77725000D01*
X218695000Y-77725000D02*
X220662500Y-77725000D01*
X215265000Y-74295000D02*
X218695000Y-77725000D01*
X247270000Y-77725000D02*
X249237500Y-77725000D01*
X243840000Y-74295000D02*
X247270000Y-77725000D01*
X275845000Y-77725000D02*
X277812500Y-77725000D01*
X272415000Y-74295000D02*
X275845000Y-77725000D01*
X294895000Y-77725000D02*
X296862500Y-77725000D01*
X291465000Y-74295000D02*
X294895000Y-77725000D01*
X28195000Y-96775000D02*
X30162500Y-96775000D01*
X24765000Y-93345000D02*
X28195000Y-96775000D01*
X49062500Y-100075000D02*
X49212500Y-100075000D01*
X48362500Y-100775000D02*
X49062500Y-100075000D01*
X31012500Y-100775000D02*
X48362500Y-100775000D01*
X30312500Y-100075000D02*
X31012500Y-100775000D01*
X30162500Y-100075000D02*
X30312500Y-100075000D01*
X67412500Y-100075000D02*
X68262500Y-100075000D01*
X66743599Y-100743901D02*
X67412500Y-100075000D01*
X50031401Y-100743901D02*
X66743599Y-100743901D01*
X49362500Y-100075000D02*
X50031401Y-100743901D01*
X49212500Y-100075000D02*
X49362500Y-100075000D01*
X86462500Y-100075000D02*
X87312500Y-100075000D01*
X85793599Y-100743901D02*
X86462500Y-100075000D01*
X69781401Y-100743901D02*
X85793599Y-100743901D01*
X69112500Y-100075000D02*
X69781401Y-100743901D01*
X68262500Y-100075000D02*
X69112500Y-100075000D01*
X105512500Y-100075000D02*
X106362500Y-100075000D01*
X104843599Y-100743901D02*
X105512500Y-100075000D01*
X88831401Y-100743901D02*
X104843599Y-100743901D01*
X88162500Y-100075000D02*
X88831401Y-100743901D01*
X87312500Y-100075000D02*
X88162500Y-100075000D01*
X134087500Y-100075000D02*
X134937500Y-100075000D01*
X133418599Y-100743901D02*
X134087500Y-100075000D01*
X107881401Y-100743901D02*
X133418599Y-100743901D01*
X107212500Y-100075000D02*
X107881401Y-100743901D01*
X106362500Y-100075000D02*
X107212500Y-100075000D01*
X162662500Y-100075000D02*
X163512500Y-100075000D01*
X161993599Y-100743901D02*
X162662500Y-100075000D01*
X136456401Y-100743901D02*
X161993599Y-100743901D01*
X135787500Y-100075000D02*
X136456401Y-100743901D01*
X134937500Y-100075000D02*
X135787500Y-100075000D01*
X181712500Y-100075000D02*
X182562500Y-100075000D01*
X181043599Y-100743901D02*
X181712500Y-100075000D01*
X165031401Y-100743901D02*
X181043599Y-100743901D01*
X164362500Y-100075000D02*
X165031401Y-100743901D01*
X163512500Y-100075000D02*
X164362500Y-100075000D01*
X200762500Y-100075000D02*
X201612500Y-100075000D01*
X200093599Y-100743901D02*
X200762500Y-100075000D01*
X184081401Y-100743901D02*
X200093599Y-100743901D01*
X183412500Y-100075000D02*
X184081401Y-100743901D01*
X182562500Y-100075000D02*
X183412500Y-100075000D01*
X219812500Y-100075000D02*
X220662500Y-100075000D01*
X219143599Y-100743901D02*
X219812500Y-100075000D01*
X203131401Y-100743901D02*
X219143599Y-100743901D01*
X202462500Y-100075000D02*
X203131401Y-100743901D01*
X201612500Y-100075000D02*
X202462500Y-100075000D01*
X239562500Y-100075000D02*
X239712500Y-100075000D01*
X238862500Y-100775000D02*
X239562500Y-100075000D01*
X221512500Y-100775000D02*
X238862500Y-100775000D01*
X220812500Y-100075000D02*
X221512500Y-100775000D01*
X220662500Y-100075000D02*
X220812500Y-100075000D01*
X257912500Y-100075000D02*
X258762500Y-100075000D01*
X257243599Y-100743901D02*
X257912500Y-100075000D01*
X241231401Y-100743901D02*
X257243599Y-100743901D01*
X240562500Y-100075000D02*
X241231401Y-100743901D01*
X239712500Y-100075000D02*
X240562500Y-100075000D01*
X277662500Y-100075000D02*
X277812500Y-100075000D01*
X276962500Y-100775000D02*
X277662500Y-100075000D01*
X259612500Y-100775000D02*
X276962500Y-100775000D01*
X258912500Y-100075000D02*
X259612500Y-100775000D01*
X258762500Y-100075000D02*
X258912500Y-100075000D01*
X296012500Y-100075000D02*
X296862500Y-100075000D01*
X295343599Y-100743901D02*
X296012500Y-100075000D01*
X279331401Y-100743901D02*
X295343599Y-100743901D01*
X278662500Y-100075000D02*
X279331401Y-100743901D01*
X277812500Y-100075000D02*
X278662500Y-100075000D01*
X277558500Y-49847500D02*
X279331401Y-51620401D01*
X228807250Y-49847500D02*
X277558500Y-49847500D01*
X47245000Y-96775000D02*
X49212500Y-96775000D01*
X43815000Y-93345000D02*
X47245000Y-96775000D01*
X66295000Y-96775000D02*
X68262500Y-96775000D01*
X62865000Y-93345000D02*
X66295000Y-96775000D01*
X85345000Y-96775000D02*
X87312500Y-96775000D01*
X81915000Y-93345000D02*
X85345000Y-96775000D01*
X104395000Y-96775000D02*
X106362500Y-96775000D01*
X100965000Y-93345000D02*
X104395000Y-96775000D01*
X132970000Y-96775000D02*
X134937500Y-96775000D01*
X129540000Y-93345000D02*
X132970000Y-96775000D01*
X161545000Y-96775000D02*
X163512500Y-96775000D01*
X158115000Y-93345000D02*
X161545000Y-96775000D01*
X180595000Y-96775000D02*
X182562500Y-96775000D01*
X177165000Y-93345000D02*
X180595000Y-96775000D01*
X199645000Y-96775000D02*
X201612500Y-96775000D01*
X196215000Y-93345000D02*
X199645000Y-96775000D01*
X218695000Y-96775000D02*
X220662500Y-96775000D01*
X215265000Y-93345000D02*
X218695000Y-96775000D01*
X237745000Y-96775000D02*
X239712500Y-96775000D01*
X234315000Y-93345000D02*
X237745000Y-96775000D01*
X256795000Y-96775000D02*
X258762500Y-96775000D01*
X253365000Y-93345000D02*
X256795000Y-96775000D01*
X275845000Y-96775000D02*
X277812500Y-96775000D01*
X272415000Y-93345000D02*
X275845000Y-96775000D01*
X294895000Y-96775000D02*
X296862500Y-96775000D01*
X291465000Y-93345000D02*
X294895000Y-96775000D01*
D22*
X70866000Y-52832000D02*
X76324000Y-52832000D01*
X64675000Y-33250000D02*
X70588000Y-33250000D01*
X70588000Y-33250000D02*
X70842000Y-33250000D01*
X70842000Y-33250000D02*
X70866000Y-33274000D01*
D24*
X65550000Y-31250000D02*
X64675000Y-31250000D01*
X80159750Y-31250000D02*
X65550000Y-31250000D01*
X81310750Y-30099000D02*
X80159750Y-31250000D01*
X81898250Y-30099000D02*
X81310750Y-30099000D01*
X65550000Y-32250000D02*
X64675000Y-32250000D01*
X80159750Y-32250000D02*
X65550000Y-32250000D01*
X81310750Y-33401000D02*
X80159750Y-32250000D01*
X81898250Y-33401000D02*
X81310750Y-33401000D01*
X221488000Y-60552288D02*
X221488000Y-62775000D01*
X225507250Y-55547500D02*
X225507250Y-56533038D01*
X225507250Y-56533038D02*
X221488000Y-60552288D01*
X221488000Y-64225000D02*
X221488000Y-64790685D01*
X221488000Y-64790685D02*
X218681685Y-67597000D01*
X218681685Y-67597000D02*
X16035000Y-67597000D01*
X16035000Y-67597000D02*
X15944999Y-67506999D01*
X220487997Y-60915881D02*
X220487997Y-62775000D01*
X224707250Y-55547500D02*
X224707250Y-56696628D01*
X224707250Y-56696628D02*
X220487997Y-60915881D01*
X220487997Y-64225000D02*
X220487997Y-64790685D01*
X220487997Y-64790685D02*
X218202680Y-67076002D01*
X218202680Y-67076002D02*
X35199002Y-67076002D01*
X35199002Y-67076002D02*
X34994999Y-66871999D01*
X219487994Y-61279474D02*
X219487994Y-62775000D01*
X223907250Y-55547500D02*
X223907250Y-56860218D01*
X223907250Y-56860218D02*
X219487994Y-61279474D01*
X219456000Y-64225000D02*
X219456000Y-64790685D01*
X219456000Y-64790685D02*
X217792685Y-66454000D01*
X217792685Y-66454000D02*
X54147998Y-66454000D01*
X54147998Y-66454000D02*
X54044999Y-66351001D01*
X218487991Y-61643067D02*
X218487991Y-62775000D01*
X223107250Y-55547500D02*
X223107250Y-57023808D01*
X223107250Y-57023808D02*
X218487991Y-61643067D01*
X73131998Y-65692000D02*
X73094999Y-65728999D01*
X216988997Y-65692000D02*
X73131998Y-65692000D01*
X218455997Y-64225000D02*
X216988997Y-65692000D01*
X222307250Y-56547500D02*
X219729751Y-59124999D01*
X222307250Y-55547500D02*
X222307250Y-56547500D01*
X219729751Y-59124999D02*
X217228999Y-59124999D01*
X217228999Y-59124999D02*
X216604999Y-59748999D01*
X216604999Y-59748999D02*
X216604999Y-62717999D01*
X216604999Y-62717999D02*
X216662000Y-62775000D01*
X216485686Y-64966999D02*
X92144999Y-64966999D01*
X216662000Y-64790685D02*
X216485686Y-64966999D01*
X216662000Y-64225000D02*
X216662000Y-64790685D01*
X215661997Y-60055591D02*
X215661997Y-62775000D01*
X217042598Y-58674990D02*
X215661997Y-60055591D01*
X219379760Y-58674990D02*
X217042598Y-58674990D01*
X221507250Y-55547500D02*
X221507250Y-56547500D01*
X221507250Y-56547500D02*
X219379760Y-58674990D01*
X111227998Y-64225000D02*
X111194999Y-64192001D01*
X215661997Y-64225000D02*
X111227998Y-64225000D01*
X217407250Y-48247500D02*
X216407250Y-48247500D01*
X216407250Y-48247500D02*
X215440749Y-47280999D01*
X215440749Y-47280999D02*
X130277999Y-47280999D01*
X130277999Y-47280999D02*
X130244999Y-47313999D01*
X215352159Y-46555999D02*
X149294999Y-46555999D01*
X217407250Y-47447500D02*
X216243660Y-47447500D01*
X216243660Y-47447500D02*
X215352159Y-46555999D01*
X215263569Y-45830999D02*
X168344999Y-45830999D01*
X217407250Y-46647500D02*
X216080070Y-46647500D01*
X216080070Y-46647500D02*
X215263569Y-45830999D01*
X215665749Y-45105999D02*
X187394999Y-45105999D01*
X217407250Y-45847500D02*
X216407250Y-45847500D01*
X216407250Y-45847500D02*
X215665749Y-45105999D01*
X210505990Y-38735000D02*
X208915000Y-38735000D01*
X217041002Y-38735000D02*
X210505990Y-38735000D01*
X219107250Y-40801248D02*
X217041002Y-38735000D01*
X219107250Y-44147500D02*
X219107250Y-40801248D01*
X227965000Y-41781002D02*
X227965000Y-38735000D01*
X226307250Y-44147500D02*
X226307250Y-43438752D01*
X226307250Y-43438752D02*
X227965000Y-41781002D01*
X245890001Y-37610001D02*
X247015000Y-38735000D01*
X243024999Y-34744999D02*
X245890001Y-37610001D01*
X225494999Y-39058999D02*
X229808999Y-34744999D01*
X229808999Y-34744999D02*
X243024999Y-34744999D01*
X225494999Y-41851001D02*
X225494999Y-39058999D01*
X225507250Y-41863252D02*
X225494999Y-41851001D01*
X225507250Y-44147500D02*
X225507250Y-41863252D01*
X264940001Y-37610001D02*
X266065000Y-38735000D01*
X261624989Y-34294989D02*
X264940001Y-37610001D01*
X229622599Y-34294989D02*
X261624989Y-34294989D01*
X224707250Y-39210338D02*
X229622599Y-34294989D01*
X224707250Y-44147500D02*
X224707250Y-39210338D01*
X283990001Y-37610001D02*
X285115000Y-38735000D01*
X280224979Y-33844979D02*
X283990001Y-37610001D01*
X229436199Y-33844979D02*
X280224979Y-33844979D01*
X223907250Y-39373928D02*
X229436199Y-33844979D01*
X223907250Y-44147500D02*
X223907250Y-39373928D01*
X217407250Y-52247500D02*
X216458500Y-52247500D01*
X216458500Y-52247500D02*
X216281000Y-52070000D01*
X216281000Y-52070000D02*
X209550000Y-52070000D01*
X209550000Y-52070000D02*
X183515000Y-52070000D01*
X183515000Y-52070000D02*
X165354000Y-52070000D01*
X165354000Y-52070000D02*
X146050000Y-52070000D01*
X146050000Y-52070000D02*
X132969000Y-52070000D01*
X132969000Y-52070000D02*
X111125000Y-52070000D01*
X111125000Y-52070000D02*
X96774000Y-52070000D01*
X96774000Y-52070000D02*
X90424000Y-52070000D01*
X90424000Y-52070000D02*
X89281000Y-50927000D01*
X83773250Y-33401000D02*
X84582000Y-33401000D01*
X84582000Y-33401000D02*
X85598000Y-32385000D01*
X88519000Y-32385000D02*
X89154000Y-33020000D01*
X85598000Y-32385000D02*
X88519000Y-32385000D01*
X217407250Y-51447500D02*
X216268500Y-51447500D01*
X91059000Y-51562000D02*
X90424000Y-50927000D01*
X99441000Y-51562000D02*
X91059000Y-51562000D01*
X216268500Y-51447500D02*
X216154000Y-51562000D01*
X216154000Y-51562000D02*
X99441000Y-51562000D01*
X84360750Y-30099000D02*
X85503750Y-31242000D01*
X83773250Y-30099000D02*
X84360750Y-30099000D01*
X88773000Y-31242000D02*
X90043000Y-32512000D01*
X85503750Y-31242000D02*
X88773000Y-31242000D01*
X200100000Y-34400000D02*
X200625000Y-34925000D01*
X200100000Y-33600000D02*
X200100000Y-34400000D01*
X212345000Y-34925000D02*
X200625000Y-34925000D01*
X213995000Y-33275000D02*
X212345000Y-34925000D01*
X213995000Y-32687500D02*
X213995000Y-33275000D01*
X213995000Y-32687500D02*
X215186500Y-32687500D01*
X215186500Y-32687500D02*
X216535000Y-34036000D01*
X216535000Y-34036000D02*
X217932000Y-34036000D01*
X219907250Y-36011250D02*
X219907250Y-37535250D01*
X217932000Y-34036000D02*
X219907250Y-36011250D01*
X219907250Y-44147500D02*
X219907250Y-37535250D01*
X219907250Y-37535250D02*
X219907250Y-36773250D01*
X231775000Y-54625000D02*
X230774000Y-54625000D01*
X229996500Y-53847500D02*
X228807250Y-53847500D01*
X230774000Y-54625000D02*
X229996500Y-53847500D01*
D25*
G36*
X221581065Y-45348685D02*
G01*
X221677756Y-45428037D01*
X221700917Y-45440417D01*
X221793000Y-45532500D01*
X221906587Y-45522954D01*
X221907768Y-45523312D01*
X222032250Y-45535572D01*
X222582250Y-45535572D01*
X222706732Y-45523312D01*
X222707250Y-45523155D01*
X222707768Y-45523312D01*
X222832250Y-45535572D01*
X223382250Y-45535572D01*
X223506732Y-45523312D01*
X223507250Y-45523155D01*
X223507768Y-45523312D01*
X223632250Y-45535572D01*
X224182250Y-45535572D01*
X224306732Y-45523312D01*
X224307250Y-45523155D01*
X224307768Y-45523312D01*
X224432250Y-45535572D01*
X224982250Y-45535572D01*
X225106732Y-45523312D01*
X225107250Y-45523155D01*
X225107768Y-45523312D01*
X225232250Y-45535572D01*
X225782250Y-45535572D01*
X225906732Y-45523312D01*
X225907250Y-45523155D01*
X225907768Y-45523312D01*
X226032250Y-45535572D01*
X226582250Y-45535572D01*
X226706732Y-45523312D01*
X226707250Y-45523155D01*
X226707768Y-45523312D01*
X226832250Y-45535572D01*
X227382250Y-45535572D01*
X227424802Y-45531381D01*
X227422250Y-45561750D01*
X227581000Y-45720500D01*
X228092000Y-45720500D01*
X228092000Y-45734428D01*
X228057250Y-45734428D01*
X227932768Y-45746688D01*
X227813070Y-45782998D01*
X227702756Y-45841963D01*
X227606065Y-45921315D01*
X227526713Y-46018006D01*
X227514333Y-46041167D01*
X227422250Y-46133250D01*
X227431796Y-46246837D01*
X227431438Y-46248018D01*
X227419178Y-46372500D01*
X227419178Y-46922500D01*
X227431438Y-47046982D01*
X227431595Y-47047500D01*
X227431438Y-47048018D01*
X227419178Y-47172500D01*
X227419178Y-47722500D01*
X227431438Y-47846982D01*
X227431595Y-47847500D01*
X227431438Y-47848018D01*
X227419178Y-47972500D01*
X227419178Y-48522500D01*
X227431438Y-48646982D01*
X227431595Y-48647500D01*
X227431438Y-48648018D01*
X227419178Y-48772500D01*
X227419178Y-49322500D01*
X227431438Y-49446982D01*
X227431595Y-49447500D01*
X227431438Y-49448018D01*
X227419178Y-49572500D01*
X227419178Y-50122500D01*
X227431438Y-50246982D01*
X227431595Y-50247500D01*
X227431438Y-50248018D01*
X227419178Y-50372500D01*
X227419178Y-50922500D01*
X227431438Y-51046982D01*
X227431595Y-51047500D01*
X227431438Y-51048018D01*
X227419178Y-51172500D01*
X227419178Y-51722500D01*
X227431438Y-51846982D01*
X227431595Y-51847500D01*
X227431438Y-51848018D01*
X227419178Y-51972500D01*
X227419178Y-52522500D01*
X227431438Y-52646982D01*
X227431595Y-52647500D01*
X227431438Y-52648018D01*
X227419178Y-52772500D01*
X227419178Y-53322500D01*
X227431438Y-53446982D01*
X227431595Y-53447500D01*
X227431438Y-53448018D01*
X227419178Y-53572500D01*
X227419178Y-54122500D01*
X227423212Y-54163462D01*
X227382250Y-54159428D01*
X226832250Y-54159428D01*
X226707768Y-54171688D01*
X226706587Y-54172046D01*
X226593000Y-54162500D01*
X226500917Y-54254583D01*
X226477756Y-54266963D01*
X226381065Y-54346315D01*
X226307250Y-54436259D01*
X226233435Y-54346315D01*
X226136744Y-54266963D01*
X226113583Y-54254583D01*
X226021500Y-54162500D01*
X225907913Y-54172046D01*
X225906732Y-54171688D01*
X225782250Y-54159428D01*
X225232250Y-54159428D01*
X225107768Y-54171688D01*
X225107250Y-54171845D01*
X225106732Y-54171688D01*
X224982250Y-54159428D01*
X224432250Y-54159428D01*
X224307768Y-54171688D01*
X224307250Y-54171845D01*
X224306732Y-54171688D01*
X224182250Y-54159428D01*
X223632250Y-54159428D01*
X223507768Y-54171688D01*
X223507250Y-54171845D01*
X223506732Y-54171688D01*
X223382250Y-54159428D01*
X222832250Y-54159428D01*
X222707768Y-54171688D01*
X222707250Y-54171845D01*
X222706732Y-54171688D01*
X222582250Y-54159428D01*
X222032250Y-54159428D01*
X221907768Y-54171688D01*
X221907250Y-54171845D01*
X221906732Y-54171688D01*
X221782250Y-54159428D01*
X221232250Y-54159428D01*
X221107768Y-54171688D01*
X221107250Y-54171845D01*
X221106732Y-54171688D01*
X220982250Y-54159428D01*
X220432250Y-54159428D01*
X220307768Y-54171688D01*
X220306587Y-54172046D01*
X220193000Y-54162500D01*
X220100917Y-54254583D01*
X220077756Y-54266963D01*
X219981065Y-54346315D01*
X219907250Y-54436259D01*
X219833435Y-54346315D01*
X219736744Y-54266963D01*
X219713583Y-54254583D01*
X219621500Y-54162500D01*
X219507913Y-54172046D01*
X219506732Y-54171688D01*
X219382250Y-54159428D01*
X218832250Y-54159428D01*
X218791288Y-54163462D01*
X218795322Y-54122500D01*
X218795322Y-53572500D01*
X218783062Y-53448018D01*
X218782905Y-53447500D01*
X218783062Y-53446982D01*
X218795322Y-53322500D01*
X218795322Y-52772500D01*
X218783062Y-52648018D01*
X218782905Y-52647500D01*
X218783062Y-52646982D01*
X218795322Y-52522500D01*
X218795322Y-51972500D01*
X218783062Y-51848018D01*
X218782905Y-51847500D01*
X218783062Y-51846982D01*
X218795322Y-51722500D01*
X218795322Y-51172500D01*
X218783062Y-51048018D01*
X218782704Y-51046837D01*
X218792250Y-50933250D01*
X218700167Y-50841167D01*
X218687787Y-50818006D01*
X218608435Y-50721315D01*
X218518491Y-50647500D01*
X218608435Y-50573685D01*
X218687787Y-50476994D01*
X218700167Y-50453833D01*
X218792250Y-50361750D01*
X218782704Y-50248163D01*
X218783062Y-50246982D01*
X218795322Y-50122500D01*
X218795322Y-49572500D01*
X218783062Y-49448018D01*
X218782905Y-49447500D01*
X218783062Y-49446982D01*
X218795322Y-49322500D01*
X218795322Y-48772500D01*
X218783062Y-48648018D01*
X218782905Y-48647500D01*
X218783062Y-48646982D01*
X218795322Y-48522500D01*
X218795322Y-47972500D01*
X218783062Y-47848018D01*
X218782905Y-47847500D01*
X218783062Y-47846982D01*
X218795322Y-47722500D01*
X218795322Y-47172500D01*
X218783062Y-47048018D01*
X218782905Y-47047500D01*
X218783062Y-47046982D01*
X218795322Y-46922500D01*
X218795322Y-46372500D01*
X218783062Y-46248018D01*
X218782905Y-46247500D01*
X218783062Y-46246982D01*
X218795322Y-46122500D01*
X218795322Y-45572500D01*
X218791288Y-45531538D01*
X218832250Y-45535572D01*
X219382250Y-45535572D01*
X219506732Y-45523312D01*
X219507250Y-45523155D01*
X219507768Y-45523312D01*
X219632250Y-45535572D01*
X220182250Y-45535572D01*
X220306732Y-45523312D01*
X220307250Y-45523155D01*
X220307768Y-45523312D01*
X220432250Y-45535572D01*
X220982250Y-45535572D01*
X221106732Y-45523312D01*
X221107913Y-45522954D01*
X221221500Y-45532500D01*
X221313583Y-45440417D01*
X221336744Y-45428037D01*
X221433435Y-45348685D01*
X221507250Y-45258741D01*
X221581065Y-45348685D01*
X221581065Y-45348685D01*
G37*
X221581065Y-45348685D02*
X221677756Y-45428037D01*
X221700917Y-45440417D01*
X221793000Y-45532500D01*
X221906587Y-45522954D01*
X221907768Y-45523312D01*
X222032250Y-45535572D01*
X222582250Y-45535572D01*
X222706732Y-45523312D01*
X222707250Y-45523155D01*
X222707768Y-45523312D01*
X222832250Y-45535572D01*
X223382250Y-45535572D01*
X223506732Y-45523312D01*
X223507250Y-45523155D01*
X223507768Y-45523312D01*
X223632250Y-45535572D01*
X224182250Y-45535572D01*
X224306732Y-45523312D01*
X224307250Y-45523155D01*
X224307768Y-45523312D01*
X224432250Y-45535572D01*
X224982250Y-45535572D01*
X225106732Y-45523312D01*
X225107250Y-45523155D01*
X225107768Y-45523312D01*
X225232250Y-45535572D01*
X225782250Y-45535572D01*
X225906732Y-45523312D01*
X225907250Y-45523155D01*
X225907768Y-45523312D01*
X226032250Y-45535572D01*
X226582250Y-45535572D01*
X226706732Y-45523312D01*
X226707250Y-45523155D01*
X226707768Y-45523312D01*
X226832250Y-45535572D01*
X227382250Y-45535572D01*
X227424802Y-45531381D01*
X227422250Y-45561750D01*
X227581000Y-45720500D01*
X228092000Y-45720500D01*
X228092000Y-45734428D01*
X228057250Y-45734428D01*
X227932768Y-45746688D01*
X227813070Y-45782998D01*
X227702756Y-45841963D01*
X227606065Y-45921315D01*
X227526713Y-46018006D01*
X227514333Y-46041167D01*
X227422250Y-46133250D01*
X227431796Y-46246837D01*
X227431438Y-46248018D01*
X227419178Y-46372500D01*
X227419178Y-46922500D01*
X227431438Y-47046982D01*
X227431595Y-47047500D01*
X227431438Y-47048018D01*
X227419178Y-47172500D01*
X227419178Y-47722500D01*
X227431438Y-47846982D01*
X227431595Y-47847500D01*
X227431438Y-47848018D01*
X227419178Y-47972500D01*
X227419178Y-48522500D01*
X227431438Y-48646982D01*
X227431595Y-48647500D01*
X227431438Y-48648018D01*
X227419178Y-48772500D01*
X227419178Y-49322500D01*
X227431438Y-49446982D01*
X227431595Y-49447500D01*
X227431438Y-49448018D01*
X227419178Y-49572500D01*
X227419178Y-50122500D01*
X227431438Y-50246982D01*
X227431595Y-50247500D01*
X227431438Y-50248018D01*
X227419178Y-50372500D01*
X227419178Y-50922500D01*
X227431438Y-51046982D01*
X227431595Y-51047500D01*
X227431438Y-51048018D01*
X227419178Y-51172500D01*
X227419178Y-51722500D01*
X227431438Y-51846982D01*
X227431595Y-51847500D01*
X227431438Y-51848018D01*
X227419178Y-51972500D01*
X227419178Y-52522500D01*
X227431438Y-52646982D01*
X227431595Y-52647500D01*
X227431438Y-52648018D01*
X227419178Y-52772500D01*
X227419178Y-53322500D01*
X227431438Y-53446982D01*
X227431595Y-53447500D01*
X227431438Y-53448018D01*
X227419178Y-53572500D01*
X227419178Y-54122500D01*
X227423212Y-54163462D01*
X227382250Y-54159428D01*
X226832250Y-54159428D01*
X226707768Y-54171688D01*
X226706587Y-54172046D01*
X226593000Y-54162500D01*
X226500917Y-54254583D01*
X226477756Y-54266963D01*
X226381065Y-54346315D01*
X226307250Y-54436259D01*
X226233435Y-54346315D01*
X226136744Y-54266963D01*
X226113583Y-54254583D01*
X226021500Y-54162500D01*
X225907913Y-54172046D01*
X225906732Y-54171688D01*
X225782250Y-54159428D01*
X225232250Y-54159428D01*
X225107768Y-54171688D01*
X225107250Y-54171845D01*
X225106732Y-54171688D01*
X224982250Y-54159428D01*
X224432250Y-54159428D01*
X224307768Y-54171688D01*
X224307250Y-54171845D01*
X224306732Y-54171688D01*
X224182250Y-54159428D01*
X223632250Y-54159428D01*
X223507768Y-54171688D01*
X223507250Y-54171845D01*
X223506732Y-54171688D01*
X223382250Y-54159428D01*
X222832250Y-54159428D01*
X222707768Y-54171688D01*
X222707250Y-54171845D01*
X222706732Y-54171688D01*
X222582250Y-54159428D01*
X222032250Y-54159428D01*
X221907768Y-54171688D01*
X221907250Y-54171845D01*
X221906732Y-54171688D01*
X221782250Y-54159428D01*
X221232250Y-54159428D01*
X221107768Y-54171688D01*
X221107250Y-54171845D01*
X221106732Y-54171688D01*
X220982250Y-54159428D01*
X220432250Y-54159428D01*
X220307768Y-54171688D01*
X220306587Y-54172046D01*
X220193000Y-54162500D01*
X220100917Y-54254583D01*
X220077756Y-54266963D01*
X219981065Y-54346315D01*
X219907250Y-54436259D01*
X219833435Y-54346315D01*
X219736744Y-54266963D01*
X219713583Y-54254583D01*
X219621500Y-54162500D01*
X219507913Y-54172046D01*
X219506732Y-54171688D01*
X219382250Y-54159428D01*
X218832250Y-54159428D01*
X218791288Y-54163462D01*
X218795322Y-54122500D01*
X218795322Y-53572500D01*
X218783062Y-53448018D01*
X218782905Y-53447500D01*
X218783062Y-53446982D01*
X218795322Y-53322500D01*
X218795322Y-52772500D01*
X218783062Y-52648018D01*
X218782905Y-52647500D01*
X218783062Y-52646982D01*
X218795322Y-52522500D01*
X218795322Y-51972500D01*
X218783062Y-51848018D01*
X218782905Y-51847500D01*
X218783062Y-51846982D01*
X218795322Y-51722500D01*
X218795322Y-51172500D01*
X218783062Y-51048018D01*
X218782704Y-51046837D01*
X218792250Y-50933250D01*
X218700167Y-50841167D01*
X218687787Y-50818006D01*
X218608435Y-50721315D01*
X218518491Y-50647500D01*
X218608435Y-50573685D01*
X218687787Y-50476994D01*
X218700167Y-50453833D01*
X218792250Y-50361750D01*
X218782704Y-50248163D01*
X218783062Y-50246982D01*
X218795322Y-50122500D01*
X218795322Y-49572500D01*
X218783062Y-49448018D01*
X218782905Y-49447500D01*
X218783062Y-49446982D01*
X218795322Y-49322500D01*
X218795322Y-48772500D01*
X218783062Y-48648018D01*
X218782905Y-48647500D01*
X218783062Y-48646982D01*
X218795322Y-48522500D01*
X218795322Y-47972500D01*
X218783062Y-47848018D01*
X218782905Y-47847500D01*
X218783062Y-47846982D01*
X218795322Y-47722500D01*
X218795322Y-47172500D01*
X218783062Y-47048018D01*
X218782905Y-47047500D01*
X218783062Y-47046982D01*
X218795322Y-46922500D01*
X218795322Y-46372500D01*
X218783062Y-46248018D01*
X218782905Y-46247500D01*
X218783062Y-46246982D01*
X218795322Y-46122500D01*
X218795322Y-45572500D01*
X218791288Y-45531538D01*
X218832250Y-45535572D01*
X219382250Y-45535572D01*
X219506732Y-45523312D01*
X219507250Y-45523155D01*
X219507768Y-45523312D01*
X219632250Y-45535572D01*
X220182250Y-45535572D01*
X220306732Y-45523312D01*
X220307250Y-45523155D01*
X220307768Y-45523312D01*
X220432250Y-45535572D01*
X220982250Y-45535572D01*
X221106732Y-45523312D01*
X221107913Y-45522954D01*
X221221500Y-45532500D01*
X221313583Y-45440417D01*
X221336744Y-45428037D01*
X221433435Y-45348685D01*
X221507250Y-45258741D01*
X221581065Y-45348685D01*
G36*
X229362000Y-33088610D02*
G01*
X229287213Y-33095976D01*
X229143952Y-33139433D01*
X229011923Y-33210005D01*
X228896198Y-33304978D01*
X228872400Y-33333976D01*
X223951250Y-38255127D01*
X223951250Y-29069663D01*
X224015732Y-29063312D01*
X224135430Y-29027002D01*
X224245744Y-28968037D01*
X224342435Y-28888685D01*
X224421787Y-28791994D01*
X224480752Y-28681680D01*
X224506288Y-28597500D01*
X225790349Y-28597500D01*
X225823042Y-28658664D01*
X225932708Y-28792292D01*
X226066336Y-28901958D01*
X226218791Y-28983447D01*
X226384215Y-29033628D01*
X226556250Y-29050572D01*
X227468750Y-29050572D01*
X227640785Y-29033628D01*
X227806209Y-28983447D01*
X227958664Y-28901958D01*
X228092292Y-28792292D01*
X228201958Y-28658664D01*
X228283447Y-28506209D01*
X228333628Y-28340785D01*
X228350572Y-28168750D01*
X228350572Y-27681250D01*
X228333628Y-27509215D01*
X228283447Y-27343791D01*
X228201958Y-27191336D01*
X228092292Y-27057708D01*
X228085936Y-27052492D01*
X228163685Y-26988685D01*
X228243037Y-26891994D01*
X228302002Y-26781680D01*
X228338312Y-26661982D01*
X228350572Y-26537500D01*
X228347500Y-26335750D01*
X228188750Y-26177000D01*
X227139500Y-26177000D01*
X227139500Y-26197000D01*
X226885500Y-26197000D01*
X226885500Y-26177000D01*
X225836250Y-26177000D01*
X225677500Y-26335750D01*
X225674428Y-26537500D01*
X225686688Y-26661982D01*
X225722998Y-26781680D01*
X225781963Y-26891994D01*
X225861315Y-26988685D01*
X225939064Y-27052492D01*
X225932708Y-27057708D01*
X225916465Y-27077500D01*
X224506288Y-27077500D01*
X224480752Y-26993320D01*
X224477641Y-26987500D01*
X224480752Y-26981680D01*
X224517062Y-26861982D01*
X224529322Y-26737500D01*
X224526250Y-26423250D01*
X224367500Y-26264500D01*
X223318250Y-26264500D01*
X223318250Y-26284500D01*
X223064250Y-26284500D01*
X223064250Y-26264500D01*
X223044250Y-26264500D01*
X223044250Y-26010500D01*
X223064250Y-26010500D01*
X223064250Y-25061250D01*
X223318250Y-25061250D01*
X223318250Y-26010500D01*
X224367500Y-26010500D01*
X224526250Y-25851750D01*
X224529077Y-25562500D01*
X225674428Y-25562500D01*
X225677500Y-25764250D01*
X225836250Y-25923000D01*
X226885500Y-25923000D01*
X226885500Y-25086250D01*
X227139500Y-25086250D01*
X227139500Y-25923000D01*
X228188750Y-25923000D01*
X228347500Y-25764250D01*
X228350572Y-25562500D01*
X228338312Y-25438018D01*
X228302002Y-25318320D01*
X228243037Y-25208006D01*
X228163685Y-25111315D01*
X228066994Y-25031963D01*
X227956680Y-24972998D01*
X227836982Y-24936688D01*
X227712500Y-24924428D01*
X227298250Y-24927500D01*
X227139500Y-25086250D01*
X226885500Y-25086250D01*
X226726750Y-24927500D01*
X226312500Y-24924428D01*
X226188018Y-24936688D01*
X226068320Y-24972998D01*
X225958006Y-25031963D01*
X225861315Y-25111315D01*
X225781963Y-25208006D01*
X225722998Y-25318320D01*
X225686688Y-25438018D01*
X225674428Y-25562500D01*
X224529077Y-25562500D01*
X224529322Y-25537500D01*
X224517062Y-25413018D01*
X224480752Y-25293320D01*
X224421787Y-25183006D01*
X224342435Y-25086315D01*
X224245744Y-25006963D01*
X224135430Y-24947998D01*
X224015732Y-24911688D01*
X223891250Y-24899428D01*
X223477000Y-24902500D01*
X223318250Y-25061250D01*
X223064250Y-25061250D01*
X222905500Y-24902500D01*
X222491250Y-24899428D01*
X222366768Y-24911688D01*
X222247070Y-24947998D01*
X222136756Y-25006963D01*
X222091250Y-25044309D01*
X222045744Y-25006963D01*
X221935430Y-24947998D01*
X221815732Y-24911688D01*
X221691250Y-24899428D01*
X220291250Y-24899428D01*
X220166768Y-24911688D01*
X220047070Y-24947998D01*
X219936756Y-25006963D01*
X219840065Y-25086315D01*
X219760713Y-25183006D01*
X219703523Y-25290000D01*
X218655345Y-25290000D01*
X218567292Y-25182708D01*
X218433664Y-25073042D01*
X218281209Y-24991553D01*
X218115785Y-24941372D01*
X217943750Y-24924428D01*
X217031250Y-24924428D01*
X216859215Y-24941372D01*
X216693791Y-24991553D01*
X216541336Y-25073042D01*
X216407708Y-25182708D01*
X216298042Y-25316336D01*
X216216553Y-25468791D01*
X216166372Y-25634215D01*
X216149428Y-25806250D01*
X216149428Y-26293750D01*
X216166372Y-26465785D01*
X216216553Y-26631209D01*
X216298042Y-26783664D01*
X216407708Y-26917292D01*
X216414064Y-26922508D01*
X216336315Y-26986315D01*
X216256963Y-27083006D01*
X216197998Y-27193320D01*
X216161688Y-27313018D01*
X216149428Y-27437500D01*
X216152500Y-27639250D01*
X216311250Y-27798000D01*
X217360500Y-27798000D01*
X217360500Y-27778000D01*
X217614500Y-27778000D01*
X217614500Y-27798000D01*
X218663750Y-27798000D01*
X218822500Y-27639250D01*
X218825572Y-27437500D01*
X218813312Y-27313018D01*
X218777002Y-27193320D01*
X218718037Y-27083006D01*
X218638685Y-26986315D01*
X218560936Y-26922508D01*
X218567292Y-26917292D01*
X218655345Y-26810000D01*
X218950001Y-26810000D01*
X218950000Y-29426677D01*
X218946324Y-29464000D01*
X218950000Y-29501322D01*
X218950000Y-29501332D01*
X218960997Y-29612985D01*
X218983427Y-29686928D01*
X219004454Y-29756246D01*
X219075026Y-29888276D01*
X219089215Y-29905565D01*
X219169999Y-30004001D01*
X219199003Y-30027804D01*
X221547251Y-32376053D01*
X221547250Y-39243000D01*
X221532750Y-39243000D01*
X221532750Y-35179550D01*
X221536744Y-35138999D01*
X221532750Y-35098447D01*
X221520806Y-34977174D01*
X221473603Y-34821566D01*
X221396950Y-34678159D01*
X221396949Y-34678157D01*
X221329535Y-34596014D01*
X221293791Y-34552459D01*
X221262291Y-34526608D01*
X218899898Y-32164216D01*
X218874041Y-32132709D01*
X218748342Y-32029551D01*
X218681305Y-31993719D01*
X218676958Y-31985586D01*
X218567292Y-31851958D01*
X218560936Y-31846742D01*
X218638685Y-31782935D01*
X218718037Y-31686244D01*
X218777002Y-31575930D01*
X218813312Y-31456232D01*
X218825572Y-31331750D01*
X218822500Y-31130000D01*
X218663750Y-30971250D01*
X217614500Y-30971250D01*
X217614500Y-30991250D01*
X217360500Y-30991250D01*
X217360500Y-30971250D01*
X217340500Y-30971250D01*
X217340500Y-30717250D01*
X217360500Y-30717250D01*
X217360500Y-29880500D01*
X217614500Y-29880500D01*
X217614500Y-30717250D01*
X218663750Y-30717250D01*
X218822500Y-30558500D01*
X218825572Y-30356750D01*
X218813312Y-30232268D01*
X218777002Y-30112570D01*
X218718037Y-30002256D01*
X218638685Y-29905565D01*
X218541994Y-29826213D01*
X218431680Y-29767248D01*
X218311982Y-29730938D01*
X218187500Y-29718678D01*
X217773250Y-29721750D01*
X217614500Y-29880500D01*
X217360500Y-29880500D01*
X217201750Y-29721750D01*
X216787500Y-29718678D01*
X216663018Y-29730938D01*
X216543320Y-29767248D01*
X216433006Y-29826213D01*
X216336315Y-29905565D01*
X216256963Y-30002256D01*
X216197998Y-30112570D01*
X216161688Y-30232268D01*
X216149428Y-30356750D01*
X216152108Y-30532756D01*
X216074898Y-30500774D01*
X215913004Y-30468572D01*
X215701898Y-30257466D01*
X215676041Y-30225959D01*
X215550342Y-30122801D01*
X215406934Y-30046147D01*
X215251326Y-29998944D01*
X215130053Y-29987000D01*
X215130050Y-29987000D01*
X215107247Y-29984754D01*
X215074792Y-29945208D01*
X214941164Y-29835542D01*
X214788709Y-29754053D01*
X214623285Y-29703872D01*
X214503000Y-29692025D01*
X214503000Y-28412500D01*
X216149428Y-28412500D01*
X216161688Y-28536982D01*
X216197998Y-28656680D01*
X216256963Y-28766994D01*
X216336315Y-28863685D01*
X216433006Y-28943037D01*
X216543320Y-29002002D01*
X216663018Y-29038312D01*
X216787500Y-29050572D01*
X217201750Y-29047500D01*
X217360500Y-28888750D01*
X217360500Y-28052000D01*
X217614500Y-28052000D01*
X217614500Y-28888750D01*
X217773250Y-29047500D01*
X218187500Y-29050572D01*
X218311982Y-29038312D01*
X218431680Y-29002002D01*
X218541994Y-28943037D01*
X218638685Y-28863685D01*
X218718037Y-28766994D01*
X218777002Y-28656680D01*
X218813312Y-28536982D01*
X218825572Y-28412500D01*
X218822500Y-28210750D01*
X218663750Y-28052000D01*
X217614500Y-28052000D01*
X217360500Y-28052000D01*
X216311250Y-28052000D01*
X216152500Y-28210750D01*
X216149428Y-28412500D01*
X214503000Y-28412500D01*
X214503000Y-24257000D01*
X229362000Y-24257000D01*
X229362000Y-33088610D01*
X229362000Y-33088610D01*
G37*
X229362000Y-33088610D02*
X229287213Y-33095976D01*
X229143952Y-33139433D01*
X229011923Y-33210005D01*
X228896198Y-33304978D01*
X228872400Y-33333976D01*
X223951250Y-38255127D01*
X223951250Y-29069663D01*
X224015732Y-29063312D01*
X224135430Y-29027002D01*
X224245744Y-28968037D01*
X224342435Y-28888685D01*
X224421787Y-28791994D01*
X224480752Y-28681680D01*
X224506288Y-28597500D01*
X225790349Y-28597500D01*
X225823042Y-28658664D01*
X225932708Y-28792292D01*
X226066336Y-28901958D01*
X226218791Y-28983447D01*
X226384215Y-29033628D01*
X226556250Y-29050572D01*
X227468750Y-29050572D01*
X227640785Y-29033628D01*
X227806209Y-28983447D01*
X227958664Y-28901958D01*
X228092292Y-28792292D01*
X228201958Y-28658664D01*
X228283447Y-28506209D01*
X228333628Y-28340785D01*
X228350572Y-28168750D01*
X228350572Y-27681250D01*
X228333628Y-27509215D01*
X228283447Y-27343791D01*
X228201958Y-27191336D01*
X228092292Y-27057708D01*
X228085936Y-27052492D01*
X228163685Y-26988685D01*
X228243037Y-26891994D01*
X228302002Y-26781680D01*
X228338312Y-26661982D01*
X228350572Y-26537500D01*
X228347500Y-26335750D01*
X228188750Y-26177000D01*
X227139500Y-26177000D01*
X227139500Y-26197000D01*
X226885500Y-26197000D01*
X226885500Y-26177000D01*
X225836250Y-26177000D01*
X225677500Y-26335750D01*
X225674428Y-26537500D01*
X225686688Y-26661982D01*
X225722998Y-26781680D01*
X225781963Y-26891994D01*
X225861315Y-26988685D01*
X225939064Y-27052492D01*
X225932708Y-27057708D01*
X225916465Y-27077500D01*
X224506288Y-27077500D01*
X224480752Y-26993320D01*
X224477641Y-26987500D01*
X224480752Y-26981680D01*
X224517062Y-26861982D01*
X224529322Y-26737500D01*
X224526250Y-26423250D01*
X224367500Y-26264500D01*
X223318250Y-26264500D01*
X223318250Y-26284500D01*
X223064250Y-26284500D01*
X223064250Y-26264500D01*
X223044250Y-26264500D01*
X223044250Y-26010500D01*
X223064250Y-26010500D01*
X223064250Y-25061250D01*
X223318250Y-25061250D01*
X223318250Y-26010500D01*
X224367500Y-26010500D01*
X224526250Y-25851750D01*
X224529077Y-25562500D01*
X225674428Y-25562500D01*
X225677500Y-25764250D01*
X225836250Y-25923000D01*
X226885500Y-25923000D01*
X226885500Y-25086250D01*
X227139500Y-25086250D01*
X227139500Y-25923000D01*
X228188750Y-25923000D01*
X228347500Y-25764250D01*
X228350572Y-25562500D01*
X228338312Y-25438018D01*
X228302002Y-25318320D01*
X228243037Y-25208006D01*
X228163685Y-25111315D01*
X228066994Y-25031963D01*
X227956680Y-24972998D01*
X227836982Y-24936688D01*
X227712500Y-24924428D01*
X227298250Y-24927500D01*
X227139500Y-25086250D01*
X226885500Y-25086250D01*
X226726750Y-24927500D01*
X226312500Y-24924428D01*
X226188018Y-24936688D01*
X226068320Y-24972998D01*
X225958006Y-25031963D01*
X225861315Y-25111315D01*
X225781963Y-25208006D01*
X225722998Y-25318320D01*
X225686688Y-25438018D01*
X225674428Y-25562500D01*
X224529077Y-25562500D01*
X224529322Y-25537500D01*
X224517062Y-25413018D01*
X224480752Y-25293320D01*
X224421787Y-25183006D01*
X224342435Y-25086315D01*
X224245744Y-25006963D01*
X224135430Y-24947998D01*
X224015732Y-24911688D01*
X223891250Y-24899428D01*
X223477000Y-24902500D01*
X223318250Y-25061250D01*
X223064250Y-25061250D01*
X222905500Y-24902500D01*
X222491250Y-24899428D01*
X222366768Y-24911688D01*
X222247070Y-24947998D01*
X222136756Y-25006963D01*
X222091250Y-25044309D01*
X222045744Y-25006963D01*
X221935430Y-24947998D01*
X221815732Y-24911688D01*
X221691250Y-24899428D01*
X220291250Y-24899428D01*
X220166768Y-24911688D01*
X220047070Y-24947998D01*
X219936756Y-25006963D01*
X219840065Y-25086315D01*
X219760713Y-25183006D01*
X219703523Y-25290000D01*
X218655345Y-25290000D01*
X218567292Y-25182708D01*
X218433664Y-25073042D01*
X218281209Y-24991553D01*
X218115785Y-24941372D01*
X217943750Y-24924428D01*
X217031250Y-24924428D01*
X216859215Y-24941372D01*
X216693791Y-24991553D01*
X216541336Y-25073042D01*
X216407708Y-25182708D01*
X216298042Y-25316336D01*
X216216553Y-25468791D01*
X216166372Y-25634215D01*
X216149428Y-25806250D01*
X216149428Y-26293750D01*
X216166372Y-26465785D01*
X216216553Y-26631209D01*
X216298042Y-26783664D01*
X216407708Y-26917292D01*
X216414064Y-26922508D01*
X216336315Y-26986315D01*
X216256963Y-27083006D01*
X216197998Y-27193320D01*
X216161688Y-27313018D01*
X216149428Y-27437500D01*
X216152500Y-27639250D01*
X216311250Y-27798000D01*
X217360500Y-27798000D01*
X217360500Y-27778000D01*
X217614500Y-27778000D01*
X217614500Y-27798000D01*
X218663750Y-27798000D01*
X218822500Y-27639250D01*
X218825572Y-27437500D01*
X218813312Y-27313018D01*
X218777002Y-27193320D01*
X218718037Y-27083006D01*
X218638685Y-26986315D01*
X218560936Y-26922508D01*
X218567292Y-26917292D01*
X218655345Y-26810000D01*
X218950001Y-26810000D01*
X218950000Y-29426677D01*
X218946324Y-29464000D01*
X218950000Y-29501322D01*
X218950000Y-29501332D01*
X218960997Y-29612985D01*
X218983427Y-29686928D01*
X219004454Y-29756246D01*
X219075026Y-29888276D01*
X219089215Y-29905565D01*
X219169999Y-30004001D01*
X219199003Y-30027804D01*
X221547251Y-32376053D01*
X221547250Y-39243000D01*
X221532750Y-39243000D01*
X221532750Y-35179550D01*
X221536744Y-35138999D01*
X221532750Y-35098447D01*
X221520806Y-34977174D01*
X221473603Y-34821566D01*
X221396950Y-34678159D01*
X221396949Y-34678157D01*
X221329535Y-34596014D01*
X221293791Y-34552459D01*
X221262291Y-34526608D01*
X218899898Y-32164216D01*
X218874041Y-32132709D01*
X218748342Y-32029551D01*
X218681305Y-31993719D01*
X218676958Y-31985586D01*
X218567292Y-31851958D01*
X218560936Y-31846742D01*
X218638685Y-31782935D01*
X218718037Y-31686244D01*
X218777002Y-31575930D01*
X218813312Y-31456232D01*
X218825572Y-31331750D01*
X218822500Y-31130000D01*
X218663750Y-30971250D01*
X217614500Y-30971250D01*
X217614500Y-30991250D01*
X217360500Y-30991250D01*
X217360500Y-30971250D01*
X217340500Y-30971250D01*
X217340500Y-30717250D01*
X217360500Y-30717250D01*
X217360500Y-29880500D01*
X217614500Y-29880500D01*
X217614500Y-30717250D01*
X218663750Y-30717250D01*
X218822500Y-30558500D01*
X218825572Y-30356750D01*
X218813312Y-30232268D01*
X218777002Y-30112570D01*
X218718037Y-30002256D01*
X218638685Y-29905565D01*
X218541994Y-29826213D01*
X218431680Y-29767248D01*
X218311982Y-29730938D01*
X218187500Y-29718678D01*
X217773250Y-29721750D01*
X217614500Y-29880500D01*
X217360500Y-29880500D01*
X217201750Y-29721750D01*
X216787500Y-29718678D01*
X216663018Y-29730938D01*
X216543320Y-29767248D01*
X216433006Y-29826213D01*
X216336315Y-29905565D01*
X216256963Y-30002256D01*
X216197998Y-30112570D01*
X216161688Y-30232268D01*
X216149428Y-30356750D01*
X216152108Y-30532756D01*
X216074898Y-30500774D01*
X215913004Y-30468572D01*
X215701898Y-30257466D01*
X215676041Y-30225959D01*
X215550342Y-30122801D01*
X215406934Y-30046147D01*
X215251326Y-29998944D01*
X215130053Y-29987000D01*
X215130050Y-29987000D01*
X215107247Y-29984754D01*
X215074792Y-29945208D01*
X214941164Y-29835542D01*
X214788709Y-29754053D01*
X214623285Y-29703872D01*
X214503000Y-29692025D01*
X214503000Y-28412500D01*
X216149428Y-28412500D01*
X216161688Y-28536982D01*
X216197998Y-28656680D01*
X216256963Y-28766994D01*
X216336315Y-28863685D01*
X216433006Y-28943037D01*
X216543320Y-29002002D01*
X216663018Y-29038312D01*
X216787500Y-29050572D01*
X217201750Y-29047500D01*
X217360500Y-28888750D01*
X217360500Y-28052000D01*
X217614500Y-28052000D01*
X217614500Y-28888750D01*
X217773250Y-29047500D01*
X218187500Y-29050572D01*
X218311982Y-29038312D01*
X218431680Y-29002002D01*
X218541994Y-28943037D01*
X218638685Y-28863685D01*
X218718037Y-28766994D01*
X218777002Y-28656680D01*
X218813312Y-28536982D01*
X218825572Y-28412500D01*
X218822500Y-28210750D01*
X218663750Y-28052000D01*
X217614500Y-28052000D01*
X217360500Y-28052000D01*
X216311250Y-28052000D01*
X216152500Y-28210750D01*
X216149428Y-28412500D01*
X214503000Y-28412500D01*
X214503000Y-24257000D01*
X229362000Y-24257000D01*
X229362000Y-33088610D01*
G36*
X221118250Y-27710500D02*
G01*
X221138250Y-27710500D01*
X221138250Y-27964500D01*
X221118250Y-27964500D01*
X221118250Y-28913750D01*
X221277000Y-29072500D01*
X221691250Y-29075572D01*
X221815732Y-29063312D01*
X221935430Y-29027002D01*
X222045744Y-28968037D01*
X222091250Y-28930691D01*
X222136756Y-28968037D01*
X222247070Y-29027002D01*
X222366768Y-29063312D01*
X222431250Y-29069663D01*
X222431250Y-31110448D01*
X220470000Y-29149199D01*
X220470000Y-29074246D01*
X220705500Y-29072500D01*
X220864250Y-28913750D01*
X220864250Y-27964500D01*
X220844250Y-27964500D01*
X220844250Y-27710500D01*
X220864250Y-27710500D01*
X220864250Y-27690500D01*
X221118250Y-27690500D01*
X221118250Y-27710500D01*
X221118250Y-27710500D01*
G37*
X221118250Y-27710500D02*
X221138250Y-27710500D01*
X221138250Y-27964500D01*
X221118250Y-27964500D01*
X221118250Y-28913750D01*
X221277000Y-29072500D01*
X221691250Y-29075572D01*
X221815732Y-29063312D01*
X221935430Y-29027002D01*
X222045744Y-28968037D01*
X222091250Y-28930691D01*
X222136756Y-28968037D01*
X222247070Y-29027002D01*
X222366768Y-29063312D01*
X222431250Y-29069663D01*
X222431250Y-31110448D01*
X220470000Y-29149199D01*
X220470000Y-29074246D01*
X220705500Y-29072500D01*
X220864250Y-28913750D01*
X220864250Y-27964500D01*
X220844250Y-27964500D01*
X220844250Y-27710500D01*
X220864250Y-27710500D01*
X220864250Y-27690500D01*
X221118250Y-27690500D01*
X221118250Y-27710500D01*
M02*
