G04 #@! TF.GenerationSoftware,KiCad,Pcbnew,(5.1.4)-1*
G04 #@! TF.CreationDate,2022-05-13T01:11:50-07:00*
G04 #@! TF.ProjectId,bakeneko60tho,62616b65-6e65-46b6-9f36-3074686f2e6b,rev?*
G04 #@! TF.SameCoordinates,Original*
G04 #@! TF.FileFunction,Copper,L1,Top*
G04 #@! TF.FilePolarity,Positive*
%FSLAX46Y46*%
G04 Gerber Fmt 4.6, Leading zero omitted, Abs format (unit mm)*
G04 Created by KiCad (PCBNEW (5.1.4)-1) date 2022-05-13 01:11:50*
%MOMM*%
%LPD*%
G04 APERTURE LIST*
%ADD10C,2.250000*%
%ADD11C,0.800000*%
%ADD12C,0.381000*%
%ADD13C,0.250000*%
G04 APERTURE END LIST*
D10*
X24765000Y-17145000D03*
X18415000Y-19685000D03*
X215265000Y-36195000D03*
X208915000Y-38735000D03*
X234315000Y-36195000D03*
X227965000Y-38735000D03*
X81915000Y-36195000D03*
X75565000Y-38735000D03*
X81915000Y-17145000D03*
X75565000Y-19685000D03*
X81915000Y-74295000D03*
X75565000Y-76835000D03*
X129540000Y-93345000D03*
X123190000Y-95885000D03*
X291465000Y-93345000D03*
X285115000Y-95885000D03*
X272415000Y-93345000D03*
X266065000Y-95885000D03*
X253365000Y-93345000D03*
X247015000Y-95885000D03*
X234315000Y-93345000D03*
X227965000Y-95885000D03*
X215265000Y-93345000D03*
X208915000Y-95885000D03*
X196215000Y-93345000D03*
X189865000Y-95885000D03*
X177165000Y-93345000D03*
X170815000Y-95885000D03*
X158115000Y-93345000D03*
X151765000Y-95885000D03*
X100965000Y-93345000D03*
X94615000Y-95885000D03*
X81915000Y-93345000D03*
X75565000Y-95885000D03*
X62865000Y-93345000D03*
X56515000Y-95885000D03*
X43815000Y-93345000D03*
X37465000Y-95885000D03*
X24765000Y-93345000D03*
X18415000Y-95885000D03*
X291465000Y-74295000D03*
X285115000Y-76835000D03*
X272415000Y-74295000D03*
X266065000Y-76835000D03*
X243840000Y-74295000D03*
X237490000Y-76835000D03*
X215265000Y-74295000D03*
X208915000Y-76835000D03*
X196215000Y-74295000D03*
X189865000Y-76835000D03*
X177165000Y-74295000D03*
X170815000Y-76835000D03*
X158115000Y-74295000D03*
X151765000Y-76835000D03*
X139065000Y-74295000D03*
X132715000Y-76835000D03*
X120015000Y-74295000D03*
X113665000Y-76835000D03*
X100965000Y-74295000D03*
X94615000Y-76835000D03*
X62865000Y-74295000D03*
X56515000Y-76835000D03*
X43815000Y-74295000D03*
X37465000Y-76835000D03*
X24765000Y-74295000D03*
X18415000Y-76835000D03*
X291465000Y-55245000D03*
X285115000Y-57785000D03*
X262890000Y-55245000D03*
X256540000Y-57785000D03*
X234315000Y-55245000D03*
X227965000Y-57785000D03*
X215265000Y-55245000D03*
X208915000Y-57785000D03*
X196215000Y-55245000D03*
X189865000Y-57785000D03*
X177165000Y-55245000D03*
X170815000Y-57785000D03*
X158115000Y-55245000D03*
X151765000Y-57785000D03*
X139065000Y-55245000D03*
X132715000Y-57785000D03*
X120015000Y-55245000D03*
X113665000Y-57785000D03*
X100965000Y-55245000D03*
X94615000Y-57785000D03*
X81915000Y-55245000D03*
X75565000Y-57785000D03*
X62865000Y-55245000D03*
X56515000Y-57785000D03*
X43815000Y-55245000D03*
X37465000Y-57785000D03*
X24765000Y-55245000D03*
X18415000Y-57785000D03*
X291465000Y-36195000D03*
X285115000Y-38735000D03*
X272415000Y-36195000D03*
X266065000Y-38735000D03*
X253365000Y-36195000D03*
X247015000Y-38735000D03*
X196215000Y-36195000D03*
X189865000Y-38735000D03*
X177165000Y-36195000D03*
X170815000Y-38735000D03*
X158115000Y-36195000D03*
X151765000Y-38735000D03*
X139065000Y-36195000D03*
X132715000Y-38735000D03*
X120015000Y-36195000D03*
X113665000Y-38735000D03*
X100965000Y-36195000D03*
X94615000Y-38735000D03*
X62865000Y-36195000D03*
X56515000Y-38735000D03*
X43815000Y-36195000D03*
X37465000Y-38735000D03*
X24765000Y-36195000D03*
X18415000Y-38735000D03*
X291465000Y-17145000D03*
X285115000Y-19685000D03*
X272415000Y-17145000D03*
X266065000Y-19685000D03*
X253365000Y-17145000D03*
X247015000Y-19685000D03*
X234315000Y-17145000D03*
X227965000Y-19685000D03*
X215265000Y-17145000D03*
X208915000Y-19685000D03*
X196215000Y-17145000D03*
X189865000Y-19685000D03*
X177165000Y-17145000D03*
X170815000Y-19685000D03*
X158115000Y-17145000D03*
X151765000Y-19685000D03*
X139065000Y-17145000D03*
X132715000Y-19685000D03*
X120015000Y-17145000D03*
X113665000Y-19685000D03*
X100965000Y-17145000D03*
X94615000Y-19685000D03*
X62865000Y-17145000D03*
X56515000Y-19685000D03*
X43815000Y-17145000D03*
X37465000Y-19685000D03*
D11*
X215773000Y-31496000D03*
X215138000Y-48006000D03*
X213271500Y-53047500D03*
X226314000Y-62230000D03*
X234188000Y-46990000D03*
X229997000Y-57023000D03*
X241300000Y-48260000D03*
X241332901Y-24543901D03*
X228854000Y-44196000D03*
X217424000Y-44196000D03*
X241300000Y-52324000D03*
X241231401Y-62643901D03*
X208407000Y-55118000D03*
X250756401Y-81693901D03*
X242443000Y-52324000D03*
X279331401Y-100743901D03*
X279331401Y-51620401D03*
X70866000Y-52832000D03*
X70866000Y-33274000D03*
X221488000Y-62775000D03*
X221488000Y-64225000D03*
X15944999Y-67506999D03*
X220487997Y-62775000D03*
X220487997Y-64225000D03*
X34994999Y-66871999D03*
X219487994Y-62775000D03*
X219456000Y-64225000D03*
X54044999Y-66351001D03*
X218487991Y-62775000D03*
X218455997Y-64225000D03*
X73094999Y-65728999D03*
X216662000Y-62775000D03*
X216662000Y-64225000D03*
X92144999Y-64966999D03*
X215661997Y-62775000D03*
X215661997Y-64225000D03*
X111194999Y-64192001D03*
X130244999Y-47313999D03*
X149294999Y-46555999D03*
X168344999Y-45830999D03*
X187394999Y-45105999D03*
X89281000Y-50927000D03*
X89154000Y-33020000D03*
X90424000Y-50927000D03*
X90043000Y-32512000D03*
D12*
X215773000Y-31496000D02*
X217678000Y-33401000D01*
X217678000Y-33401000D02*
X217678000Y-38735000D01*
X217678000Y-38735000D02*
X215519000Y-40894000D01*
X215519000Y-40894000D02*
X215519000Y-42418000D01*
X215519000Y-42418000D02*
X215138000Y-42799000D01*
X215138000Y-42799000D02*
X215138000Y-48006000D01*
X213271500Y-53047500D02*
X215607500Y-53047500D01*
X224790000Y-62230000D02*
X226314000Y-62230000D01*
X215607500Y-53047500D02*
X224790000Y-62230000D01*
X234188000Y-46990000D02*
X234188000Y-52832000D01*
X234188000Y-52832000D02*
X229997000Y-57023000D01*
X215607500Y-48475500D02*
X215138000Y-48006000D01*
X215607500Y-53047500D02*
X215607500Y-48475500D01*
D13*
X241300000Y-24576802D02*
X241332901Y-24543901D01*
X241300000Y-48260000D02*
X241300000Y-24576802D01*
X217424000Y-44196000D02*
X228854000Y-44196000D01*
X241300000Y-52324000D02*
X241300000Y-62575302D01*
X241300000Y-62575302D02*
X241231401Y-62643901D01*
X215265000Y-55245000D02*
X208534000Y-55245000D01*
X208534000Y-55245000D02*
X208407000Y-55118000D01*
X251357249Y-81093053D02*
X251357249Y-75208249D01*
X250756401Y-81693901D02*
X251357249Y-81093053D01*
X251357249Y-75208249D02*
X242443000Y-66294000D01*
X242443000Y-66294000D02*
X242443000Y-52324000D01*
X279331401Y-100743901D02*
X279331401Y-52255401D01*
X279331401Y-52255401D02*
X279331401Y-51620401D01*
D12*
X70866000Y-34093685D02*
X70866000Y-52832000D01*
X70866000Y-33274000D02*
X70866000Y-34093685D01*
D13*
X17290001Y-37610001D02*
X18415000Y-38735000D01*
X15944999Y-36264999D02*
X17290001Y-37610001D01*
X15944999Y-20564011D02*
X15944999Y-36264999D01*
X16824010Y-19685000D02*
X15944999Y-20564011D01*
X18415000Y-19685000D02*
X16824010Y-19685000D01*
X17290001Y-56660001D02*
X18415000Y-57785000D01*
X15944999Y-55314999D02*
X17290001Y-56660001D01*
X15944999Y-39614011D02*
X15944999Y-55314999D01*
X16824010Y-38735000D02*
X15944999Y-39614011D01*
X18415000Y-38735000D02*
X16824010Y-38735000D01*
X17290001Y-75710001D02*
X18415000Y-76835000D01*
X15944999Y-74364999D02*
X17290001Y-75710001D01*
X16824010Y-57785000D02*
X15944999Y-58664011D01*
X18415000Y-57785000D02*
X16824010Y-57785000D01*
X17290001Y-94760001D02*
X18415000Y-95885000D01*
X15944999Y-93414999D02*
X17290001Y-94760001D01*
X15944999Y-77714011D02*
X15944999Y-93414999D01*
X16824010Y-76835000D02*
X15944999Y-77714011D01*
X18415000Y-76835000D02*
X16824010Y-76835000D01*
X221488000Y-62775000D02*
X221488000Y-64225000D01*
X15944999Y-67506999D02*
X15944999Y-74364999D01*
X15944999Y-58664011D02*
X15944999Y-67506999D01*
X36340001Y-37610001D02*
X37465000Y-38735000D01*
X34994999Y-36264999D02*
X36340001Y-37610001D01*
X34994999Y-20564011D02*
X34994999Y-36264999D01*
X35874010Y-19685000D02*
X34994999Y-20564011D01*
X37465000Y-19685000D02*
X35874010Y-19685000D01*
X36340001Y-56660001D02*
X37465000Y-57785000D01*
X34994999Y-55314999D02*
X36340001Y-56660001D01*
X34994999Y-39614011D02*
X34994999Y-55314999D01*
X35874010Y-38735000D02*
X34994999Y-39614011D01*
X37465000Y-38735000D02*
X35874010Y-38735000D01*
X36340001Y-75710001D02*
X37465000Y-76835000D01*
X34994999Y-74364999D02*
X36340001Y-75710001D01*
X35874010Y-57785000D02*
X34994999Y-58664011D01*
X37465000Y-57785000D02*
X35874010Y-57785000D01*
X36340001Y-94760001D02*
X37465000Y-95885000D01*
X34994999Y-93414999D02*
X36340001Y-94760001D01*
X34994999Y-77714011D02*
X34994999Y-93414999D01*
X35874010Y-76835000D02*
X34994999Y-77714011D01*
X37465000Y-76835000D02*
X35874010Y-76835000D01*
X220487997Y-62775000D02*
X220487997Y-64225000D01*
X34994999Y-58664011D02*
X34994999Y-66871999D01*
X34994999Y-66871999D02*
X34994999Y-74364999D01*
X55390001Y-37610001D02*
X56515000Y-38735000D01*
X54044999Y-36264999D02*
X55390001Y-37610001D01*
X54044999Y-21648999D02*
X54044999Y-36264999D01*
X56008998Y-19685000D02*
X54044999Y-21648999D01*
X56515000Y-19685000D02*
X56008998Y-19685000D01*
X55390001Y-56660001D02*
X56515000Y-57785000D01*
X54044999Y-55314999D02*
X55390001Y-56660001D01*
X54044999Y-39614011D02*
X54044999Y-55314999D01*
X54924010Y-38735000D02*
X54044999Y-39614011D01*
X56515000Y-38735000D02*
X54924010Y-38735000D01*
X55390001Y-75710001D02*
X56515000Y-76835000D01*
X54044999Y-74364999D02*
X55390001Y-75710001D01*
X54924010Y-57785000D02*
X54044999Y-58664011D01*
X56515000Y-57785000D02*
X54924010Y-57785000D01*
X55390001Y-94760001D02*
X56515000Y-95885000D01*
X54044999Y-93414999D02*
X55390001Y-94760001D01*
X54044999Y-77714011D02*
X54044999Y-93414999D01*
X54924010Y-76835000D02*
X54044999Y-77714011D01*
X56515000Y-76835000D02*
X54924010Y-76835000D01*
X219487994Y-62775000D02*
X219487994Y-64193006D01*
X219487994Y-64193006D02*
X219456000Y-64225000D01*
X54044999Y-66351001D02*
X54044999Y-74364999D01*
X54044999Y-58664011D02*
X54044999Y-66351001D01*
X74440001Y-37610001D02*
X75565000Y-38735000D01*
X73094999Y-36264999D02*
X74440001Y-37610001D01*
X73094999Y-20564011D02*
X73094999Y-36264999D01*
X73974010Y-19685000D02*
X73094999Y-20564011D01*
X75565000Y-19685000D02*
X73974010Y-19685000D01*
X74440001Y-56660001D02*
X75565000Y-57785000D01*
X73094999Y-55314999D02*
X74440001Y-56660001D01*
X73094999Y-39614011D02*
X73094999Y-55314999D01*
X73974010Y-38735000D02*
X73094999Y-39614011D01*
X75565000Y-38735000D02*
X73974010Y-38735000D01*
X74440001Y-75710001D02*
X75565000Y-76835000D01*
X73094999Y-74364999D02*
X74440001Y-75710001D01*
X73974010Y-57785000D02*
X73094999Y-58664011D01*
X75565000Y-57785000D02*
X73974010Y-57785000D01*
X74440001Y-94760001D02*
X75565000Y-95885000D01*
X73094999Y-93414999D02*
X74440001Y-94760001D01*
X73094999Y-77714011D02*
X73094999Y-93414999D01*
X73974010Y-76835000D02*
X73094999Y-77714011D01*
X75565000Y-76835000D02*
X73974010Y-76835000D01*
X218487991Y-62775000D02*
X218487991Y-64193006D01*
X218487991Y-64193006D02*
X218455997Y-64225000D01*
X73094999Y-58664011D02*
X73094999Y-65728999D01*
X73094999Y-65728999D02*
X73094999Y-74364999D01*
X93490001Y-37610001D02*
X94615000Y-38735000D01*
X92144999Y-36264999D02*
X93490001Y-37610001D01*
X92144999Y-20564011D02*
X92144999Y-36264999D01*
X93024010Y-19685000D02*
X92144999Y-20564011D01*
X94615000Y-19685000D02*
X93024010Y-19685000D01*
X93490001Y-56660001D02*
X94615000Y-57785000D01*
X92144999Y-55314999D02*
X93490001Y-56660001D01*
X92144999Y-39614011D02*
X92144999Y-55314999D01*
X93024010Y-38735000D02*
X92144999Y-39614011D01*
X94615000Y-38735000D02*
X93024010Y-38735000D01*
X93490001Y-75710001D02*
X94615000Y-76835000D01*
X92144999Y-74364999D02*
X93490001Y-75710001D01*
X93024010Y-57785000D02*
X92144999Y-58664011D01*
X94615000Y-57785000D02*
X93024010Y-57785000D01*
X93490001Y-94760001D02*
X94615000Y-95885000D01*
X92144999Y-93414999D02*
X93490001Y-94760001D01*
X92144999Y-77714011D02*
X92144999Y-93414999D01*
X93024010Y-76835000D02*
X92144999Y-77714011D01*
X94615000Y-76835000D02*
X93024010Y-76835000D01*
X216662000Y-62775000D02*
X216662000Y-64225000D01*
X92144999Y-58664011D02*
X92144999Y-64966999D01*
X92144999Y-64966999D02*
X92144999Y-74364999D01*
X112540001Y-37610001D02*
X113665000Y-38735000D01*
X111194999Y-36264999D02*
X112540001Y-37610001D01*
X111194999Y-20564011D02*
X111194999Y-36264999D01*
X112074010Y-19685000D02*
X111194999Y-20564011D01*
X113665000Y-19685000D02*
X112074010Y-19685000D01*
X112540001Y-56660001D02*
X113665000Y-57785000D01*
X111194999Y-55314999D02*
X112540001Y-56660001D01*
X111194999Y-39614011D02*
X111194999Y-55314999D01*
X112074010Y-38735000D02*
X111194999Y-39614011D01*
X113665000Y-38735000D02*
X112074010Y-38735000D01*
X112540001Y-75710001D02*
X113665000Y-76835000D01*
X111194999Y-74364999D02*
X112540001Y-75710001D01*
X112074010Y-57785000D02*
X111194999Y-58664011D01*
X113665000Y-57785000D02*
X112074010Y-57785000D01*
X123190000Y-94294010D02*
X123190000Y-95885000D01*
X114789999Y-85894009D02*
X123190000Y-94294010D01*
X114789999Y-77959999D02*
X114789999Y-85894009D01*
X113665000Y-76835000D02*
X114789999Y-77959999D01*
X215661997Y-62775000D02*
X215661997Y-64225000D01*
X111194999Y-58664011D02*
X111194999Y-64192001D01*
X111194999Y-64192001D02*
X111194999Y-74364999D01*
X131590001Y-37610001D02*
X132715000Y-38735000D01*
X130244999Y-36264999D02*
X131590001Y-37610001D01*
X130244999Y-20564011D02*
X130244999Y-36264999D01*
X131124010Y-19685000D02*
X130244999Y-20564011D01*
X132715000Y-19685000D02*
X131124010Y-19685000D01*
X131590001Y-56660001D02*
X132715000Y-57785000D01*
X130244999Y-55314999D02*
X131590001Y-56660001D01*
X131124010Y-38735000D02*
X130244999Y-39614011D01*
X132715000Y-38735000D02*
X131124010Y-38735000D01*
X131590001Y-75710001D02*
X132715000Y-76835000D01*
X130244999Y-74364999D02*
X131590001Y-75710001D01*
X130244999Y-58664011D02*
X130244999Y-74364999D01*
X131124010Y-57785000D02*
X130244999Y-58664011D01*
X132715000Y-57785000D02*
X131124010Y-57785000D01*
X130244999Y-39614011D02*
X130244999Y-47313999D01*
X130244999Y-47313999D02*
X130244999Y-55314999D01*
X150640001Y-37610001D02*
X151765000Y-38735000D01*
X149294999Y-36264999D02*
X150640001Y-37610001D01*
X149294999Y-20564011D02*
X149294999Y-36264999D01*
X150174010Y-19685000D02*
X149294999Y-20564011D01*
X151765000Y-19685000D02*
X150174010Y-19685000D01*
X150640001Y-56660001D02*
X151765000Y-57785000D01*
X149294999Y-55314999D02*
X150640001Y-56660001D01*
X150174010Y-38735000D02*
X149294999Y-39614011D01*
X151765000Y-38735000D02*
X150174010Y-38735000D01*
X150640001Y-75710001D02*
X151765000Y-76835000D01*
X149294999Y-74364999D02*
X150640001Y-75710001D01*
X149294999Y-58664011D02*
X149294999Y-74364999D01*
X150174010Y-57785000D02*
X149294999Y-58664011D01*
X151765000Y-57785000D02*
X150174010Y-57785000D01*
X150640001Y-94760001D02*
X151765000Y-95885000D01*
X149294999Y-93414999D02*
X150640001Y-94760001D01*
X149294999Y-77714011D02*
X149294999Y-93414999D01*
X150174010Y-76835000D02*
X149294999Y-77714011D01*
X151765000Y-76835000D02*
X150174010Y-76835000D01*
X149294999Y-39614011D02*
X149294999Y-55314999D01*
X169690001Y-37610001D02*
X170815000Y-38735000D01*
X168344999Y-36264999D02*
X169690001Y-37610001D01*
X168344999Y-20564011D02*
X168344999Y-36264999D01*
X169224010Y-19685000D02*
X168344999Y-20564011D01*
X170815000Y-19685000D02*
X169224010Y-19685000D01*
X169690001Y-56660001D02*
X170815000Y-57785000D01*
X168344999Y-55314999D02*
X169690001Y-56660001D01*
X169224010Y-38735000D02*
X168344999Y-39614011D01*
X170815000Y-38735000D02*
X169224010Y-38735000D01*
X169690001Y-75710001D02*
X170815000Y-76835000D01*
X168344999Y-74364999D02*
X169690001Y-75710001D01*
X168344999Y-58664011D02*
X168344999Y-74364999D01*
X169224010Y-57785000D02*
X168344999Y-58664011D01*
X170815000Y-57785000D02*
X169224010Y-57785000D01*
X169690001Y-94760001D02*
X170815000Y-95885000D01*
X168344999Y-93414999D02*
X169690001Y-94760001D01*
X168344999Y-77714011D02*
X168344999Y-93414999D01*
X169224010Y-76835000D02*
X168344999Y-77714011D01*
X170815000Y-76835000D02*
X169224010Y-76835000D01*
X168344999Y-39614011D02*
X168344999Y-55314999D01*
X188740001Y-37610001D02*
X189865000Y-38735000D01*
X187394999Y-36264999D02*
X188740001Y-37610001D01*
X187394999Y-20564011D02*
X187394999Y-36264999D01*
X188274010Y-19685000D02*
X187394999Y-20564011D01*
X189865000Y-19685000D02*
X188274010Y-19685000D01*
X188740001Y-56660001D02*
X189865000Y-57785000D01*
X187394999Y-55314999D02*
X188740001Y-56660001D01*
X188274010Y-38735000D02*
X187394999Y-39614011D01*
X189865000Y-38735000D02*
X188274010Y-38735000D01*
X188740001Y-75710001D02*
X189865000Y-76835000D01*
X187394999Y-74364999D02*
X188740001Y-75710001D01*
X187394999Y-58664011D02*
X187394999Y-74364999D01*
X188274010Y-57785000D02*
X187394999Y-58664011D01*
X189865000Y-57785000D02*
X188274010Y-57785000D01*
X188740001Y-94760001D02*
X189865000Y-95885000D01*
X187394999Y-93414999D02*
X188740001Y-94760001D01*
X187394999Y-77714011D02*
X187394999Y-93414999D01*
X188274010Y-76835000D02*
X187394999Y-77714011D01*
X189865000Y-76835000D02*
X188274010Y-76835000D01*
X187394999Y-39614011D02*
X187394999Y-55314999D01*
X207790001Y-37610001D02*
X208915000Y-38735000D01*
X206444999Y-36264999D02*
X207790001Y-37610001D01*
X206444999Y-20564011D02*
X206444999Y-36264999D01*
X207324010Y-19685000D02*
X206444999Y-20564011D01*
X208915000Y-19685000D02*
X207324010Y-19685000D01*
X207790001Y-56660001D02*
X208915000Y-57785000D01*
X206444999Y-55314999D02*
X207790001Y-56660001D01*
X206444999Y-39614011D02*
X206444999Y-55314999D01*
X207324010Y-38735000D02*
X206444999Y-39614011D01*
X208915000Y-38735000D02*
X207324010Y-38735000D01*
X207790001Y-75710001D02*
X208915000Y-76835000D01*
X206444999Y-74364999D02*
X207790001Y-75710001D01*
X206444999Y-58664011D02*
X206444999Y-74364999D01*
X207324010Y-57785000D02*
X206444999Y-58664011D01*
X208915000Y-57785000D02*
X207324010Y-57785000D01*
X207790001Y-94760001D02*
X208915000Y-95885000D01*
X206444999Y-93414999D02*
X207790001Y-94760001D01*
X206444999Y-77714011D02*
X206444999Y-93414999D01*
X207324010Y-76835000D02*
X206444999Y-77714011D01*
X208915000Y-76835000D02*
X207324010Y-76835000D01*
X236365001Y-75710001D02*
X237490000Y-76835000D01*
X229089999Y-68434999D02*
X236365001Y-75710001D01*
X229089999Y-58909999D02*
X229089999Y-68434999D01*
X227965000Y-57785000D02*
X229089999Y-58909999D01*
X226840001Y-94760001D02*
X227965000Y-95885000D01*
X226840001Y-85894009D02*
X226840001Y-94760001D01*
X235899010Y-76835000D02*
X226840001Y-85894009D01*
X237490000Y-76835000D02*
X235899010Y-76835000D01*
X229089999Y-20809999D02*
X227965000Y-19685000D01*
X229089999Y-37610001D02*
X229089999Y-20809999D01*
X227965000Y-38735000D02*
X229089999Y-37610001D01*
X227965000Y-40325990D02*
X227965000Y-38735000D01*
X227965000Y-40896974D02*
X227965000Y-40325990D01*
X230087001Y-43018975D02*
X227965000Y-40896974D01*
X230087001Y-55662999D02*
X230087001Y-43018975D01*
X227965000Y-57785000D02*
X230087001Y-55662999D01*
X245890001Y-37610001D02*
X247015000Y-38735000D01*
X244544999Y-36264999D02*
X245890001Y-37610001D01*
X244544999Y-20564011D02*
X244544999Y-36264999D01*
X245424010Y-19685000D02*
X244544999Y-20564011D01*
X247015000Y-19685000D02*
X245424010Y-19685000D01*
X255415001Y-56660001D02*
X256540000Y-57785000D01*
X248139999Y-49384999D02*
X255415001Y-56660001D01*
X248139999Y-39859999D02*
X248139999Y-49384999D01*
X247015000Y-38735000D02*
X248139999Y-39859999D01*
X256540000Y-59375990D02*
X256540000Y-57785000D01*
X256540000Y-80864276D02*
X256540000Y-59375990D01*
X247015000Y-90389276D02*
X256540000Y-80864276D01*
X247015000Y-95885000D02*
X247015000Y-90389276D01*
X264940001Y-37610001D02*
X266065000Y-38735000D01*
X263594999Y-36264999D02*
X264940001Y-37610001D01*
X263594999Y-20564011D02*
X263594999Y-36264999D01*
X264474010Y-19685000D02*
X263594999Y-20564011D01*
X266065000Y-19685000D02*
X264474010Y-19685000D01*
X267189999Y-39859999D02*
X266065000Y-38735000D01*
X267189999Y-75710001D02*
X267189999Y-39859999D01*
X266065000Y-76835000D02*
X267189999Y-75710001D01*
X264940001Y-94760001D02*
X266065000Y-95885000D01*
X263594999Y-93414999D02*
X264940001Y-94760001D01*
X263594999Y-77714011D02*
X263594999Y-93414999D01*
X264474010Y-76835000D02*
X263594999Y-77714011D01*
X266065000Y-76835000D02*
X264474010Y-76835000D01*
X283990001Y-37610001D02*
X285115000Y-38735000D01*
X282644999Y-36264999D02*
X283990001Y-37610001D01*
X282644999Y-20564011D02*
X282644999Y-36264999D01*
X283524010Y-19685000D02*
X282644999Y-20564011D01*
X285115000Y-19685000D02*
X283524010Y-19685000D01*
X283990001Y-56660001D02*
X285115000Y-57785000D01*
X282644999Y-55314999D02*
X283990001Y-56660001D01*
X282644999Y-39614011D02*
X282644999Y-55314999D01*
X283524010Y-38735000D02*
X282644999Y-39614011D01*
X285115000Y-38735000D02*
X283524010Y-38735000D01*
X283990001Y-75710001D02*
X285115000Y-76835000D01*
X282644999Y-74364999D02*
X283990001Y-75710001D01*
X282644999Y-58664011D02*
X282644999Y-74364999D01*
X283524010Y-57785000D02*
X282644999Y-58664011D01*
X285115000Y-57785000D02*
X283524010Y-57785000D01*
X283990001Y-94760001D02*
X285115000Y-95885000D01*
X282644999Y-93414999D02*
X283990001Y-94760001D01*
X282644999Y-77714011D02*
X282644999Y-93414999D01*
X283524010Y-76835000D02*
X282644999Y-77714011D01*
X285115000Y-76835000D02*
X283524010Y-76835000D01*
X89281000Y-50927000D02*
X89281000Y-50361315D01*
X89281000Y-50361315D02*
X89281000Y-49403000D01*
X89281000Y-49403000D02*
X89281000Y-33147000D01*
X89281000Y-33147000D02*
X89154000Y-33020000D01*
X90024001Y-48024999D02*
X90024001Y-32530999D01*
X90024001Y-50527001D02*
X90024001Y-48024999D01*
X90424000Y-50927000D02*
X90024001Y-50527001D01*
X90024001Y-32530999D02*
X90043000Y-32512000D01*
M02*
