M48
; DRILL file {KiCad (5.1.4)-1} date 5/13/2022 1:11:56 AM
; FORMAT={-:-/ absolute / inch / decimal}
; #@! TF.CreationDate,2022-05-13T01:11:56-07:00
; #@! TF.GenerationSoftware,Kicad,Pcbnew,(5.1.4)-1
; #@! TF.FileFunction,Plated,1,2,PTH
FMAT,2
INCH
T1C0.0157
T2C0.0579
%
G90
G05
T1
X0.6278Y-2.6578
X1.3778Y-2.6328
X2.1278Y-2.6122
X2.79Y-1.31
X2.79Y-2.08
X2.8778Y-2.5878
X3.51Y-1.3
X3.515Y-2.005
X3.545Y-1.28
X3.56Y-2.005
X3.6278Y-2.5578
X4.3778Y-2.5272
X5.1278Y-1.8628
X5.8778Y-1.8329
X6.6278Y-1.8044
X7.3778Y-1.7758
X8.205Y-2.17
X8.3965Y-2.0885
X8.47Y-1.89
X8.4906Y-2.4715
X8.4906Y-2.5285
X8.495Y-1.24
X8.53Y-2.4715
X8.53Y-2.5285
X8.56Y-1.74
X8.6006Y-2.5285
X8.6019Y-2.4715
X8.64Y-2.5285
X8.6413Y-2.4715
X8.6806Y-2.4715
X8.6806Y-2.5285
X8.72Y-2.4715
X8.72Y-2.5285
X8.91Y-2.45
X9.01Y-1.74
X9.055Y-2.245
X9.22Y-1.85
X9.4973Y-2.4663
X9.5Y-1.9
X9.5Y-2.06
X9.5013Y-0.9663
X9.545Y-2.06
X9.8723Y-3.2163
X10.9973Y-2.0323
X10.9973Y-3.9663
T2
X5.975Y-2.275
X6.225Y-2.175
X6.725Y-0.775
X6.975Y-0.675
X10.475Y-3.775
X10.725Y-3.675
X7.475Y-1.525
X7.725Y-1.425
X8.975Y-2.275
X9.225Y-2.175
X4.475Y-1.525
X4.725Y-1.425
X8.975Y-0.775
X9.225Y-0.675
X7.475Y-3.775
X7.725Y-3.675
X7.475Y-0.775
X7.725Y-0.675
X1.475Y-3.025
X1.725Y-2.925
X5.225Y-0.775
X5.475Y-0.675
X6.725Y-3.025
X6.975Y-2.925
X2.975Y-3.775
X3.225Y-3.675
X10.475Y-3.025
X10.725Y-2.925
X11.225Y-3.025
X11.475Y-2.925
X0.725Y-2.275
X0.975Y-2.175
X8.225Y-3.025
X8.475Y-2.925
X8.225Y-1.525
X8.475Y-1.425
X7.475Y-2.275
X7.725Y-2.175
X6.725Y-2.275
X6.975Y-2.175
X2.975Y-0.775
X3.225Y-0.675
X5.225Y-2.275
X5.475Y-2.175
X11.225Y-0.775
X11.475Y-0.675
X3.725Y-0.775
X3.975Y-0.675
X2.975Y-1.525
X3.225Y-1.425
X2.225Y-2.275
X2.475Y-2.175
X1.475Y-2.275
X1.725Y-2.175
X8.975Y-3.775
X9.225Y-3.675
X11.225Y-1.525
X11.475Y-1.425
X1.475Y-1.525
X1.725Y-1.425
X0.725Y-1.525
X0.975Y-1.425
X3.725Y-2.275
X3.975Y-2.175
X6.725Y-3.775
X6.975Y-3.675
X4.475Y-0.775
X4.725Y-0.675
X6.725Y-1.525
X6.975Y-1.425
X9.725Y-3.775
X9.975Y-3.675
X1.475Y-0.775
X1.725Y-0.675
X5.975Y-3.025
X6.225Y-2.925
X2.225Y-3.775
X2.475Y-3.675
X9.35Y-3.025
X9.6Y-2.925
X1.475Y-3.775
X1.725Y-3.675
X8.975Y-1.525
X9.225Y-1.425
X2.225Y-3.025
X2.475Y-2.925
X4.85Y-3.775
X5.1Y-3.675
X7.475Y-3.025
X7.725Y-2.925
X5.975Y-0.775
X6.225Y-0.675
X11.225Y-2.275
X11.475Y-2.175
X5.225Y-1.525
X5.475Y-1.425
X0.725Y-3.025
X0.975Y-2.925
X8.225Y-0.775
X8.475Y-0.675
X2.975Y-3.025
X3.225Y-2.925
X10.475Y-1.525
X10.725Y-1.425
X9.725Y-1.525
X9.975Y-1.425
X8.225Y-3.775
X8.475Y-3.675
X5.975Y-1.525
X6.225Y-1.425
X10.475Y-0.775
X10.725Y-0.675
X11.225Y-3.775
X11.475Y-3.675
X9.725Y-0.775
X9.975Y-0.675
X2.225Y-1.525
X2.475Y-1.425
X5.975Y-3.775
X6.225Y-3.675
X2.225Y-0.775
X2.475Y-0.675
X3.725Y-3.025
X3.975Y-2.925
X0.725Y-0.775
X0.975Y-0.675
X3.725Y-3.775
X3.975Y-3.675
X4.475Y-2.275
X4.725Y-2.175
X0.725Y-3.775
X0.975Y-3.675
X10.1Y-2.275
X10.35Y-2.175
X2.975Y-2.275
X3.225Y-2.175
X5.225Y-3.025
X5.475Y-2.925
X4.475Y-3.025
X4.725Y-2.925
X8.225Y-2.275
X8.475Y-2.175
X3.725Y-1.525
X3.975Y-1.425
T0
M30
