M48
; DRILL file {KiCad (5.1.4)-1} date 5/13/2022 4:31:48 PM
; FORMAT={-:-/ absolute / inch / decimal}
; #@! TF.CreationDate,2022-05-13T16:31:48-07:00
; #@! TF.GenerationSoftware,Kicad,Pcbnew,(5.1.4)-1
; #@! TF.FileFunction,Plated,1,2,PTH
FMAT,2
INCH
T1C0.0157
T2C0.0579
%
G90
G05
T1
X0.6278Y-2.4872
X1.3778Y-2.5126
X2.1278Y-2.5303
X2.8778Y-2.548
X3.6278Y-2.5657
X4.3778Y-2.5834
X5.1278Y-1.7472
X5.8778Y-1.7626
X6.6278Y-1.7803
X7.27Y-1.325
X7.27Y-2.025
X7.3098Y-2.025
X7.31Y-1.295
X7.3492Y-1.28
X7.3492Y-2.025
X7.3778Y-1.798
X8.225Y-2.175
X8.345Y-1.21
X8.46Y-1.93
X8.4615Y-2.0885
X8.565Y-1.715
X8.6505Y-2.2845
X8.905Y-2.44
X8.995Y-1.715
X9.0237Y-2.4663
X9.13Y-1.871
X9.1945Y-2.0631
X9.195Y-1.76
X11.0187Y-2.4663
X11.0192Y-2.0607
X11.0587Y-3.2163
X11.0593Y-2.0605
X11.0987Y-0.9663
X11.0992Y-1.95
X11.0992Y-2.06
X11.0992Y-3.9658
T2
X2.975Y-1.525
X3.225Y-1.425
X3.725Y-2.275
X3.975Y-2.175
X0.725Y-3.775
X0.975Y-3.675
X0.725Y-1.525
X0.975Y-1.425
X2.225Y-2.275
X2.475Y-2.175
X9.725Y-3.775
X9.975Y-3.675
X2.225Y-1.525
X2.475Y-1.425
X5.225Y-1.525
X5.475Y-1.425
X5.225Y-0.775
X5.475Y-0.675
X1.475Y-2.275
X1.725Y-2.175
X5.975Y-3.775
X6.225Y-3.675
X1.475Y-1.525
X1.725Y-1.425
X5.975Y-3.025
X6.225Y-2.925
X2.975Y-3.025
X3.225Y-2.925
X9.725Y-0.775
X9.975Y-0.675
X0.725Y-3.025
X0.975Y-2.925
X1.475Y-3.775
X1.725Y-3.675
X10.475Y-3.025
X10.725Y-2.925
X10.1Y-2.275
X10.35Y-2.175
X8.975Y-1.525
X9.225Y-1.425
X0.725Y-2.275
X0.975Y-2.175
X4.475Y-3.025
X4.725Y-2.925
X4.475Y-2.275
X4.725Y-2.175
X3.725Y-3.025
X3.975Y-2.925
X5.225Y-2.275
X5.475Y-2.175
X4.85Y-3.775
X5.1Y-3.675
X10.475Y-0.775
X10.725Y-0.675
X5.975Y-1.525
X6.225Y-1.425
X7.475Y-3.775
X7.725Y-3.675
X8.225Y-0.775
X8.475Y-0.675
X2.975Y-0.775
X3.225Y-0.675
X7.475Y-1.525
X7.725Y-1.425
X8.975Y-3.775
X9.225Y-3.675
X4.475Y-0.775
X4.725Y-0.675
X2.975Y-2.275
X3.225Y-2.175
X10.475Y-3.775
X10.725Y-3.675
X1.475Y-0.775
X1.725Y-0.675
X5.225Y-3.025
X5.475Y-2.925
X7.475Y-0.775
X7.725Y-0.675
X9.35Y-3.025
X9.6Y-2.925
X11.225Y-0.775
X11.475Y-0.675
X1.475Y-3.025
X1.725Y-2.925
X8.225Y-1.525
X8.475Y-1.425
X8.975Y-2.275
X9.225Y-2.175
X11.225Y-1.525
X11.475Y-1.425
X6.725Y-3.025
X6.975Y-2.925
X6.725Y-1.525
X6.975Y-1.425
X7.475Y-3.025
X7.725Y-2.925
X5.975Y-2.275
X6.225Y-2.175
X11.225Y-3.775
X11.475Y-3.675
X8.975Y-0.775
X9.225Y-0.675
X9.725Y-1.525
X9.975Y-1.425
X8.225Y-3.775
X8.475Y-3.675
X5.975Y-0.775
X6.225Y-0.675
X3.725Y-1.525
X3.975Y-1.425
X6.725Y-3.775
X6.975Y-3.675
X2.225Y-0.775
X2.475Y-0.675
X8.225Y-3.025
X8.475Y-2.925
X4.475Y-1.525
X4.725Y-1.425
X2.975Y-3.775
X3.225Y-3.675
X2.225Y-3.025
X2.475Y-2.925
X2.225Y-3.775
X2.475Y-3.675
X3.725Y-0.775
X3.975Y-0.675
X11.225Y-3.025
X11.475Y-2.925
X3.725Y-3.775
X3.975Y-3.675
X6.725Y-0.775
X6.975Y-0.675
X11.225Y-2.275
X11.475Y-2.175
X0.725Y-0.775
X0.975Y-0.675
X6.725Y-2.275
X6.975Y-2.175
X7.475Y-2.275
X7.725Y-2.175
X10.475Y-1.525
X10.725Y-1.425
X8.225Y-2.275
X8.475Y-2.175
T0
M30
