G04 #@! TF.GenerationSoftware,KiCad,Pcbnew,(5.1.4)-1*
G04 #@! TF.CreationDate,2022-05-13T01:11:50-07:00*
G04 #@! TF.ProjectId,bakeneko60tho,62616b65-6e65-46b6-9f36-3074686f2e6b,rev?*
G04 #@! TF.SameCoordinates,Original*
G04 #@! TF.FileFunction,Profile,NP*
%FSLAX46Y46*%
G04 Gerber Fmt 4.6, Leading zero omitted, Abs format (unit mm)*
G04 Created by KiCad (PCBNEW (5.1.4)-1) date 2022-05-13 01:11:50*
%MOMM*%
%LPD*%
G04 APERTURE LIST*
%ADD10C,0.050000*%
G04 APERTURE END LIST*
D10*
X12700000Y-15081250D02*
X12700000Y-105568750D01*
X18256250Y-12700000D02*
X15081250Y-12700000D01*
X107156250Y-12700000D02*
X26193750Y-12700000D01*
X196056250Y-12700000D02*
X115093750Y-12700000D01*
X284956250Y-12700000D02*
X203993750Y-12700000D01*
X296068750Y-12700000D02*
X292893750Y-12700000D01*
X298450000Y-105568750D02*
X298450000Y-15081250D01*
X292893750Y-107950000D02*
X296068750Y-107950000D01*
X203993750Y-107950000D02*
X284956250Y-107950000D01*
X114300000Y-107950000D02*
X196056250Y-107950000D01*
X26193750Y-107950000D02*
X106362500Y-107950000D01*
X15081250Y-107950000D02*
X18256250Y-107950000D01*
X196056250Y-107950000D02*
G75*
G02X203993750Y-107950000I3968750J0D01*
G01*
X284956250Y-107950000D02*
G75*
G02X292893750Y-107950000I3968750J0D01*
G01*
X106362500Y-107950000D02*
G75*
G02X114300000Y-107950000I3968750J0D01*
G01*
X18256250Y-107950000D02*
G75*
G02X26193750Y-107950000I3968750J0D01*
G01*
X292893750Y-12700000D02*
G75*
G02X284956250Y-12700000I-3968750J0D01*
G01*
X203993750Y-12700000D02*
G75*
G02X196056250Y-12700000I-3968750J0D01*
G01*
X115093750Y-12700000D02*
G75*
G02X107156250Y-12700000I-3968750J0D01*
G01*
X26193750Y-12700000D02*
G75*
G02X18256250Y-12700000I-3968750J0D01*
G01*
X296068750Y-12700000D02*
G75*
G02X298450000Y-15081250I0J-2381250D01*
G01*
X298450000Y-105568750D02*
G75*
G02X296068750Y-107950000I-2381250J0D01*
G01*
X15081250Y-107950000D02*
G75*
G02X12700000Y-105568750I0J2381250D01*
G01*
X12700000Y-15081250D02*
G75*
G02X15081250Y-12700000I2381250J0D01*
G01*
M02*
